<svg width="538" height="385" viewBox="0 0 538 385" fill="none" xmlns="http://www.w3.org/2000/svg">
<path d="M491.158 384.826H28.899C25.6631 384.826 23.0586 382.226 23.0586 378.994C23.0586 375.763 25.6631 373.162 28.899 373.162H491.158C494.394 373.162 496.998 375.763 496.998 378.994C496.919 382.226 494.315 384.826 491.158 384.826Z" fill="#DADEF2"/>
<path d="M82.0938 357.32C82.0938 357.32 82.2517 331.233 74.3593 317.204C66.4668 303.175 65.4408 299.865 69.9395 287.807C74.4382 275.749 76.4113 266.843 66.6247 256.282C56.8381 245.721 56.917 240.362 61.4946 228.304C65.9933 216.245 63.4677 202.295 48.8668 197.33C34.2658 192.365 19.5859 211.832 22.1115 227.594C24.637 243.357 36.2389 252.184 28.7411 271.65C21.1644 291.117 35.3707 298.525 41.29 306.17C47.2093 313.815 37.3438 325.716 42.5528 331.154C47.8407 336.592 83.5145 376.944 82.0938 357.32Z" fill="#7499F7"/>
<path d="M76.2536 359.526C77.0428 354.009 74.6751 348.571 72.4652 343.606C70.4132 338.877 67.8876 334.385 65.1253 330.05C60.0742 322.248 53.0499 314.997 51.0768 305.618C49.1037 296.003 52.8131 286.388 52.8921 276.773C52.8921 274.33 52.6553 271.808 52.0239 269.443C51.3925 267 50.2876 264.793 49.1826 262.587C48.0777 260.38 46.8938 258.252 45.8678 255.966C44.8418 253.681 44.1315 251.316 43.6579 248.873C41.7637 238.47 44.605 228.067 47.9988 218.373C48.4723 217.112 48.8669 215.851 49.3405 214.59C49.4194 214.432 49.7351 214.511 49.6562 214.669C46.1046 224.678 42.553 235.081 43.579 245.8C43.8158 248.479 44.3682 251.08 45.3153 253.602C46.1835 255.966 47.2884 258.173 48.4723 260.459C50.6822 264.715 52.7342 268.97 53.2078 273.857C54.0759 283.63 50.1297 293.166 51.0768 302.939C52.0239 312.79 58.8903 320.356 64.2571 328.237C67.1773 332.493 69.7029 336.986 71.9128 341.635C74.0437 346.207 76.3325 351.093 76.7271 356.216C76.8061 357.477 76.8061 358.659 76.5693 359.92C76.5693 359.841 76.2536 359.762 76.2536 359.526Z" fill="#A8BEF7"/>
<path d="M95.9058 377.968C95.9058 377.968 87.0663 357.161 75.8591 348.728C64.6518 340.295 62.7577 338.01 62.2052 326.897C61.6527 315.785 60.1532 307.982 48.7092 303.017C37.2652 298.052 35.5288 293.717 34.9764 282.526C34.4239 271.413 27.5575 261.168 14.2982 262.271C1.03897 263.375 -4.01217 283.787 3.48562 295.451C10.9834 307.115 23.2167 310.11 23.927 328.237C24.6373 346.364 38.449 347.389 45.789 351.408C53.1289 355.427 49.3406 368.353 55.4177 370.875C61.4949 373.318 103.798 393.179 95.9058 377.968Z" fill="#00B5F2"/>
<path d="M92.0388 381.829C90.855 377.416 87.3823 374.027 84.1464 371.032C80.6738 367.722 76.8854 364.727 72.8603 362.126C66.0728 357.634 57.8647 354.245 53.2082 347.231C48.7095 340.532 48.2359 332.256 45.3157 324.927C44.6054 323.114 43.6583 321.301 42.5534 319.646C41.2906 317.834 39.7911 316.336 38.1336 314.917C34.8188 312.08 31.2672 309.558 28.6627 306.012C23.0591 298.367 21.5596 288.673 20.9282 279.452C20.8493 278.191 20.7703 277.009 20.6914 275.748C20.6914 275.511 21.0071 275.511 21.0071 275.748C21.6385 285.284 22.4277 295.214 27.4789 303.568C28.6627 305.46 30.0045 307.273 31.5829 308.849C33.1614 310.425 34.8978 311.765 36.6341 313.184C38.2915 314.602 40.0278 316.021 41.4485 317.597C42.7112 319.095 43.7373 320.671 44.6054 322.405C48.0781 329.498 48.4727 337.773 52.1821 344.787C56.2073 352.432 64.1786 356.136 71.2029 360.55C75.1491 362.993 78.9374 365.83 82.4101 368.904C84.1464 370.401 85.8038 372.057 87.3823 373.712C88.803 375.288 90.2236 376.943 91.1707 378.834C91.6442 379.701 91.9599 380.647 92.2756 381.593C92.4335 381.908 92.0388 381.987 92.0388 381.829Z" fill="#A7DFF2"/>
<path d="M472.848 358.659C554.219 358.659 539.381 290.881 528.016 277.01C512.784 258.331 502.76 242.569 502.76 233.899C502.76 211.911 516.967 202.453 516.967 174.159C516.967 145.866 496.999 129.473 473.006 129.473H473.085C449.328 129.473 428.887 145.866 428.887 174.159C428.887 202.453 443.093 211.911 443.093 233.899C443.093 242.569 433.07 258.331 417.838 277.01C406.552 290.881 391.793 358.659 473.085 358.659H472.848Z" fill="#7499F7"/>
<path d="M494.552 270.784C494.552 279.532 490.843 286.546 483.582 291.669C479.793 294.348 476.005 295.767 473.953 296.398V169.982H471.349V195.045C469.77 194.572 467.087 193.705 464.482 192.129C459.115 188.897 456.353 184.563 456.353 179.125H453.985C453.985 185.43 457.221 190.631 463.298 194.257C466.534 196.148 469.691 197.173 471.349 197.567V327.45C460.615 327.213 452.407 324.14 446.803 318.229C438.358 309.244 438.99 296.713 438.99 296.476L437.727 296.398L436.464 296.319C436.464 296.87 435.675 310.111 444.909 319.963C450.986 326.425 459.905 329.814 471.349 330.051V378.757H473.953V298.92C475.926 298.368 480.346 296.87 484.845 293.718C490.369 289.856 496.841 282.763 496.841 270.784H494.552Z" fill="#A8BEF7"/>
<path d="M419.495 290.173H66.4668V96.7668C66.4668 89.122 72.6229 82.9746 80.2785 82.9746H405.683C413.338 82.9746 419.495 89.122 419.495 96.7668V290.173Z" fill="#332A75"/>
<path d="M402.598 273.225L402.598 99.916L83.3494 99.916L83.3494 273.225L402.598 273.225Z" fill="white"/>
<path d="M419.495 290.172H66.4668V318.466C66.4668 326.11 72.6229 332.258 80.2785 332.258H405.683C413.338 332.258 419.495 326.11 419.495 318.466V290.172Z" fill="#DADEF2"/>
<path d="M300.635 367.408H185.327C182.091 367.408 179.486 370.009 179.486 373.24C179.486 376.472 182.091 379.072 185.327 379.072H300.635C303.871 379.072 306.475 376.472 306.475 373.24C306.475 370.009 303.871 367.408 300.635 367.408Z" fill="#B7BBDB"/>
<path d="M278.22 332.18H207.741L201.506 367.409H284.455L278.22 332.18Z" fill="#9FA3BF"/>
<path d="M242.941 321.224C248.128 321.224 252.333 317.025 252.333 311.845C252.333 306.666 248.128 302.467 242.941 302.467C237.754 302.467 233.549 306.666 233.549 311.845C233.549 317.025 237.754 321.224 242.941 321.224Z" fill="#9FA3BF"/>
<path d="M402.606 99.4453H83.3574V273.621H402.606V99.4453Z" fill="#DADEF2"/>
<path d="M343.886 115.996H205.689V253.997H343.886V115.996Z" fill="white"/>
<path d="M198.507 115.996H140.893V253.997H198.507V115.996Z" fill="white"/>
<path d="M190.221 182.041H149.259C147.444 182.041 146.023 180.622 146.023 178.809C146.023 176.997 147.444 175.578 149.259 175.578H190.221C192.036 175.578 193.457 176.997 193.457 178.809C193.457 180.622 191.957 182.041 190.221 182.041Z" fill="#DADEF2"/>
<path d="M190.221 194.572H149.259C147.444 194.572 146.023 193.153 146.023 191.341C146.023 189.528 147.444 188.109 149.259 188.109H190.221C192.036 188.109 193.457 189.528 193.457 191.341C193.457 193.075 191.957 194.572 190.221 194.572Z" fill="#DADEF2"/>
<path d="M245.39 224.521H222.502C220.686 224.521 219.266 223.103 219.266 221.29C219.266 219.477 220.686 218.059 222.502 218.059H245.39C247.205 218.059 248.625 219.477 248.625 221.29C248.625 223.103 247.205 224.521 245.39 224.521Z" fill="#DADEF2"/>
<path d="M289.587 224.521H255.492C253.676 224.521 252.256 223.103 252.256 221.29C252.256 219.477 253.676 218.059 255.492 218.059H289.587C291.402 218.059 292.823 219.477 292.823 221.29C292.823 223.103 291.402 224.521 289.587 224.521Z" fill="#DADEF2"/>
<path d="M263.463 237.052H222.502C220.686 237.052 219.266 235.634 219.266 233.821C219.266 232.008 220.686 230.59 222.502 230.59H263.463C265.278 230.59 266.699 232.008 266.699 233.821C266.699 235.634 265.278 237.052 263.463 237.052Z" fill="#DADEF2"/>
<path d="M314.528 237.052H273.566C271.751 237.052 270.33 235.634 270.33 233.821C270.33 232.008 271.751 230.59 273.566 230.59H314.528C316.343 230.59 317.764 232.008 317.764 233.821C317.842 235.634 316.343 237.052 314.528 237.052Z" fill="#DADEF2"/>
<path d="M189.667 246.825H149.732C147.68 246.825 145.943 245.17 145.943 243.042V227.279C145.943 225.23 147.601 223.496 149.732 223.496H189.667C191.719 223.496 193.456 225.151 193.456 227.279V243.042C193.456 245.17 191.798 246.825 189.667 246.825Z" fill="#DADEF2"/>
<path d="M169.937 168.642C182.927 168.642 193.457 158.127 193.457 145.156C193.457 132.185 182.927 121.67 169.937 121.67C156.948 121.67 146.418 132.185 146.418 145.156C146.418 158.127 156.948 168.642 169.937 168.642Z" fill="#DADEF2"/>
<path d="M169.938 168.642C180.835 168.642 189.669 163.843 189.669 157.924C189.669 152.004 180.835 147.205 169.938 147.205C159.041 147.205 150.207 152.004 150.207 157.924C150.207 163.843 159.041 168.642 169.938 168.642Z" fill="#6956F2"/>
<path d="M169.937 153.431C176.737 153.431 182.249 147.927 182.249 141.137C182.249 134.346 176.737 128.842 169.937 128.842C163.137 128.842 157.625 134.346 157.625 141.137C157.625 147.927 163.137 153.431 169.937 153.431Z" fill="#6956F2"/>
<path d="M255.492 127.266H216.977V165.726H255.492V127.266Z" fill="#F2DADA" stroke="white" stroke-width="4.7722" stroke-miterlimit="10"/>
<path d="M294.085 127.266H255.57V165.726H294.085V127.266Z" fill="#DAE7F2" stroke="white" stroke-width="4.7722" stroke-miterlimit="10"/>
<path d="M332.599 127.266H294.084V165.726H332.599V127.266Z" fill="#DEDAF2" stroke="white" stroke-width="4.7722" stroke-miterlimit="10"/>
<path d="M255.492 165.805H216.977V204.265H255.492V165.805Z" fill="#DADEF2" stroke="white" stroke-width="4.7722" stroke-miterlimit="10"/>
<path d="M294.085 165.805H255.57V204.265H294.085V165.805Z" fill="#F2DADA" stroke="white" stroke-width="4.7722" stroke-miterlimit="10"/>
<path d="M332.599 165.805H294.084V204.265H332.599V165.805Z" fill="#DAE7F2" stroke="white" stroke-width="4.7722" stroke-miterlimit="10"/>
<path d="M433.148 144.84H310.737C308.369 144.84 306.475 142.949 306.475 140.585V46.2461H437.41V140.585C437.41 142.949 435.516 144.84 433.148 144.84Z" fill="#A5DFF2"/>
<path d="M427.545 53.9707H314.131V135.778H427.545V53.9707Z" fill="white"/>
<path d="M415.391 99.6814H411.997C411.444 96.6866 410.34 94.1646 408.761 91.7214L411.208 89.2782C411.76 88.7265 411.76 87.8596 411.208 87.3079L405.999 82.1062C405.446 81.5546 404.578 81.5546 404.026 82.1062L401.658 84.4706C399.211 82.8944 396.528 81.7122 393.687 81.0817V77.6928C393.687 76.9046 393.055 76.1953 392.266 76.1953H384.926C384.137 76.1953 383.505 76.9834 383.505 77.6928V81.0029C380.664 81.5546 377.981 82.6579 375.534 84.2342L373.166 81.791C372.614 81.2393 371.746 81.2393 371.193 81.791L365.984 86.9926C365.432 87.5443 365.432 88.4113 365.984 88.9629L368.352 91.4061C366.773 93.8493 365.59 96.2925 364.958 99.445H361.564C360.775 99.445 360.223 99.9179 360.223 100.706V108.036C360.223 108.824 360.854 109.297 361.564 109.297H364.879C365.432 112.134 366.537 114.892 368.115 117.335L365.668 119.779C365.116 120.33 365.116 121.197 365.668 121.749L370.877 126.951C371.43 127.502 372.298 127.502 372.851 126.951L375.218 124.586C377.665 126.162 380.348 127.345 383.111 127.975V131.364C383.111 132.152 383.742 132.861 384.531 132.861H391.871C392.66 132.861 393.292 132.073 393.292 131.364V128.054C396.133 127.502 398.817 126.399 401.263 124.823L403.71 127.266C404.262 127.817 405.131 127.817 405.683 127.266L410.892 122.064C411.444 121.512 411.444 120.646 410.892 120.094L408.524 117.808C410.103 115.365 411.287 112.607 411.918 110.006H415.312C416.101 110.006 416.653 109.218 416.653 108.43V101.1C416.732 100.312 416.101 99.6814 415.391 99.6814ZM388.478 116.705C381.769 116.705 376.323 111.267 376.323 104.568C376.323 97.8687 381.769 92.4307 388.478 92.4307C395.186 92.4307 400.632 97.8687 400.632 104.568C400.632 111.267 395.186 116.705 388.478 116.705Z" fill="#56CBF2"/>
<path d="M366.537 74.8554H364.169C363.774 72.7275 362.985 70.9148 361.88 69.1809L363.616 67.447C364.011 67.053 364.011 66.4225 363.616 66.0284L359.907 62.3242C359.512 61.9302 358.881 61.9302 358.486 62.3242L356.829 63.9793C355.093 62.8759 353.198 62.009 351.146 61.6149V59.1717C351.146 58.62 350.673 58.0684 350.12 58.0684H344.911C344.359 58.0684 343.885 58.62 343.885 59.1717V61.5361C341.912 61.9302 339.939 62.7183 338.203 63.8217L336.467 62.0878C336.072 61.6937 335.441 61.6937 335.046 62.0878L331.336 65.792C330.942 66.186 330.942 66.8165 331.336 67.2106L332.994 68.9445C331.889 70.6784 331.021 72.4122 330.626 74.6978H328.179C327.627 74.6978 327.232 75.013 327.232 75.5647V80.7664C327.232 81.318 327.627 81.6333 328.179 81.6333H330.547C330.942 83.6036 331.731 85.6527 332.836 87.3866L331.1 89.1205C330.705 89.5145 330.705 90.145 331.1 90.5391L334.809 94.2433C335.204 94.6373 335.835 94.6373 336.23 94.2433L337.887 92.5882C339.624 93.6916 341.518 94.5585 343.57 94.9526V97.3958C343.57 97.9475 344.043 98.4992 344.596 98.4992H349.805C350.357 98.4992 350.831 97.9475 350.831 97.3958V95.0314C352.804 94.6373 354.777 93.8492 356.513 92.7458L358.25 94.4797C358.644 94.8738 359.276 94.8738 359.67 94.4797L363.38 90.7755C363.774 90.3815 363.774 89.751 363.38 89.3569L361.722 87.7018C362.827 85.968 363.695 83.9977 364.09 82.1062H366.537C367.089 82.1062 367.484 81.5545 367.484 81.0028V75.8012C367.484 75.2495 367.089 74.8554 366.537 74.8554ZM347.358 86.9925C342.544 86.9925 338.676 83.1307 338.676 78.3232C338.676 73.5156 342.544 69.6538 347.358 69.6538C352.172 69.6538 356.04 73.5156 356.04 78.3232C355.961 83.1307 352.094 86.9925 347.358 86.9925Z" fill="#6956F2"/>
<path d="M433.148 33.0059H310.737C308.369 33.0059 306.475 34.8974 306.475 37.2617V46.1675H437.41V37.2617C437.41 34.8974 435.516 33.0059 433.148 33.0059Z" fill="#332A75"/>
<path d="M317.919 39.704C317.919 40.7286 317.051 41.5955 316.025 41.5955C314.999 41.5955 314.131 40.7286 314.131 39.704C314.131 38.6794 314.999 37.8125 316.025 37.8125C317.051 37.8125 317.919 38.6006 317.919 39.704Z" fill="#FF1800"/>
<path d="M326.757 39.704C326.757 40.7286 325.889 41.5955 324.863 41.5955C323.837 41.5955 322.969 40.7286 322.969 39.704C322.969 38.6794 323.837 37.8125 324.863 37.8125C325.968 37.8125 326.757 38.6006 326.757 39.704Z" fill="#FFC900"/>
<path d="M333.783 41.5955C334.829 41.5955 335.677 40.7486 335.677 39.704C335.677 38.6594 334.829 37.8125 333.783 37.8125C332.737 37.8125 331.889 38.6594 331.889 39.704C331.889 40.7486 332.737 41.5955 333.783 41.5955Z" fill="#00D694"/>
<path d="M331.651 120.409H329.757C329.363 120.409 329.047 120.093 329.047 119.699V117.493C329.047 117.098 329.363 116.783 329.757 116.783H331.651C332.046 116.783 332.362 117.098 332.362 117.493V119.699C332.362 120.093 332.046 120.409 331.651 120.409Z" fill="#DADEF2"/>
<path d="M331.651 127.659H329.757C329.363 127.659 329.047 127.343 329.047 126.949V124.743C329.047 124.348 329.363 124.033 329.757 124.033H331.651C332.046 124.033 332.362 124.348 332.362 124.743V126.949C332.362 127.343 332.046 127.659 331.651 127.659Z" fill="#DADEF2"/>
<path d="M347.514 120.409H335.755C334.729 120.409 333.939 119.62 333.939 118.596C333.939 117.571 334.729 116.783 335.755 116.783H347.514C348.54 116.783 349.33 117.571 349.33 118.596C349.409 119.542 348.54 120.409 347.514 120.409Z" fill="#DADEF2"/>
<path d="M353.828 127.661H335.755C334.729 127.661 333.939 126.872 333.939 125.848C333.939 124.823 334.729 124.035 335.755 124.035H353.828C354.854 124.035 355.644 124.823 355.644 125.848C355.644 126.872 354.854 127.661 353.828 127.661Z" fill="#DADEF2"/>
<path d="M416.653 365.99C468.19 365.99 458.799 323.116 451.616 314.289C441.988 302.467 435.595 292.458 435.595 287.02C435.595 273.07 444.592 267.081 444.592 249.19C444.592 231.3 431.964 220.896 416.732 220.896C401.736 220.896 388.793 231.3 388.793 249.19C388.793 267.081 397.79 273.149 397.79 287.02C397.79 292.537 391.476 302.467 381.769 314.289C374.586 323.116 365.194 365.99 416.732 365.99H416.653Z" fill="#00B5F2"/>
<path d="M430.386 310.348C430.386 315.865 428.018 320.357 423.441 323.588C421.073 325.243 418.626 326.189 417.363 326.583V246.51H415.706V262.351C414.68 262.036 413.023 261.484 411.365 260.538C407.971 258.489 406.235 255.731 406.235 252.263H404.736C404.736 256.204 406.788 259.514 410.655 261.878C412.707 263.06 414.68 263.691 415.785 263.927V346.208C408.997 346.05 403.788 344.08 400.237 340.375C394.87 334.701 395.265 326.741 395.344 326.583L394.554 326.504L393.765 326.426C393.765 326.82 393.292 335.174 399.132 341.4C402.999 345.498 408.603 347.626 415.864 347.784V378.599H417.521V328.081C418.784 327.765 421.625 326.741 424.467 324.771C427.939 322.327 432.122 317.835 432.122 310.269H430.386V310.348Z" fill="#A7DFF2"/>
<path d="M107.745 367.644L173.804 301.678C176.882 305.618 180.434 309.165 184.38 312.239L118.321 378.205C116.9 379.623 114.927 380.411 113.033 380.411C111.139 380.411 109.244 379.702 107.745 378.205C104.825 375.289 104.825 370.56 107.745 367.644Z" fill="#494E6D"/>
<path d="M162.123 267.238C162.123 298.526 187.537 323.825 218.791 323.825C250.045 323.825 275.458 298.447 275.458 267.238C275.458 235.949 250.045 210.65 218.791 210.65C187.537 210.65 162.123 235.949 162.123 267.238ZM174.751 267.238C174.751 242.964 194.482 223.26 218.791 223.26C243.099 223.26 262.83 242.964 262.83 267.238C262.83 291.512 243.099 311.215 218.791 311.215C194.482 311.215 174.751 291.512 174.751 267.238Z" fill="#00B5F2"/>
<path d="M174.912 300.601L156.887 318.602L167.434 329.134L185.46 311.134L174.912 300.601Z" fill="#332A75"/>
<path d="M249.997 298.313C267.196 281.139 267.196 253.294 249.998 236.12C232.799 218.946 204.915 218.946 187.717 236.12C170.518 253.294 170.518 281.139 187.717 298.313C204.915 315.487 232.799 315.487 249.997 298.313Z" fill="#DADEF2"/>
<path d="M238.284 306.722L203.873 225.861C208.53 224.206 213.581 223.26 218.79 223.26C221.868 223.26 224.788 223.575 227.708 224.127L256.042 290.723C251.78 297.58 245.624 303.097 238.284 306.722Z" fill="white"/>
<path d="M197.165 228.934L229.13 310.032C225.815 310.82 222.342 311.293 218.79 311.293C218.712 311.293 218.633 311.293 218.554 311.293L188.562 235.317C191.246 232.795 194.087 230.667 197.165 228.934Z" fill="white"/>
<path d="M106.639 366.147L132.289 340.533C132.921 339.903 134.026 339.903 134.657 340.533L145.47 351.331C146.101 351.961 146.101 353.065 145.47 353.695L119.662 379.467C117.846 381.279 115.479 382.225 113.032 382.225C110.664 382.225 108.218 381.279 106.402 379.467C102.772 375.841 103.009 369.773 106.639 366.147Z" fill="#DADEF2"/>
<path d="M145.643 80.9178C160.561 66.0213 160.561 41.8693 145.643 26.9728C130.726 12.0763 106.54 12.0763 91.6221 26.9728C76.7044 41.8693 76.7044 66.0213 91.6221 80.9178C106.54 95.8143 130.726 95.8143 145.643 80.9178Z" fill="#00B5F2"/>
<path d="M114.531 73.1231C113.19 73.1231 111.927 72.5714 110.901 71.6257L97.4837 58.2275C95.5106 56.2572 95.5106 53.0259 97.4837 51.0556C99.4568 49.0853 102.693 49.0853 104.666 51.0556L113.9 60.2767L131.895 36.6329C133.631 34.4262 136.788 33.9533 138.998 35.6872C141.208 37.421 141.681 40.5735 139.945 42.7803L118.399 70.9952C117.53 72.1773 116.189 72.8867 114.689 72.9655C114.768 73.1231 114.61 73.1231 114.531 73.1231Z" fill="white"/>
</svg>
