<svg width="602" height="632" viewBox="0 0 602 632" fill="none" xmlns="http://www.w3.org/2000/svg">
<path d="M15.4473 606.062L601.81 604.317C601.81 604.317 537.24 565.924 511.064 578.14C484.887 590.356 498.848 490.884 429.043 471.687C359.238 452.491 329.571 544.984 329.571 544.984C329.571 544.984 334.806 506.592 298.158 508.337C261.509 510.081 247.549 543.239 247.549 543.239C247.549 543.239 193.45 440.277 135.861 464.708C78.2714 489.14 135.861 558.946 135.861 558.946C135.861 558.946 90.4877 525.788 85.2522 553.71C80.0167 581.632 43.3682 565.926 43.3682 583.377C43.3682 600.829 15.4473 606.062 15.4473 606.062Z" fill="#EEEEF5"/>
<path d="M96.8225 124.515L311.661 16.2639C320.459 11.831 330.419 10.2491 340.157 11.7379C349.895 13.2268 358.928 17.7125 365.999 24.5715L537.725 191.146C542.413 195.693 546.111 201.161 548.587 207.205C551.062 213.25 552.262 219.741 552.111 226.271C551.96 232.801 550.461 239.229 547.708 245.152C544.955 251.075 541.008 256.366 536.114 260.692L349.201 425.91C339.812 434.209 327.52 438.453 315.011 437.715C302.502 436.976 290.795 431.315 282.448 421.97L82.7958 198.43C62.0277 175.173 68.9782 138.545 96.8225 124.515Z" fill="#EEEEF5"/>
<path d="M506.197 577.265C506.303 586.728 506.846 595.583 507.511 603.067H534.706C547.112 588.585 558.083 571.062 565.971 553.889C569.164 547.006 571.899 539.92 574.161 532.677C576.447 525.24 577.939 518.179 578.483 511.814C579.237 503.041 578.182 495.597 574.923 490.327C570.601 483.362 562.412 480.191 549.406 482.77C547.401 483.162 545.428 483.702 543.503 484.383V484.391C540.823 485.318 538.253 486.536 535.84 488.024C531.939 490.448 528.451 493.481 525.51 497.008C521.075 502.254 517.596 508.589 514.896 515.619C514.482 516.665 514.093 517.727 513.728 518.805C511.499 525.437 509.833 532.246 508.75 539.158C508.644 539.798 508.539 540.439 508.442 541.088C508.32 541.882 508.207 542.685 508.101 543.488C507.01 551.7 506.39 559.968 506.245 568.251C506.181 571.298 506.166 574.314 506.197 577.265Z" fill="#7B7DB5"/>
<path d="M517.232 603.117L516.876 603.018C517.394 601.177 517.943 599.261 518.515 597.27L518.66 596.765C520.788 589.425 522.952 582.2 525.091 575.29C526.858 569.589 528.656 563.968 530.436 558.583C533.012 550.811 535.423 543.863 537.808 537.342C541.051 528.466 544.236 520.409 547.275 513.395C553.409 499.224 559.139 488.856 564.306 482.58L564.591 482.815C559.448 489.064 553.735 499.403 547.614 513.542C544.58 520.55 541.398 528.601 538.156 537.469C535.772 543.986 533.362 550.931 530.787 558.699C529.008 564.082 527.211 569.701 525.445 575.399C523.305 582.308 521.142 589.53 519.016 596.868L518.871 597.372C518.299 599.363 517.753 601.278 517.232 603.117Z" fill="black"/>
<path d="M511.054 625.817L510.696 625.724C510.696 625.724 510.745 625.537 510.844 625.172L511.201 625.267L511.054 625.817Z" fill="black"/>
<path d="M547.304 513.829L543.32 484.407L543.687 484.357L547.58 513.112L575.164 489.886L575.403 490.169L547.304 513.829Z" fill="black"/>
<path d="M537.873 537.693L525.13 496.416L525.483 496.307L538.084 537.122L578.388 511.661L578.586 511.973L537.873 537.693Z" fill="black"/>
<path d="M530.516 558.909L514.719 515.664L515.066 515.537L530.711 558.363L574.073 532.51L574.262 532.828L530.516 558.909Z" fill="black"/>
<path d="M525.189 575.596L507.938 543.572L508.264 543.396L525.341 575.097L565.889 553.723L566.061 554.051L525.189 575.596Z" fill="black"/>
<path d="M518.776 597.051L518.685 596.917L506.06 578.322L506.366 578.113L518.9 596.575L551.369 580.232L551.535 580.562L518.776 597.051Z" fill="black"/>
<path d="M503.004 573.877C503.004 573.877 573.547 457.926 510.301 432.79C447.055 407.654 487.598 558.47 503.004 573.877Z" fill="#404396"/>
<path d="M503.592 573.498L503.226 573.443C503.273 573.13 507.952 541.814 510.034 508.682C511.954 478.137 512.005 439.767 501.339 430.427L501.583 430.148C506.356 434.327 509.424 444.476 510.706 460.313C511.729 472.951 511.627 489.233 510.402 508.706C508.32 541.855 503.639 573.187 503.592 573.498Z" fill="black"/>
<path d="M509.857 453.76L488.941 432.069L489.208 431.812L509.757 453.123L517.837 436.613L518.17 436.776L509.857 453.76Z" fill="black"/>
<path d="M511.232 475.41L478.212 447.815L478.449 447.531L511.14 474.851L528.451 446.621L528.767 446.815L511.232 475.41Z" fill="black"/>
<path d="M510.766 499.514L475.88 471.806L476.11 471.516L510.706 498.994L535.951 467.109L536.241 467.339L510.766 499.514Z" fill="black"/>
<path d="M509.161 523.492L509.036 523.403L479.029 502.074L479.244 501.773L509.125 523.012L533.768 499.121L534.025 499.387L509.161 523.492Z" fill="black"/>
<path d="M507.535 540.652L483.485 523.402L483.701 523.101L507.494 540.166L528.135 519.174L528.399 519.433L507.535 540.652Z" fill="black"/>
<path d="M443.981 551.717C445.783 558.166 448.18 564.433 451.141 570.439C457.029 582.528 464.885 593.554 474.387 603.068H514.679C514.987 600.635 515.271 598.065 515.497 595.389V595.381C515.578 594.351 515.659 593.297 515.733 592.236C516.462 581.184 516.195 568.624 513.527 556.591V556.583C513.413 556.08 513.3 555.584 513.179 555.083C512.83 553.631 512.449 552.188 512.019 550.761C511.061 547.455 509.866 544.222 508.443 541.088C508.281 540.723 508.11 540.35 507.932 539.985C507.835 539.766 507.73 539.555 507.624 539.336C506.911 537.877 506.149 536.442 505.313 535.039C501.139 527.83 495.36 521.682 488.423 517.07C486.139 515.55 483.746 514.2 481.263 513.032C479.362 512.134 477.416 511.333 475.434 510.632C471.168 509.115 467.325 508.248 463.895 507.973C458.722 507.535 454.49 508.427 451.141 510.365C446.754 512.903 443.884 517.249 442.4 522.811C440.324 530.594 440.965 540.754 443.981 551.717Z" fill="#7B7DB5"/>
<path d="M502.423 603.131C501.563 600.719 500.614 598.134 499.602 595.447C497.687 590.378 495.694 585.416 493.678 580.697C490.948 574.282 488.031 567.95 485.006 561.879C479.638 551.027 473.543 540.551 466.761 530.521C461.98 523.487 456.715 516.794 451.006 510.49L451.279 510.24C457 516.557 462.275 523.264 467.066 530.313C473.858 540.356 479.963 550.847 485.339 561.714C488.367 567.792 491.287 574.13 494.02 580.552C496.038 585.276 498.033 590.243 499.95 595.315C500.962 598.004 501.911 600.592 502.773 603.005L502.423 603.131Z" fill="black"/>
<path d="M467.142 530.761L466.865 530.674L442.346 522.987L442.456 522.634L466.698 530.234L463.712 507.994L464.079 507.945L467.142 530.761Z" fill="black"/>
<path d="M485.339 562.031L443.936 551.899L444.023 551.54L485.001 561.567L488.242 517.053L488.61 517.079L485.339 562.031Z" fill="black"/>
<path d="M499.899 595.59L499.745 595.563L462.166 588.988L462.229 588.624L499.655 595.171L513.349 556.52L513.697 556.643L499.899 595.59Z" fill="black"/>
<path d="M512.449 603.141L512.107 602.997L515.326 595.318L515.488 595.386L515.682 595.382L515.667 595.462L512.449 603.141Z" fill="black"/>
<path d="M493.984 580.842L451.095 570.623L451.18 570.263L493.714 580.398L505.135 534.996L505.494 535.086L493.984 580.842Z" fill="black"/>
<path d="M183.864 72.8572C183.864 72.8572 248.915 93.7663 306.996 72.8572C365.077 51.9481 333.946 38.4731 301.885 44.049C269.824 49.6249 256.814 7.80639 202.45 27.786C148.086 47.7656 183.864 72.8572 183.864 72.8572Z" fill="white"/>
<path d="M204.742 78.7244C204.742 78.7244 214.73 53.3098 212.152 53.8278C209.574 54.3458 206.352 62.1628 206.352 62.1628L202.767 59.467C202.767 59.467 202.377 40.0091 199.713 39.3897C197.048 38.7703 197.348 55.5998 197.348 55.5998C197.348 55.5998 195.059 41.287 191.976 39.453C188.892 37.6189 191.358 55.696 191.358 55.696C191.358 55.696 188.659 43.15 186.246 42.9613C183.832 42.7726 183.74 77.3284 183.74 77.3284L204.742 78.7244Z" fill="#FD8680"/>
<path d="M361.359 295.293L370.851 338.737L346.57 366.837L302.506 364.206L282.96 292.096L361.359 295.293Z" fill="#404396"/>
<path d="M268.999 559.171L267.17 577.122L248.352 575.76L247.048 557.686L268.999 559.171Z" fill="#FD8680"/>
<path d="M307.914 142.844L299.938 131.818L269.444 139.326C269.444 139.326 271.03 157.9 289.239 155.417C307.448 152.933 307.914 142.844 307.914 142.844Z" fill="white"/>
<path d="M308.068 363.93L308.023 364.123L308.009 364.213C305.84 374.627 303.611 385.62 301.383 396.851L301.219 397.669C297.613 415.805 294.586 434.103 292.06 451.562C283.434 511.2 280.664 561.026 280.664 561.026H240.033L243.04 437.065L246.416 297.91L284.225 298.371L308.068 363.93Z" fill="#404396"/>
<path d="M235.693 597.511H201.56C201.581 592.998 203.388 588.678 206.586 585.494C209.785 582.311 214.114 580.523 218.626 580.523C223.139 580.523 227.468 582.311 230.666 585.494C233.865 588.678 235.672 592.998 235.693 597.511Z" fill="white"/>
<path d="M235.693 597.512H201.56C201.555 600.355 202.264 603.154 203.622 605.652H265.851V597.512H235.693Z" fill="#19274A"/>
<path d="M268.999 570.469L265.854 597.512H235.694C235.693 592.985 233.895 588.645 230.695 585.444C227.494 582.243 223.153 580.445 218.627 580.445C218.627 580.445 224.843 579.927 231.323 579.853C231.832 579.848 232.346 579.843 232.855 579.848C232.855 579.848 235.118 586.687 237.457 587.011C239.184 587.182 240.925 587.152 242.646 586.924C244.106 586.739 245.438 586.42 246.158 585.957C247.994 584.773 246.42 578.563 246.42 578.563C247.69 576.069 246.42 570.469 246.42 570.469L268.999 570.469Z" fill="#9395D1"/>
<path d="M308.194 364.242L307.831 364.169L307.877 363.942L292.289 321.203L292.637 321.076L292.981 322.017L308.261 363.914L308.194 364.242Z" fill="#19274A"/>
<path d="M246.157 585.957C245.438 586.42 244.106 586.738 242.645 586.924C240.902 585.18 240.244 581.509 240.033 579.925C242.558 579.946 244.517 579.905 245.309 579.622C245.802 579.426 246.2 579.046 246.419 578.562C246.419 578.562 247.993 584.774 246.157 585.957Z" fill="#404396"/>
<path d="M242.645 586.924C240.925 587.152 239.184 587.181 237.457 587.011C235.117 586.687 232.854 579.848 232.854 579.848C235.4 579.848 237.914 579.909 240.032 579.925C240.244 581.509 240.902 585.18 242.645 586.924Z" fill="#404396"/>
<path d="M286.469 150.602C287.132 150.482 310.093 150.938 310.093 150.938C310.093 150.938 330.924 151.09 337.312 155.045C337.312 155.045 321.193 173.596 315.112 174.204C309.03 174.813 295.344 177.246 291.086 174.508C286.829 171.771 285.916 173.292 285.612 168.122C285.308 162.951 286.469 150.602 286.469 150.602Z" fill="#E39739"/>
<path d="M358.768 297.902C358.041 298.63 354.9 299.234 350.092 299.715C323.584 302.374 246.35 301.397 242.855 297.902C241.474 296.521 240.633 284.341 240.129 268.74C259.184 269.286 326.188 270.54 359.79 262.428C359.786 268.926 359.931 275.239 360.008 280.701C360.135 289.84 360.067 296.603 358.768 297.902Z" fill="#FFAA40"/>
<path d="M361.19 222.75C360.69 230.998 359.959 245.068 359.813 258.829C359.8 260.033 359.792 261.233 359.791 262.428C326.188 270.54 259.184 269.286 240.129 268.741C239.693 255.334 239.506 239.392 239.434 225.604C259.839 227.399 326.42 232.253 361.19 222.75Z" fill="#E39739"/>
<path d="M353.586 308.365L350.092 299.716C354.9 299.235 358.04 298.63 358.767 297.903C360.067 296.604 358.981 280.628 358.854 271.489L383.703 235.266L362.909 222.259L361.281 221.242C361.254 221.718 361.222 222.223 361.191 222.75C326.42 232.253 259.838 227.399 239.433 225.604C239.333 207.458 239.438 193.038 239.438 193.038C220.914 188.594 199.709 183.095 194.816 180.159C180.896 171.806 184.049 77.5243 184.049 77.5243L206.558 76.5664L213.263 142.179C227.315 144.392 268.225 147.848 286.471 150.602C286.471 150.602 290.738 168.898 308.853 169.834C324.518 170.648 334.906 153.515 334.906 153.515C355.052 163.149 411.759 192.18 417.944 216.361C423.786 239.197 353.586 308.365 353.586 308.365Z" fill="#9395D1"/>
<path d="M362.244 221.302L360.317 221.182C360.545 217.539 360.705 215.363 360.705 215.363L362.629 215.505C362.629 215.507 362.47 217.675 362.244 221.302Z" fill="#19274A"/>
<path d="M239.484 167.802L238.57 245.809L240.5 245.831L241.414 167.825L239.484 167.802Z" fill="#19274A"/>
<path d="M317.43 156.83C311.991 163.626 305.287 163.721 297.561 158.38L299.773 142.263C312.844 142.896 318.387 134.963 320.373 130.85L317.521 156.023L317.43 156.83Z" fill="#FD8680"/>
<path d="M334.106 158.323C329.915 159.254 320.371 158.592 317.52 156.022L320.373 130.849V130.846L320.575 129.061C320.603 129.058 320.973 129.026 321.147 129.006C324.565 128.636 332.136 126.947 332.788 119.205C333.552 110.181 324.044 109.932 320.578 113.454C319.809 118.402 318.176 127.769 317.09 125.795C315.526 122.942 312.137 121.471 307.571 115.453C303.005 109.434 303.468 101.495 303.468 101.495C295.712 115.892 283.851 117.477 281.817 117.642C281.849 124.379 283.467 140.792 298.361 142.165C298.842 142.209 299.312 142.243 299.772 142.263L298.051 154.803C298.051 154.803 292.329 156.079 287.817 155.459C283.305 154.84 276.538 153.911 276.987 150.642C279.278 133.947 274.489 120.398 280.888 103.943C284.981 93.4175 296.539 88.4451 302.307 93.7809C302.307 93.7809 310.993 86.3098 322.809 91.8395C334.625 97.3691 337.646 109.262 336.57 119.833C333.436 150.676 338.519 157.347 334.106 158.323Z" fill="#8E3332"/>
<path d="M321.147 129.004C320.973 129.024 320.603 129.057 320.575 129.06L320.373 130.844V130.848C319.274 133.128 317.767 135.187 315.926 136.924C312.64 139.992 307.533 142.638 299.772 142.262C299.312 142.242 298.842 142.208 298.361 142.164C283.467 140.79 281.849 124.378 281.817 117.641C283.852 117.476 295.712 115.891 303.468 101.494C303.468 101.494 303.005 109.433 307.571 115.451C312.136 121.47 315.526 122.94 317.09 125.794C318.176 127.768 319.809 118.401 320.578 113.453C324.044 109.931 333.552 110.18 332.788 119.204C332.135 126.947 324.565 128.636 321.147 129.004Z" fill="#FD8680"/>
<path d="M320.653 122.427L319.075 121.099C320.02 119.998 321.322 119.263 322.753 119.022C324.184 118.781 325.654 119.049 326.908 119.78L325.903 121.579C322.851 119.878 320.741 122.322 320.653 122.427Z" fill="#19274A"/>
<path d="M315.926 136.924C311.658 140.998 305.574 142.603 299.772 142.262L298.977 148.06C309.277 147.307 315.926 136.924 315.926 136.924Z" fill="#19274A"/>
<path d="M246.534 350.578L246.297 350.294C268.004 332.09 276.977 302.856 277.065 302.564L277.419 302.671C277.331 302.964 268.33 332.302 246.534 350.578Z" fill="#19274A"/>
<path d="M240.033 546.666H281.644L280.664 561.027H240.033V546.666Z" stroke="#19274A" stroke-miterlimit="10"/>
<path d="M481.524 458.476L470.419 453.822L461.087 476.491L477.675 480.725L481.524 458.476Z" fill="#FD8680"/>
<path d="M468.376 480.856C468.376 480.856 479.974 456.897 480.249 456.265C467.604 450.575 394.662 422.275 381.288 412.642C379.327 392.023 375.884 361.824 370.85 338.739C363.582 305.435 305.918 314.453 305.918 314.453C305.918 314.453 318.315 437.636 337.307 449.901C338.168 450.456 339.097 451.008 340.084 451.546C356.639 460.586 390.134 467.114 419.953 471.415C450.891 475.879 468.376 480.856 468.376 480.856Z" fill="#404396"/>
<path d="M467.345 450.861L456.894 478.058L468.376 480.856L480.249 456.266L467.345 450.861Z" stroke="#19274A" stroke-miterlimit="10"/>
<path d="M419.926 471.598C380.717 465.937 353.835 459.253 340.028 451.726L340.205 451.4C357.355 460.75 393.052 467.347 419.977 471.232L419.926 471.598Z" fill="#19274A"/>
<path d="M502.494 495.905L496.675 529.538C494.451 529.173 492.321 528.371 490.408 527.179C488.496 525.987 486.838 524.427 485.531 522.591C484.225 520.755 483.295 518.678 482.795 516.48C482.295 514.282 482.236 512.007 482.62 509.786C483.004 507.565 483.824 505.443 485.034 503.541C486.243 501.638 487.816 499.995 489.664 498.704C491.512 497.413 493.597 496.502 495.799 496.021C498.001 495.541 500.276 495.501 502.494 495.905Z" fill="white"/>
<path d="M502.494 495.904L496.675 529.537C499.476 530.027 502.354 529.805 505.047 528.893L510.163 499.323L515.656 467.573L507.635 466.186L502.494 495.904Z" fill="#19274A"/>
<path d="M481.524 458.477L507.634 466.187L502.493 495.905C498.033 495.133 493.449 496.165 489.75 498.773C486.05 501.381 483.538 505.352 482.767 509.813C482.767 509.813 483.315 503.597 484.348 497.201C484.43 496.699 484.513 496.191 484.604 495.691C484.604 495.691 491.729 494.627 492.448 492.377C492.911 490.704 493.178 488.984 493.246 487.25C493.313 485.779 493.226 484.412 492.893 483.624C492.042 481.613 485.651 482.105 485.651 482.105C483.41 480.428 477.676 480.725 477.676 480.725L481.524 458.477Z" fill="#9395D1"/>
<path d="M492.892 483.624C493.225 484.413 493.312 485.779 493.246 487.25C491.231 488.671 487.501 488.693 485.905 488.631C486.355 486.147 486.649 484.209 486.505 483.381C486.396 482.861 486.09 482.404 485.65 482.106C485.65 482.106 492.04 481.615 492.892 483.624Z" fill="#404396"/>
<path d="M493.246 487.25C493.178 488.984 492.91 490.705 492.448 492.377C491.729 494.627 484.604 495.691 484.604 495.691C485.038 493.183 485.529 490.716 485.903 488.631C487.501 488.693 491.231 488.67 493.246 487.25Z" fill="#404396"/>
<path d="M372.522 347.345C350.054 342.128 338.077 330.392 331.985 321.464C325.382 311.786 324.078 303.221 324.067 303.136L324.434 303.082C324.446 303.167 325.742 311.662 332.304 321.271C338.359 330.139 350.266 341.798 372.607 346.984L372.522 347.345Z" fill="#19274A"/>
<path d="M352.055 304.576L344.803 288.859C344.803 288.859 331.911 292.252 330.011 294.15C328.112 296.049 317.798 303.6 319.698 304.574C321.598 305.549 328.654 302.613 328.654 302.613C328.654 302.613 313.048 315.318 316.306 317.761C319.563 320.203 325.669 313.961 325.669 313.961C325.669 313.961 315.627 323.686 320.105 325.135C324.583 326.585 330.961 318.034 330.961 318.034C330.961 318.034 326.308 323.137 330.147 325.3C332.181 326.449 352.055 304.576 352.055 304.576Z" fill="#FD8680"/>
<path d="M376.92 231.021L340.117 288.858L357.795 310.904L404.462 249.487L376.92 231.021Z" fill="#9395D1"/>
<path d="M360.562 219.66L359.539 221.297L387.843 238.988L388.866 237.351L360.562 219.66Z" fill="#19274A"/>
<path d="M366.782 203.123L219.839 174.543L196.785 293.074L343.727 321.654L366.782 203.123Z" fill="#E57D00"/>
<path d="M293.315 188.588L219.867 174.334L196.871 292.826L270.319 307.081L293.315 188.588Z" fill="#FFAA40"/>
<path d="M222.227 253.243L205.195 249.938L203.22 260.115L220.251 263.42L222.227 253.243Z" fill="#E57D00"/>
<path d="M363.377 220.29L346.346 216.984L344.794 224.981L361.825 228.286L363.377 220.29Z" fill="#FFAA40"/>
<path d="M59.4508 245.424C59.4508 245.424 154.239 264.94 181.653 243.566C209.067 222.191 133.331 190.131 65.9543 221.727C-1.42271 253.324 59.4508 245.424 59.4508 245.424Z" fill="white"/>
<path d="M555.721 174.533C555.721 174.533 476.266 160.129 434.912 181.968C393.559 203.806 475.773 218.176 553.384 214.476C630.994 210.776 555.721 174.533 555.721 174.533Z" fill="white"/>
<path d="M88.1905 572.594C88.0625 584.077 87.4032 594.821 86.5962 603.903H53.5951C38.541 586.33 25.2284 565.067 15.6546 544.228C11.7807 535.875 8.46088 527.277 5.71678 518.488C2.94178 509.465 1.13173 500.895 0.472393 493.171C-0.442617 482.525 0.836478 473.492 4.79178 467.097C10.0362 458.645 19.974 454.798 35.7563 457.927C38.1888 458.403 40.583 459.057 42.9195 459.885V459.894C46.171 461.019 49.2891 462.497 52.2176 464.303C56.9516 467.244 61.1837 470.924 64.7529 475.205C70.1349 481.57 74.3562 489.255 77.6329 497.786C78.1347 499.055 78.6069 500.344 79.0497 501.653C81.7259 509.406 83.6839 517.76 85.091 526.349C85.219 527.126 85.3467 527.903 85.4647 528.691C85.6127 529.656 85.7504 530.629 85.878 531.604C87.2023 541.569 87.9547 551.602 88.1313 561.653C88.2101 565.352 88.2297 569.012 88.1905 572.594Z" fill="#404396"/>
<path d="M74.8371 603.953C74.2166 601.74 73.5547 599.439 72.8673 597.044L72.673 596.368C70.0941 587.469 67.4693 578.705 64.8712 570.317C62.7326 563.415 60.5514 556.597 58.3884 550.051C55.2641 540.624 52.3389 532.197 49.4462 524.287C45.5128 513.52 41.6507 503.752 37.9677 495.252C30.5389 478.089 23.6062 465.541 17.3613 457.956L17.6473 457.721C23.9137 465.333 30.8649 477.912 38.3074 495.105C41.993 503.613 45.8576 513.389 49.7937 524.161C52.6878 532.074 55.6141 540.505 58.7395 549.936C60.9033 556.485 63.0852 563.304 65.2249 570.208C67.8234 578.598 70.4489 587.365 73.0282 596.266L73.2228 596.942C73.9107 599.337 74.5726 601.641 75.1934 603.853L74.8371 603.953Z" fill="black"/>
<path d="M82.3341 631.499C82.3341 631.499 82.2749 631.273 82.1572 630.831L82.5146 630.736C82.6327 631.18 82.6922 631.406 82.6922 631.406L82.3341 631.499Z" fill="black"/>
<path d="M38.2789 495.54L38.0214 495.323L4.23633 466.876L4.47498 466.593L38.0025 494.824L42.7363 459.859L43.103 459.909L38.2789 495.54Z" fill="black"/>
<path d="M49.7294 524.513L0.369141 493.331L0.567092 493.018L49.5185 523.942L64.8242 474.365L65.1776 474.474L49.7294 524.513Z" fill="black"/>
<path d="M58.6588 550.262L58.4668 550.148L5.61523 518.637L5.80468 518.32L58.4645 549.716L77.4648 497.703L77.8122 497.83L58.6588 550.262Z" fill="black"/>
<path d="M65.1284 570.515L64.966 570.429L15.5654 544.389L15.7379 544.061L64.9767 570.016L85.717 531.514L86.043 531.689L65.1284 570.515Z" fill="black"/>
<path d="M72.9128 596.552L33.1914 576.558L33.3579 576.227L72.7892 596.075L88.0184 573.645L88.3244 573.852L72.9128 596.552Z" fill="black"/>
<path d="M92.0674 568.481C92.0674 568.481 6.46494 427.778 83.2122 397.276C159.959 366.774 110.762 549.787 92.0674 568.481Z" fill="#404396"/>
<path d="M91.3923 568.016C91.3349 567.637 85.655 529.619 83.1257 489.397C81.6398 465.769 81.5158 446.014 82.7557 430.678C84.3097 411.471 88.0308 399.165 93.8135 394.102L94.0574 394.38C88.3494 399.378 84.6712 411.6 83.1246 430.707C81.8847 446.025 82.0087 465.762 83.4946 489.371C86.0232 529.578 91.7012 567.581 91.7582 567.959L91.3923 568.016Z" fill="black"/>
<path d="M83.7604 422.657L73.6982 402.098L74.0305 401.935L83.8607 422.02L108.836 396.119L109.102 396.376L83.7604 422.657Z" fill="black"/>
<path d="M82.0918 448.936L81.9797 448.754L60.8379 414.276L61.1535 414.082L82.1832 448.377L121.888 415.196L122.125 415.48L82.0918 448.936Z" fill="black"/>
<path d="M82.654 478.188L51.7656 439.175L52.0557 438.945L82.7139 477.667L124.726 444.299L124.956 444.589L82.654 478.188Z" fill="black"/>
<path d="M84.5982 507.289L84.4879 507.182L54.4502 478.061L54.7077 477.795L84.6348 506.809L120.921 481.017L121.136 481.319L84.5982 507.289Z" fill="black"/>
<path d="M86.5719 528.113L86.4609 528L61.2783 502.388L61.5418 502.129L86.6137 527.627L115.513 506.899L115.729 507.2L86.5719 528.113Z" fill="black"/>
<path d="M163.688 541.59C161.501 549.415 158.593 557.02 155 564.308C147.855 578.977 138.322 592.357 126.79 603.901H77.8986C77.5249 600.95 77.1805 597.83 76.9052 594.583V594.573C76.8068 593.324 76.7083 592.045 76.6195 590.756C75.7341 577.345 76.0586 562.104 79.2961 547.503V547.493C79.4338 546.883 79.5714 546.283 79.719 545.673C80.1423 543.911 80.6044 542.16 81.125 540.428C82.2876 536.416 83.7377 532.494 85.464 528.69C85.6609 528.246 85.8673 527.795 86.0838 527.352C86.2022 527.086 86.3298 526.83 86.4578 526.564C87.3236 524.794 88.2486 523.052 89.2621 521.35C94.327 512.603 101.34 505.141 109.757 499.546C112.529 497.701 115.433 496.063 118.446 494.646C120.753 493.556 123.114 492.584 125.52 491.733C130.696 489.893 135.36 488.84 139.521 488.506C145.799 487.975 150.935 489.057 154.999 491.408C160.322 494.488 163.805 499.762 165.606 506.512C168.126 515.958 167.348 528.287 163.688 541.59Z" fill="#7B7DB5"/>
<path d="M92.7333 603.965L92.3848 603.841C93.4356 600.896 94.5877 597.757 95.8102 594.51C98.1412 588.347 100.56 582.32 103.006 576.595C106.32 568.805 109.864 561.115 113.538 553.739C120.514 539.776 127.974 526.957 135.71 515.638C141.522 507.086 147.922 498.949 154.863 491.285L155.136 491.535C148.207 499.186 141.818 507.31 136.015 515.847C128.289 527.152 120.838 539.956 113.87 553.904C110.199 561.273 106.658 568.957 103.346 576.74C100.904 582.46 98.4835 588.483 96.1565 594.641C94.9348 597.885 93.7834 601.022 92.7333 603.965Z" fill="black"/>
<path d="M135.631 516.103L139.339 488.479L139.706 488.528L136.075 515.576L165.551 506.335L165.661 506.688L135.631 516.103Z" fill="black"/>
<path d="M113.538 554.057L109.571 499.556L109.94 499.529L113.875 553.594L163.646 541.414L163.734 541.773L113.538 554.057Z" fill="black"/>
<path d="M95.8589 594.782L79.126 547.553L79.4749 547.43L96.1031 594.364L141.551 586.413L141.615 586.777L95.8589 594.782Z" fill="black"/>
<path d="M80.6406 603.973L76.7197 594.621V594.583L76.9173 594.578L77.0753 594.512L80.9818 603.83L80.6406 603.973Z" fill="black"/>
<path d="M103.04 576.885L102.996 576.708L89.082 521.399L89.4406 521.309L103.31 576.44L154.961 564.132L155.047 564.492L103.04 576.885Z" fill="black"/>
<path d="M443.979 347.467C452.076 347.467 458.64 340.903 458.64 332.807C458.64 324.71 452.076 318.146 443.979 318.146C435.883 318.146 429.319 324.71 429.319 332.807C429.319 340.903 435.883 347.467 443.979 347.467Z" fill="#ECA7A9"/>
<path d="M236.043 21.8345C241.922 21.8345 246.687 17.0691 246.687 11.1907C246.687 5.31226 241.922 0.546875 236.043 0.546875C230.165 0.546875 225.399 5.31226 225.399 11.1907C225.399 17.0691 230.165 21.8345 236.043 21.8345Z" fill="#404396"/>
<path d="M516.082 281.915C531.736 281.915 544.425 269.225 544.425 253.572C544.425 237.918 531.736 225.229 516.082 225.229C500.429 225.229 487.739 237.918 487.739 253.572C487.739 269.225 500.429 281.915 516.082 281.915Z" fill="#DD5557"/>
<path d="M135.32 226.063C145.035 226.063 152.912 218.187 152.912 208.471C152.912 198.755 145.035 190.879 135.32 190.879C125.604 190.879 117.728 198.755 117.728 208.471C117.728 218.187 125.604 226.063 135.32 226.063Z" fill="#ECA7A9"/>
<path d="M57.1705 264.012L80.9071 275.665C82.3269 276.362 83.5441 277.412 84.4424 278.714C85.3407 280.015 85.89 281.526 86.0378 283.101C86.1856 284.675 85.9269 286.262 85.2865 287.708C84.6461 289.154 83.6454 290.412 82.38 291.361L63.3924 305.604C62.1325 306.549 60.6522 307.156 59.0918 307.369C57.5314 307.581 55.9426 307.391 54.4761 306.818C53.0095 306.244 51.7139 305.305 50.712 304.09C49.7101 302.875 49.0351 301.424 48.7511 299.875L44.004 273.981C42.6346 266.51 50.3554 260.666 57.1705 264.012Z" fill="#404396"/>
<path d="M418.74 22.9683L434.27 30.5903C435.198 31.0464 435.995 31.7331 436.583 32.5848C437.17 33.4366 437.53 34.4248 437.626 35.4552C437.723 36.4855 437.554 37.5234 437.135 38.4696C436.716 39.4158 436.061 40.2388 435.233 40.8597L422.809 50.1777C421.985 50.7959 421.016 51.1933 419.995 51.3322C418.975 51.4712 417.935 51.347 416.976 50.9715C416.016 50.5961 415.168 49.9818 414.513 49.1868C413.857 48.3919 413.416 47.4427 413.23 46.4293L410.124 29.4874C409.923 28.3855 410.031 27.2493 410.437 26.2054C410.843 25.1615 411.531 24.2508 412.424 23.5749C413.318 22.899 414.381 22.4844 415.496 22.3773C416.611 22.2702 417.734 22.4748 418.74 22.9683Z" fill="#DD5557"/>
<path d="M194.965 327.594H132.415C130.975 327.594 129.809 328.761 129.809 330.2C129.809 331.64 130.975 332.806 132.415 332.806H194.965C196.404 332.806 197.571 331.64 197.571 330.2C197.571 328.761 196.404 327.594 194.965 327.594Z" fill="#DD5557"/>
<path d="M573.671 94.0098H498.09C496.291 94.0098 494.832 95.4684 494.832 97.2676C494.832 99.0669 496.291 100.525 498.09 100.525H573.671C575.47 100.525 576.929 99.0669 576.929 97.2676C576.929 95.4684 575.47 94.0098 573.671 94.0098Z" fill="#404396"/>
<path d="M89.9753 103.131H56.4659C54.6666 103.131 53.208 104.589 53.208 106.389C53.208 108.188 54.6666 109.647 56.4659 109.647H89.9753C91.7746 109.647 93.2332 108.188 93.2332 106.389C93.2332 104.589 91.7746 103.131 89.9753 103.131Z" fill="#DD5557"/>
</svg>
