<svg width="64" height="64" viewBox="0 0 64 64" fill="none" xmlns="http://www.w3.org/2000/svg">
<circle cx="25" cy="32" r="25" fill="#F0F8FF"/>
<path d="M44 62H20C18.4087 62 16.8826 61.3679 15.7574 60.2426C14.6321 59.1174 14 57.5913 14 56V8C14 6.4087 14.6321 4.88258 15.7574 3.75736C16.8826 2.63214 18.4087 2 20 2H44C45.5913 2 47.1174 2.63214 48.2426 3.75736C49.3679 4.88258 50 6.4087 50 8V18C50 18.5304 49.7893 19.0391 49.4142 19.4142C49.0391 19.7893 48.5304 20 48 20C47.4696 20 46.9609 19.7893 46.5858 19.4142C46.2107 19.0391 46 18.5304 46 18V8C46 7.46957 45.7893 6.96086 45.4142 6.58579C45.0391 6.21071 44.5304 6 44 6H20C19.4696 6 18.9609 6.21071 18.5858 6.58579C18.2107 6.96086 18 7.46957 18 8V56C18 56.5304 18.2107 57.0391 18.5858 57.4142C18.9609 57.7893 19.4696 58 20 58H44C44.5304 58 45.0391 57.7893 45.4142 57.4142C45.7893 57.0391 46 56.5304 46 56V37.88C46 37.3496 46.2107 36.8409 46.5858 36.4658C46.9609 36.0907 47.4696 35.88 48 35.88C48.5304 35.88 49.0391 36.0907 49.4142 36.4658C49.7893 36.8409 50 37.3496 50 37.88V56C50 57.5913 49.3679 59.1174 48.2426 60.2426C47.1174 61.3679 45.5913 62 44 62Z" fill="#8DCBFD"/>
<path d="M44 56H20C18.4087 56 16.8826 55.3679 15.7574 54.2426C14.6321 53.1174 14 51.5913 14 50C14 49.4696 14.2107 48.9609 14.5858 48.5858C14.9609 48.2107 15.4696 48 16 48C16.5304 48 17.0391 48.2107 17.4142 48.5858C17.7893 48.9609 18 49.4696 18 50C18 50.5304 18.2107 51.0391 18.5858 51.4142C18.9609 51.7893 19.4696 52 20 52H44C44.5304 52 45.0391 51.7893 45.4142 51.4142C45.7893 51.0391 46 50.5304 46 50C46 49.4696 46.2107 48.9609 46.5858 48.5858C46.9609 48.2107 47.4696 48 48 48C48.5304 48 49.0391 48.2107 49.4142 48.5858C49.7893 48.9609 50 49.4696 50 50C50 51.5913 49.3679 53.1174 48.2426 54.2426C47.1174 55.3679 45.5913 56 44 56Z" fill="#8DCBFD"/>
<path d="M32 12H26C25.4696 12 24.9609 11.7893 24.5858 11.4142C24.2107 11.0391 24 10.5304 24 10C24 9.46957 24.2107 8.96086 24.5858 8.58579C24.9609 8.21071 25.4696 8 26 8H32C32.5304 8 33.0391 8.21071 33.4142 8.58579C33.7893 8.96086 34 9.46957 34 10C34 10.5304 33.7893 11.0391 33.4142 11.4142C33.0391 11.7893 32.5304 12 32 12Z" fill="#8DCBFD"/>
<path d="M40 12H38C37.4696 12 36.9609 11.7893 36.5858 11.4142C36.2107 11.0391 36 10.5304 36 10C36 9.46957 36.2107 8.96086 36.5858 8.58579C36.9609 8.21071 37.4696 8 38 8H40C40.5304 8 41.0391 8.21071 41.4142 8.58579C41.7893 8.96086 42 9.46957 42 10C42 10.5304 41.7893 11.0391 41.4142 11.4142C41.0391 11.7893 40.5304 12 40 12Z" fill="#8DCBFD"/>
<path d="M38 46C37.6051 45.998 37.2197 45.8792 36.8923 45.6586C36.5648 45.4379 36.31 45.1252 36.16 44.76C36.0068 44.3958 35.965 43.9944 36.0397 43.6064C36.1145 43.2184 36.3025 42.8612 36.58 42.58C37.6391 41.4985 38.2955 40.0868 38.44 38.58C33.26 36.58 30 32.58 30 28C30 21.38 37.18 16 46 16C54.82 16 62 21.38 62 28C62 33.72 56.6 38.62 49.26 39.74C46.7 46 38.2 46 38 46ZM46 20C39.5 20 34 23.66 34 28C34 31.1 36.78 34 41.08 35.28C41.482 35.4017 41.8355 35.6468 42.0904 35.9806C42.3453 36.3145 42.4886 36.7201 42.5 37.14C42.5536 38.5246 42.3848 39.9089 42 41.24C42.9143 40.9843 43.7492 40.502 44.4275 39.8378C45.1058 39.1735 45.6054 38.3488 45.88 37.44C45.9783 37.0348 46.2008 36.6704 46.5164 36.3979C46.8319 36.1254 47.2248 35.9583 47.64 35.92C53.64 35.38 58.06 31.92 58.06 27.92C58 23.66 52.5 20 46 20Z" fill="#8DCBFD"/>
</svg>
