<svg width="64" height="64" viewBox="0 0 64 64" fill="none" xmlns="http://www.w3.org/2000/svg">
<circle cx="39" cy="32" r="25" fill="#FFF3EE"/>
<path d="M44 62H20C18.4087 62 16.8826 61.3679 15.7574 60.2426C14.6321 59.1174 14 57.5913 14 56V8C14 6.4087 14.6321 4.88258 15.7574 3.75736C16.8826 2.63214 18.4087 2 20 2H44C45.5913 2 47.1174 2.63214 48.2426 3.75736C49.3679 4.88258 50 6.4087 50 8V56C50 57.5913 49.3679 59.1174 48.2426 60.2426C47.1174 61.3679 45.5913 62 44 62ZM20 6C19.4696 6 18.9609 6.21071 18.5858 6.58579C18.2107 6.96086 18 7.46957 18 8V56C18 56.5304 18.2107 57.0391 18.5858 57.4142C18.9609 57.7893 19.4696 58 20 58H44C44.5304 58 45.0391 57.7893 45.4142 57.4142C45.7893 57.0391 46 56.5304 46 56V8C46 7.46957 45.7893 6.96086 45.4142 6.58579C45.0391 6.21071 44.5304 6 44 6H20Z" fill="#FE917B"/>
<path d="M44 56H20C18.4087 56 16.8826 55.3679 15.7574 54.2426C14.6321 53.1174 14 51.5913 14 50C14 49.4696 14.2107 48.9609 14.5858 48.5858C14.9609 48.2107 15.4696 48 16 48C16.5304 48 17.0391 48.2107 17.4142 48.5858C17.7893 48.9609 18 49.4696 18 50C18 50.5304 18.2107 51.0391 18.5858 51.4142C18.9609 51.7893 19.4696 52 20 52H44C44.5304 52 45.0391 51.7893 45.4142 51.4142C45.7893 51.0391 46 50.5304 46 50C46 49.4696 46.2107 48.9609 46.5858 48.5858C46.9609 48.2107 47.4696 48 48 48C48.5304 48 49.0391 48.2107 49.4142 48.5858C49.7893 48.9609 50 49.4696 50 50C50 51.5913 49.3679 53.1174 48.2426 54.2426C47.1174 55.3679 45.5913 56 44 56Z" fill="#FE917B"/>
<path d="M32 12H26C25.4696 12 24.9609 11.7893 24.5858 11.4142C24.2107 11.0391 24 10.5304 24 10C24 9.46957 24.2107 8.96086 24.5858 8.58579C24.9609 8.21071 25.4696 8 26 8H32C32.5304 8 33.0391 8.21071 33.4142 8.58579C33.7893 8.96086 34 9.46957 34 10C34 10.5304 33.7893 11.0391 33.4142 11.4142C33.0391 11.7893 32.5304 12 32 12Z" fill="#FE917B"/>
<path d="M40 12H38C37.4696 12 36.9609 11.7893 36.5858 11.4142C36.2107 11.0391 36 10.5304 36 10C36 9.46957 36.2107 8.96086 36.5858 8.58579C36.9609 8.21071 37.4696 8 38 8H40C40.5304 8 41.0391 8.21071 41.4142 8.58579C41.7893 8.96086 42 9.46957 42 10C42 10.5304 41.7893 11.0391 41.4142 11.4142C41.0391 11.7893 40.5304 12 40 12Z" fill="#FE917B"/>
<path d="M32.0078 42C31.4774 42 30.9687 41.7893 30.5936 41.4142C30.2185 41.0391 30.0078 40.5304 30.0078 40V24C30.0078 23.4696 30.2185 22.9609 30.5936 22.5858C30.9687 22.2107 31.4774 22 32.0078 22C32.5382 22 33.047 22.2107 33.422 22.5858C33.7971 22.9609 34.0078 23.4696 34.0078 24V40C34.0078 40.5304 33.7971 41.0391 33.422 41.4142C33.047 41.7893 32.5382 42 32.0078 42Z" fill="#FE917B"/>
<path d="M32.0082 42.0004C31.745 42.0019 31.484 41.9514 31.2404 41.8519C30.9967 41.7524 30.7751 41.6057 30.5882 41.4204L26.5882 37.4204C26.4017 37.2339 26.2538 37.0125 26.1529 36.7689C26.0519 36.5252 26 36.2641 26 36.0004C26 35.7367 26.0519 35.4755 26.1529 35.2319C26.2538 34.9882 26.4017 34.7668 26.5882 34.5804C26.7747 34.3939 26.996 34.246 27.2397 34.145C27.4833 34.0441 27.7445 33.9922 28.0082 33.9922C28.2719 33.9922 28.533 34.0441 28.7767 34.145C29.0203 34.246 29.2417 34.3939 29.4282 34.5804L32.0082 37.1804L34.5882 34.5804C34.9648 34.2038 35.4756 33.9922 36.0082 33.9922C36.5408 33.9922 37.0516 34.2038 37.4282 34.5804C37.8048 34.957 38.0164 35.4678 38.0164 36.0004C38.0164 36.533 37.8048 37.0438 37.4282 37.4204L33.4282 41.4204C33.2413 41.6057 33.0197 41.7524 32.776 41.8519C32.5323 41.9514 32.2714 42.0019 32.0082 42.0004Z" fill="#FE917B"/>
</svg>
