<svg width="30" height="30" viewBox="0 0 30 30" fill="none" xmlns="http://www.w3.org/2000/svg">
<g id="Linkedin">
<circle id="Oval 1 Copy 5" cx="15" cy="15" r="15" fill="white"/>
<path id="Fill 182" fill-rule="evenodd" clip-rule="evenodd" d="M9.15697 11.1282C10.1896 11.1282 11.0268 10.3648 11.0268 9.42196C11.0268 8.47832 10.1896 7.71387 9.15697 7.71387C8.1233 7.71387 7.28613 8.47832 7.28613 9.42196C7.28613 10.3648 8.1233 11.1282 9.15697 11.1282Z" fill="#282B36"/>
<path id="Fill 183" fill-rule="evenodd" clip-rule="evenodd" d="M7.71387 22.1049H11.0689V12.4287H7.71387V22.1049Z" fill="#282B36"/>
<path id="Fill 184" fill-rule="evenodd" clip-rule="evenodd" d="M15.7782 16.723C15.7782 15.6134 16.3032 14.5283 17.5585 14.5283C18.8139 14.5283 19.1225 15.6134 19.1225 16.6965V21.9811H22.4625V16.4805C22.4625 12.6588 20.2035 12 18.8139 12C17.4254 12 16.6595 12.4697 15.7782 13.6077V12.305H12.4287V21.9811H15.7782V16.723Z" fill="#282B36"/>
</g>
</svg>
