<svg width="595" height="316" viewBox="0 0 595 316" fill="none" xmlns="http://www.w3.org/2000/svg">
<path d="M26.5821 305.495H572.413C572.413 305.495 640.544 147.462 469.897 140.382C299.251 133.303 398.806 41.0719 291.896 8.69177C184.985 -23.6884 153.24 51.351 141.829 76.8832C123.194 118.583 -39.1335 118.092 26.5821 305.495Z" fill="#EEEEF5"/>
<path d="M55.8813 293.409C55.8391 297.204 55.6213 300.752 55.3548 303.753H44.456C39.4099 297.776 35.1951 291.145 31.9262 284.038C30.647 281.278 29.5508 278.437 28.6445 275.533C27.7753 272.814 27.1944 270.01 26.9115 267.169C26.6093 263.652 27.0318 260.669 28.3381 258.555C30.0712 255.763 33.3519 254.492 38.5639 255.526C39.3672 255.684 40.158 255.9 40.9297 256.173V256.176C42.0034 256.548 43.0331 257.036 44.0002 257.632C45.5636 258.604 46.9612 259.82 48.14 261.234C49.9644 263.466 51.4021 265.987 52.3935 268.694C52.5594 269.113 52.7154 269.539 52.8615 269.97C53.7549 272.628 54.4221 275.358 54.8561 278.129C54.8983 278.386 54.9405 278.642 54.9794 278.903C55.0281 279.221 55.0736 279.543 55.1161 279.865C55.5534 283.157 55.8017 286.471 55.86 289.792C55.8878 291.016 55.8943 292.226 55.8813 293.409Z" fill="#404396"/>
<path d="M51.3729 303.796C51.1673 303.064 50.9478 302.301 50.7189 301.509L50.6565 301.291C49.8063 298.355 48.9394 295.46 48.0807 292.687C47.3764 290.413 46.6564 288.161 45.9402 285.994C44.9089 282.881 43.9433 280.097 42.9881 277.485C41.6896 273.931 40.415 270.705 39.1996 267.898C36.7504 262.238 34.4657 258.1 32.4092 255.601L32.6619 255.394C34.7377 257.916 37.0384 262.08 39.4997 267.768C40.7178 270.582 41.9947 273.812 43.2952 277.373C44.2516 279.99 45.2182 282.775 46.2506 285.891C46.9673 288.06 47.6893 290.314 48.393 292.59C49.2524 295.365 50.1192 298.262 50.9707 301.2L51.0332 301.418C51.2621 302.212 51.4805 302.975 51.6872 303.708L51.3729 303.796Z" fill="black"/>
<path d="M53.8485 312.896L53.79 312.675L54.1075 312.591L54.1662 312.813L53.8485 312.896Z" fill="black"/>
<path d="M39.4748 268.152L28.0898 258.562L28.3008 258.312L39.2306 267.518L40.7688 256.152L41.0931 256.196L39.4748 268.152Z" fill="black"/>
<path d="M43.2384 277.683L26.8242 267.31L26.9988 267.034L43.052 277.178L48.0675 260.928L48.3798 261.024L43.2384 277.683Z" fill="black"/>
<path d="M46.1833 286.183L28.5596 275.672L28.7267 275.391L46.0113 285.699L52.2438 268.633L52.5512 268.745L46.1833 286.183Z" fill="black"/>
<path d="M48.3073 292.861L31.8496 284.182L32.002 283.893L48.1732 292.42L54.9744 279.79L55.2625 279.945L48.3073 292.861Z" fill="black"/>
<path d="M50.8701 301.456L37.6719 294.81L37.8187 294.518L50.7608 301.034L55.7397 293.698L56.0101 293.882L50.8701 301.456Z" fill="black"/>
<path d="M57.1615 292.05C57.1615 292.05 28.8914 245.568 54.2372 235.491C79.5829 225.413 63.3355 285.874 57.1615 292.05Z" fill="#7B7DB5"/>
<path d="M56.8378 291.912C56.8188 291.787 54.9412 279.224 54.1067 265.931C52.9825 248.043 54.1816 237.422 57.6709 234.365L57.8864 234.611C49.7296 241.756 57.085 291.365 57.1605 291.864L56.8378 291.912Z" fill="black"/>
<path d="M54.3903 244.052L51.0029 237.128L51.2966 236.985L54.4789 243.489L62.6253 235.037L62.8604 235.264L54.3903 244.052Z" fill="black"/>
<path d="M53.8415 252.712L46.7607 241.16L47.0393 240.989L53.9223 252.218L66.9439 241.332L67.1535 241.583L53.8415 252.712Z" fill="black"/>
<path d="M54.0362 262.365L43.7715 249.396L44.0278 249.193L54.0892 261.905L67.8831 250.945L68.0865 251.201L54.0362 262.365Z" fill="black"/>
<path d="M54.6848 271.968L44.667 262.252L44.8949 262.018L54.7169 271.544L66.6313 263.072L66.8206 263.339L54.6848 271.968Z" fill="black"/>
<path d="M55.3348 278.848L46.9199 270.287L47.1531 270.058L55.3718 278.419L64.8442 271.622L65.0348 271.888L55.3348 278.848Z" fill="black"/>
<path d="M80.8139 283.166C80.0918 285.752 79.1313 288.265 77.9449 290.672C75.5851 295.518 72.4368 299.939 68.6288 303.752H52.4821C52.3588 302.777 52.245 301.747 52.1551 300.674V300.671C52.1224 300.258 52.0897 299.836 52.0609 299.41C51.7666 294.979 51.8755 289.944 52.9438 285.12V285.117C52.9893 284.916 53.0347 284.717 53.0834 284.515C53.2231 283.934 53.3758 283.355 53.5481 282.782C53.9318 281.456 54.4107 280.16 54.981 278.904C55.0464 278.757 55.1144 278.61 55.1857 278.462C55.2249 278.374 55.2671 278.289 55.3093 278.2C55.5951 277.615 55.9005 277.04 56.2353 276.477C57.9081 273.587 60.2243 271.123 63.0041 269.274C63.9195 268.665 64.8786 268.124 65.8735 267.655C66.6356 267.295 67.4154 266.974 68.2099 266.693C69.6985 266.139 71.2527 265.78 72.8336 265.627C74.9068 265.451 76.6032 265.809 77.9452 266.586C79.7031 267.603 80.8535 269.346 81.448 271.575C82.2795 274.699 82.0228 278.772 80.8139 283.166Z" fill="#7B7DB5"/>
<path d="M57.4779 303.807L57.1699 303.697C57.5162 302.726 57.8972 301.688 58.302 300.613C59.0701 298.579 59.8716 296.587 60.6799 294.69C61.776 292.114 62.947 289.571 64.1608 287.134C66.3168 282.774 68.7654 278.565 71.4897 274.535C73.4121 271.706 75.5287 269.014 77.8243 266.479L78.0656 266.699C75.7804 269.224 73.6733 271.904 71.7595 274.72C69.0436 278.737 66.6027 282.934 64.4534 287.281C63.2435 289.712 62.0742 292.249 60.9804 294.82C60.1724 296.712 59.3742 298.7 58.6077 300.729C58.2035 301.802 57.8233 302.837 57.4779 303.807Z" fill="black"/>
<path d="M71.4258 274.893L72.6716 265.607L72.996 265.651L71.8182 274.428L81.3988 271.422L81.4966 271.735L71.4258 274.893Z" fill="black"/>
<path d="M64.1586 287.413L62.8398 269.287L63.1659 269.264L64.4565 287.003L80.7759 283.008L80.8534 283.326L64.1586 287.413Z" fill="black"/>
<path d="M58.346 300.855L52.791 285.171L53.099 285.062L58.5618 300.485L73.4856 297.873L73.5418 298.196L58.346 300.855Z" fill="black"/>
<path d="M53.2934 303.816L51.9902 300.674L52.1574 300.673L52.3046 300.611L53.595 303.69L53.2934 303.816Z" fill="black"/>
<path d="M60.7107 294.95L56.0762 276.522L56.3934 276.441L60.9487 294.557L77.9083 290.514L77.9839 290.833L60.7107 294.95Z" fill="black"/>
<path d="M513.6 290.493C513.546 295.334 513.269 299.864 512.928 303.692H499.02C492.58 296.066 487.202 287.603 483.03 278.534C481.397 275.012 479.998 271.387 478.842 267.682C477.733 264.212 476.992 260.634 476.632 257.009C476.246 252.52 476.785 248.713 478.452 246.016C480.662 242.453 484.85 240.831 491.502 242.15C492.527 242.351 493.536 242.627 494.521 242.975V242.98C495.891 243.454 497.205 244.077 498.439 244.838C500.434 246.078 502.218 247.63 503.722 249.434C505.991 252.116 507.769 255.358 509.15 258.953C509.362 259.488 509.561 260.032 509.747 260.583C510.888 263.976 511.739 267.459 512.293 270.995C512.347 271.322 512.401 271.649 512.451 271.982C512.513 272.389 512.571 272.8 512.625 273.21C513.183 277.412 513.5 281.641 513.574 285.879C513.609 287.44 513.617 288.983 513.6 290.493Z" fill="#404396"/>
<path d="M507.89 303.737C507.626 302.793 507.346 301.811 507.05 300.791L506.978 300.539C505.89 296.784 504.784 293.089 503.691 289.558C502.789 286.647 501.87 283.773 500.959 281.016C499.645 277.049 498.412 273.497 497.191 270.156C495.534 265.618 493.907 261.501 492.355 257.919C489.228 250.69 486.311 245.408 483.684 242.216L483.936 242.008C486.582 245.224 489.516 250.533 492.656 257.789C494.209 261.376 495.839 265.499 497.498 270.043C498.721 273.387 499.954 276.942 501.269 280.912C502.181 283.671 503.101 286.547 504.003 289.461C505.097 292.993 506.204 296.69 507.293 300.448L507.365 300.699C507.658 301.721 507.938 302.704 508.205 303.647L507.89 303.737Z" fill="black"/>
<path d="M511.293 314.982L510.976 315.066L511.051 315.349L511.368 315.265L511.293 314.982Z" fill="black"/>
<path d="M492.63 258.173L478.164 245.988L478.375 245.738L492.386 257.54L494.36 242.953L494.684 242.997L492.63 258.173Z" fill="black"/>
<path d="M497.44 270.355L476.543 257.149L476.718 256.873L497.253 269.85L503.671 249.056L503.983 249.152L497.44 270.355Z" fill="black"/>
<path d="M501.2 281.205L478.756 267.819L478.923 267.538L501.028 280.721L509 258.891L509.307 259.003L501.2 281.205Z" fill="black"/>
<path d="M503.916 289.732L482.953 278.678L483.105 278.389L503.782 289.292L512.483 273.134L512.771 273.289L503.916 289.732Z" fill="black"/>
<path d="M507.19 300.704L490.383 292.24L490.53 291.948L507.081 300.282L513.457 290.888L513.727 291.072L507.19 300.704Z" fill="black"/>
<path d="M515.234 288.759C515.234 288.759 479.157 229.44 511.502 216.581C543.846 203.722 523.113 280.878 515.234 288.759Z" fill="#404396"/>
<path d="M514.865 288.576C514.841 288.416 512.445 272.384 511.38 255.424C509.946 232.611 511.471 219.07 515.914 215.179L516.13 215.425C505.702 224.559 515.092 287.889 515.188 288.528L514.865 288.576Z" fill="black"/>
<path d="M511.71 227.428L507.416 218.651L507.71 218.507L511.799 226.865L522.24 216.033L522.475 216.26L511.71 227.428Z" fill="black"/>
<path d="M511.009 238.489L510.91 238.328L502 223.792L502.279 223.621L511.09 237.995L527.747 224.07L527.957 224.321L511.009 238.489Z" fill="black"/>
<path d="M511.253 250.813L498.182 234.299L498.438 234.096L511.306 250.353L528.944 236.339L529.148 236.595L511.253 250.813Z" fill="black"/>
<path d="M512.078 263.073L511.981 262.978L499.321 250.701L499.549 250.466L512.11 262.648L527.345 251.816L527.535 252.083L512.078 263.073Z" fill="black"/>
<path d="M512.908 271.852L502.197 260.955L502.43 260.726L512.946 271.423L525.065 262.727L525.256 262.993L512.908 271.852Z" fill="black"/>
<path d="M545.418 277.422C544.496 280.721 543.27 283.928 541.755 287C538.744 293.185 534.727 298.826 529.867 303.692H509.262C509.104 302.449 508.959 301.133 508.843 299.764V299.76C508.802 299.233 508.76 298.694 508.723 298.151C508.35 292.496 508.486 286.071 509.851 279.915V279.911C509.909 279.654 509.967 279.401 510.029 279.144C510.207 278.401 510.402 277.663 510.622 276.933C511.112 275.241 511.723 273.587 512.45 271.984C512.534 271.797 512.62 271.606 512.712 271.42C512.762 271.308 512.816 271.2 512.87 271.088C513.235 270.341 513.624 269.607 514.051 268.889C516.186 265.202 519.142 262.057 522.689 259.698C523.858 258.92 525.082 258.229 526.352 257.632C527.324 257.172 528.319 256.763 529.333 256.404C531.233 255.697 533.217 255.239 535.234 255.043C537.88 254.819 540.044 255.276 541.757 256.267C544 257.566 545.468 259.789 546.227 262.634C547.288 266.616 546.961 271.815 545.418 277.422Z" fill="#7B7DB5"/>
<path d="M515.595 303.747L515.287 303.637C515.731 302.392 516.217 301.068 516.731 299.702C517.712 297.106 518.732 294.566 519.765 292.145C521.162 288.86 522.656 285.617 524.206 282.505C526.957 276.942 530.08 271.572 533.556 266.432C536.008 262.823 538.708 259.389 541.635 256.155L541.877 256.376C538.959 259.599 536.269 263.021 533.825 266.617C530.358 271.745 527.242 277.102 524.499 282.651C522.952 285.757 521.461 288.994 520.066 292.274C519.035 294.689 518.016 297.226 517.037 299.817C516.524 301.182 516.039 302.504 515.595 303.747Z" fill="black"/>
<path d="M533.49 266.799L535.071 255.02L535.395 255.063L533.882 266.334L546.177 262.477L546.274 262.79L533.49 266.799Z" fill="black"/>
<path d="M524.204 282.786L522.525 259.707L522.852 259.684L524.502 282.376L545.38 277.265L545.458 277.583L524.204 282.786Z" fill="black"/>
<path d="M516.775 299.944L516.729 299.814L509.699 279.965L510.008 279.855L516.991 299.575L536.074 296.235L536.13 296.557L516.775 299.944Z" fill="black"/>
<path d="M510.34 303.756L508.681 299.764L508.849 299.762L508.995 299.701L510.642 303.629L510.34 303.756Z" fill="black"/>
<path d="M519.796 292.405L519.757 292.248L513.893 268.93L514.21 268.851L520.034 292.012L541.721 286.842L541.796 287.16L519.796 292.405Z" fill="black"/>
<path d="M146.013 289.02C145.959 293.861 145.681 298.391 145.341 302.22H131.433C124.994 294.593 119.615 286.13 115.443 277.061C113.81 273.54 112.411 269.915 111.255 266.209C110.146 262.739 109.405 259.161 109.045 255.536C108.659 251.048 109.198 247.24 110.865 244.544C113.075 240.98 117.264 239.358 123.915 240.677C124.94 240.878 125.949 241.154 126.934 241.503V241.507C128.304 241.981 129.618 242.604 130.853 243.365C132.848 244.605 134.631 246.157 136.135 247.961C138.404 250.644 140.183 253.885 141.564 257.48C141.775 258.015 141.974 258.559 142.161 259.11C143.301 262.503 144.153 265.986 144.707 269.523C144.761 269.85 144.815 270.177 144.864 270.51C144.926 270.916 144.985 271.328 145.039 271.737C145.596 275.939 145.913 280.168 145.987 284.406C146.022 285.968 146.029 287.511 146.013 289.02Z" fill="#7B7DB5"/>
<path d="M140.303 302.264C140.042 301.331 139.762 300.359 139.472 299.35L139.391 299.067C138.307 295.323 137.2 291.629 136.104 288.086C135.204 285.179 134.284 282.305 133.372 279.543C132.055 275.568 130.822 272.016 129.604 268.683C127.946 264.144 126.319 260.027 124.769 256.446C121.641 249.217 118.723 243.935 116.097 240.743L116.349 240.535C118.995 243.751 121.929 249.061 125.069 256.316C126.622 259.902 128.251 264.025 129.912 268.571C131.131 271.906 132.364 275.461 133.682 279.439C134.595 282.204 135.515 285.079 136.416 287.988C137.514 291.533 138.62 295.229 139.705 298.975L139.787 299.258C140.077 300.268 140.354 301.24 140.618 302.174L140.303 302.264Z" fill="black"/>
<path d="M143.463 313.878L143.388 313.596L143.705 313.512L143.78 313.795L143.463 313.878Z" fill="black"/>
<path d="M125.043 256.7L110.577 244.515L110.788 244.265L124.799 256.067L126.773 241.48L127.097 241.524L125.043 256.7Z" fill="black"/>
<path d="M129.853 268.882L108.956 255.676L109.131 255.4L129.667 268.378L136.084 247.583L136.397 247.68L129.853 268.882Z" fill="black"/>
<path d="M133.613 279.732L111.169 266.346L111.336 266.065L133.441 279.249L141.413 257.418L141.72 257.53L133.613 279.732Z" fill="black"/>
<path d="M136.329 288.259L115.366 277.205L115.519 276.916L136.195 287.819L144.896 271.661L145.184 271.816L136.329 288.259Z" fill="black"/>
<path d="M139.603 299.231L122.796 290.768L122.943 290.476L139.494 298.81L145.87 289.415L146.14 289.599L139.603 299.231Z" fill="black"/>
<path d="M147.647 287.286C147.647 287.286 111.57 227.967 143.915 215.108C176.26 202.249 155.526 279.405 147.647 287.286Z" fill="#7B7DB5"/>
<path d="M147.278 287.104C147.254 286.944 144.858 270.912 143.793 253.951C142.359 231.138 143.885 217.597 148.327 213.706L148.543 213.952C138.115 223.086 147.505 286.416 147.601 287.055L147.278 287.104Z" fill="black"/>
<path d="M144.124 225.955L139.829 217.178L140.123 217.035L144.212 225.392L154.653 214.561L154.889 214.788L144.124 225.955Z" fill="black"/>
<path d="M143.421 237.016L134.412 222.319L134.691 222.148L143.502 236.523L160.159 222.597L160.369 222.848L143.421 237.016Z" fill="black"/>
<path d="M143.665 249.341L130.595 232.826L130.851 232.623L143.718 248.881L161.357 234.866L161.561 235.122L143.665 249.341Z" fill="black"/>
<path d="M144.491 261.6L131.734 249.228L131.962 248.993L144.523 261.176L159.759 250.343L159.948 250.61L144.491 261.6Z" fill="black"/>
<path d="M145.322 270.381L134.61 259.484L134.843 259.254L145.359 269.952L157.478 261.256L157.669 261.521L145.322 270.381Z" fill="black"/>
<path d="M177.831 275.949C176.91 279.249 175.684 282.455 174.169 285.527C171.158 291.712 167.14 297.353 162.281 302.22H141.676C141.518 300.977 141.373 299.661 141.257 298.292V298.287C141.216 297.761 141.174 297.221 141.137 296.678C140.764 291.024 140.901 284.599 142.265 278.443V278.438C142.323 278.181 142.381 277.928 142.443 277.671C142.621 276.928 142.816 276.19 143.036 275.46C143.526 273.769 144.137 272.115 144.865 270.511C144.948 270.324 145.035 270.134 145.126 269.947C145.176 269.835 145.23 269.727 145.284 269.615C145.649 268.869 146.039 268.134 146.466 267.417C148.6 263.729 151.556 260.584 155.103 258.225C156.272 257.447 157.496 256.757 158.766 256.159C159.738 255.7 160.733 255.29 161.747 254.931C163.647 254.224 165.63 253.766 167.648 253.571C170.294 253.347 172.458 253.803 174.171 254.794C176.414 256.093 177.882 258.316 178.641 261.162C179.702 265.143 179.374 270.342 177.831 275.949Z" fill="#7B7DB5"/>
<path d="M148.009 302.275L147.701 302.165C148.145 300.92 148.63 299.596 149.145 298.23C150.126 295.631 151.147 293.089 152.179 290.674C153.577 287.387 155.071 284.144 156.62 281.033C159.371 275.47 162.495 270.101 165.97 264.96C168.422 261.351 171.121 257.918 174.049 254.684L174.291 254.904C171.373 258.127 168.683 261.549 166.24 265.145C162.773 270.273 159.657 275.63 156.913 281.179C155.367 284.284 153.875 287.521 152.48 290.802C151.45 293.213 150.431 295.751 149.451 298.345C148.937 299.71 148.452 301.032 148.009 302.275Z" fill="black"/>
<path d="M165.904 265.326L167.485 253.547L167.809 253.59L166.297 264.861L178.591 261.005L178.689 261.317L165.904 265.326Z" fill="black"/>
<path d="M156.618 281.313L154.938 258.235L155.264 258.211L156.915 280.903L177.793 275.792L177.871 276.11L156.618 281.313Z" fill="black"/>
<path d="M149.189 298.472L142.113 278.492L142.421 278.383L149.405 298.102L168.487 294.762L168.544 295.084L149.189 298.472Z" fill="black"/>
<path d="M142.754 302.283L141.094 298.292L141.263 298.29L141.408 298.229L143.055 302.157L142.754 302.283Z" fill="black"/>
<path d="M152.209 290.932L146.306 267.458L146.623 267.378L152.447 290.539L174.134 285.37L174.209 285.688L152.209 290.932Z" fill="black"/>
<path d="M102.285 305.535C126.498 305.535 146.128 301.607 146.128 296.763C146.128 291.918 126.498 287.991 102.285 287.991C78.0707 287.991 58.4414 291.918 58.4414 296.763C58.4414 301.607 78.0707 305.535 102.285 305.535Z" fill="#404396"/>
<path d="M432.102 240.104H221.897C220.099 240.104 218.643 241.562 218.643 243.36V276.137C218.643 277.934 220.099 279.392 221.897 279.392H432.102C433.899 279.392 435.356 277.934 435.356 276.137V243.36C435.356 241.562 433.899 240.104 432.102 240.104Z" fill="#47103D"/>
<path d="M380.901 155.377H209.692C207.841 155.377 206.34 156.878 206.34 158.73V272.251C206.34 274.103 207.841 275.605 209.692 275.605H380.901C382.752 275.605 384.253 274.103 384.253 272.251V158.73C384.253 156.878 382.752 155.377 380.901 155.377Z" fill="#9395D1"/>
<path d="M375.263 165.316H214.384V169.831H375.263V165.316Z" fill="#404396"/>
<path d="M216.93 259.037H202.374C201.167 259.037 200.188 260.016 200.188 261.224V275.784C200.188 276.992 201.167 277.97 202.374 277.97H216.93C218.137 277.97 219.115 276.992 219.115 275.784V261.224C219.115 260.016 218.137 259.037 216.93 259.037Z" fill="#47103D"/>
<path d="M387.743 190.022L388.466 271.019C388.478 272.369 389.019 273.66 389.974 274.615C390.928 275.569 392.22 276.11 393.569 276.121L497.831 276.983C498.511 276.989 499.184 276.86 499.813 276.604C500.443 276.348 501.015 275.969 501.497 275.491C501.98 275.012 502.362 274.443 502.624 273.816C502.885 273.188 503.019 272.516 503.019 271.836V264.187C503.019 263.511 502.886 262.842 502.628 262.217C502.369 261.593 501.99 261.025 501.512 260.547C501.034 260.069 500.467 259.69 499.843 259.431C499.219 259.173 498.55 259.04 497.874 259.04H440.727C439.815 259.039 438.919 258.797 438.132 258.337C437.344 257.876 436.693 257.215 436.245 256.42L397.371 187.45C394.76 182.815 387.696 184.704 387.743 190.022Z" fill="#47103D"/>
<path d="M387.092 169.576H434.408L459.013 212.177L496.867 240.577V259.037L387.564 256.197C387.564 256.197 387.092 187.563 387.092 169.576Z" fill="#404396"/>
<path d="M499.029 241.997H496.599C495.963 241.997 495.448 242.512 495.448 243.148V252.207C495.448 252.842 495.963 253.357 496.599 253.357H499.029C499.665 253.357 500.18 252.842 500.18 252.207V243.148C500.18 242.512 499.665 241.997 499.029 241.997Z" fill="#FF9E1D"/>
<path d="M444.346 218.925H397.028V180.111H429.204L447.185 212.298L444.346 218.925Z" fill="#D7E3FF"/>
<path d="M387.565 243.89L495.648 243.417L497.815 265.19L498.361 275.569L388.039 275.604L387.565 243.89Z" fill="#9395D1"/>
<path d="M254.13 305.425C269.809 305.425 282.52 292.709 282.52 277.024C282.52 261.339 269.809 248.624 254.13 248.624C238.45 248.624 225.739 261.339 225.739 277.024C225.739 292.709 238.45 305.425 254.13 305.425Z" fill="#404396"/>
<path d="M254.13 292.17C262.492 292.17 269.271 285.389 269.271 277.024C269.271 268.658 262.492 261.877 254.13 261.877C245.767 261.877 238.988 268.658 238.988 277.024C238.988 285.389 245.767 292.17 254.13 292.17Z" fill="#9395D1"/>
<path d="M454.756 304.478C470.435 304.478 483.146 291.763 483.146 276.078C483.146 260.393 470.435 247.678 454.756 247.678C439.076 247.678 426.365 260.393 426.365 276.078C426.365 291.763 439.076 304.478 454.756 304.478Z" fill="#404396"/>
<path d="M454.756 291.225C463.118 291.225 469.897 284.444 469.897 276.078C469.897 267.713 463.118 260.932 454.756 260.932C446.393 260.932 439.614 267.713 439.614 276.078C439.614 284.444 446.393 291.225 454.756 291.225Z" fill="#9395D1"/>
<path d="M447.477 204.131H446.893C444.441 204.131 442.453 206.119 442.453 208.572V219.57C442.453 222.022 444.441 224.011 446.893 224.011H447.477C449.929 224.011 451.917 222.022 451.917 219.57V208.572C451.917 206.119 449.929 204.131 447.477 204.131Z" fill="#47103D"/>
<path d="M399.786 271.646H335.052V304.14H399.786V271.646Z" fill="#E57D00"/>
<path d="M367.419 271.646H335.052V304.14H367.419V271.646Z" fill="#FFAA40"/>
<path d="M342.557 292.378H335.052V295.169H342.557V292.378Z" fill="#E57D00"/>
<path d="M399.787 276.43H392.281V278.623H399.787V276.43Z" fill="#FF9E1D"/>
<path d="M337.504 261.833H291.896V304.139H337.504V261.833Z" fill="#E57D00"/>
<path d="M314.7 261.833H291.896V304.139H314.7V261.833Z" fill="#FFAA40"/>
<path d="M297.183 288.826H291.896V292.46H297.183V288.826Z" fill="#E57D00"/>
<path d="M337.505 268.062H332.217V270.917H337.505V268.062Z" fill="#FF9E1D"/>
<path d="M380.66 243.428H337.504V271.761H380.66V243.428Z" fill="#E57D00"/>
<path d="M359.082 243.428H337.504V271.761H359.082V243.428Z" fill="#FFAA40"/>
<path d="M342.508 261.505H337.504V263.939H342.508V261.505Z" fill="#E57D00"/>
<path d="M380.66 247.599H375.656V249.511H380.66V247.599Z" fill="#FF9E1D"/>
<path d="M337.995 241.72H307.182V261.949H337.995V241.72Z" fill="#E57D00"/>
<path d="M322.588 241.72H307.182V261.949H322.588V241.72Z" fill="#FFAA40"/>
<path d="M310.754 254.627H307.182V256.365H310.754V254.627Z" fill="#E57D00"/>
<path d="M337.994 244.698H334.422V246.064H337.994V244.698Z" fill="#FF9E1D"/>
<path d="M123.486 53.999C123.486 53.999 132.259 85.2889 157.781 73.1437C183.302 60.9984 190.918 77.9064 211.498 69.64C232.078 61.3736 215.666 28.2886 185.903 34.9011C156.139 41.5136 171.824 6.90055 124.851 24.587C77.878 42.2734 123.486 53.999 123.486 53.999Z" fill="white"/>
<path d="M355.016 36.7181C355.016 36.7181 308.344 22.0132 284.825 34.5124C261.305 47.0115 323.044 88.185 393.235 51.0553C463.427 13.9255 355.016 36.7181 355.016 36.7181Z" fill="white"/>
<path d="M583.486 187.958C583.486 187.958 584.221 157.079 556.292 165.9C528.363 174.722 508.885 162.96 494.92 179.135C480.956 195.31 535.345 219.574 580.179 204.133C625.013 188.693 583.486 187.958 583.486 187.958Z" fill="white"/>
<path d="M12.2764 177.816C12.2764 177.816 54.9055 206.491 86.5099 188.477C118.114 170.464 132.814 185.536 143.473 170.096C154.131 154.656 121.79 135.907 89.4509 146.201C57.1114 156.494 56.3757 95.1015 12.2764 132.966C-31.8228 170.831 12.2764 177.816 12.2764 177.816Z" fill="white"/>
<path d="M455.729 145.669C455.54 145.691 455.349 145.657 455.18 145.573C455.01 145.488 454.868 145.356 454.772 145.193C454.001 143.887 453.217 142.576 452.443 141.296C452.375 141.185 452.329 141.063 452.309 140.934C452.288 140.806 452.293 140.675 452.324 140.549C452.354 140.423 452.409 140.304 452.486 140.2C452.562 140.095 452.659 140.007 452.77 139.939C452.881 139.872 453.004 139.828 453.132 139.809C453.261 139.789 453.391 139.796 453.517 139.828C453.643 139.859 453.761 139.916 453.865 139.993C453.969 140.071 454.056 140.169 454.122 140.28C454.9 141.566 455.687 142.883 456.461 144.194C456.544 144.335 456.591 144.494 456.597 144.658C456.603 144.821 456.568 144.984 456.495 145.13C456.422 145.277 456.314 145.403 456.18 145.497C456.046 145.591 455.891 145.651 455.729 145.669ZM138.859 180.464C138.61 180.493 138.359 180.424 138.159 180.273C137.958 180.123 137.823 179.9 137.781 179.653C137.773 179.605 137.58 178.454 137.35 176.447C137.225 175.356 137.113 174.217 137.018 173.061C136.996 172.802 137.079 172.544 137.247 172.346C137.415 172.147 137.655 172.023 137.915 172.002C138.174 171.98 138.431 172.063 138.63 172.231C138.829 172.4 138.952 172.64 138.974 172.9C139.068 174.035 139.178 175.154 139.3 176.224C139.523 178.174 139.715 179.314 139.717 179.325C139.76 179.582 139.7 179.845 139.549 180.057C139.398 180.269 139.17 180.413 138.913 180.456C138.895 180.459 138.877 180.462 138.859 180.464ZM449.967 136.192C449.783 136.213 449.597 136.182 449.43 136.102C449.263 136.021 449.122 135.895 449.024 135.738C447.864 133.887 446.683 132.037 445.515 130.239C445.443 130.131 445.394 130.01 445.369 129.883C445.345 129.756 445.346 129.625 445.372 129.498C445.399 129.371 445.45 129.251 445.523 129.144C445.596 129.037 445.689 128.946 445.798 128.875C445.906 128.805 446.028 128.756 446.155 128.733C446.282 128.709 446.413 128.711 446.54 128.739C446.666 128.766 446.786 128.818 446.892 128.892C446.999 128.966 447.089 129.06 447.159 129.169C448.334 130.977 449.521 132.836 450.686 134.696C450.774 134.837 450.825 134.997 450.834 135.162C450.844 135.328 450.811 135.493 450.739 135.642C450.668 135.791 450.559 135.92 450.425 136.016C450.29 136.112 450.133 136.173 449.969 136.192L449.967 136.192ZM137.751 167.406C137.723 167.41 137.694 167.413 137.665 167.413C137.536 167.416 137.408 167.394 137.288 167.348C137.167 167.302 137.057 167.233 136.964 167.144C136.87 167.055 136.795 166.949 136.743 166.831C136.69 166.714 136.661 166.587 136.658 166.458C136.598 164.235 136.602 162.011 136.67 159.848C136.671 159.717 136.699 159.589 136.751 159.469C136.803 159.349 136.878 159.241 136.972 159.151C137.066 159.061 137.177 158.991 137.299 158.944C137.421 158.897 137.551 158.875 137.681 158.879C137.811 158.883 137.939 158.913 138.058 158.967C138.176 159.022 138.283 159.099 138.371 159.195C138.46 159.291 138.528 159.403 138.573 159.526C138.617 159.648 138.637 159.778 138.63 159.909C138.564 162.034 138.561 164.22 138.619 166.405C138.626 166.651 138.54 166.889 138.38 167.075C138.219 167.26 137.995 167.378 137.751 167.406ZM442.838 125.228C442.66 125.248 442.479 125.22 442.316 125.144C442.153 125.069 442.013 124.951 441.913 124.802C440.69 122.992 439.444 121.186 438.212 119.433C438.062 119.22 438.003 118.957 438.048 118.7C438.092 118.444 438.237 118.216 438.45 118.066C438.662 117.916 438.926 117.857 439.182 117.902C439.439 117.946 439.667 118.091 439.816 118.304C441.056 120.066 442.308 121.883 443.538 123.703C443.633 123.843 443.69 124.005 443.703 124.173C443.717 124.341 443.687 124.509 443.617 124.663C443.547 124.816 443.438 124.948 443.302 125.047C443.165 125.146 443.005 125.208 442.838 125.228ZM138.173 154.315C138.028 154.332 137.881 154.316 137.742 154.268C137.604 154.221 137.478 154.143 137.374 154.041C137.269 153.938 137.189 153.814 137.139 153.676C137.089 153.539 137.07 153.392 137.084 153.246C137.301 150.997 137.594 148.788 137.96 146.681C138.004 146.425 138.149 146.197 138.361 146.047C138.574 145.897 138.838 145.838 139.094 145.882C139.35 145.927 139.579 146.071 139.728 146.284C139.878 146.497 139.938 146.76 139.893 147.017C139.536 149.075 139.249 151.234 139.037 153.434C139.016 153.658 138.918 153.867 138.761 154.027C138.604 154.188 138.396 154.289 138.173 154.315ZM435.312 114.532C435.14 114.552 434.966 114.526 434.807 114.457C434.649 114.388 434.511 114.277 434.409 114.138C433.113 112.372 431.798 110.617 430.498 108.922C430.42 108.82 430.362 108.704 430.329 108.579C430.295 108.455 430.287 108.325 430.304 108.197C430.321 108.069 430.362 107.946 430.427 107.834C430.491 107.723 430.577 107.625 430.679 107.547C430.781 107.468 430.898 107.411 431.022 107.377C431.147 107.344 431.277 107.335 431.404 107.352C431.532 107.369 431.655 107.411 431.767 107.475C431.878 107.54 431.976 107.626 432.055 107.728C433.362 109.433 434.686 111.199 435.991 112.976C436.092 113.115 436.156 113.277 436.175 113.448C436.194 113.619 436.168 113.792 436.099 113.949C436.031 114.107 435.922 114.243 435.784 114.345C435.646 114.448 435.483 114.513 435.312 114.532ZM140.437 141.431C140.278 141.449 140.118 141.428 139.969 141.37C139.82 141.312 139.688 141.218 139.583 141.097C139.479 140.976 139.406 140.831 139.37 140.675C139.334 140.519 139.337 140.357 139.379 140.203C139.95 138.058 140.641 135.947 141.447 133.88C141.493 133.759 141.563 133.648 141.652 133.554C141.742 133.46 141.848 133.385 141.967 133.333C142.085 133.28 142.213 133.252 142.343 133.249C142.472 133.246 142.601 133.269 142.722 133.317C142.842 133.364 142.952 133.435 143.045 133.525C143.138 133.615 143.213 133.723 143.264 133.842C143.315 133.961 143.343 134.088 143.344 134.218C143.346 134.348 143.322 134.476 143.273 134.596C142.495 136.596 141.828 138.638 141.275 140.712C141.223 140.902 141.116 141.072 140.967 141.201C140.817 141.329 140.633 141.409 140.437 141.431ZM427.352 104.157C427.187 104.176 427.021 104.152 426.867 104.089C426.714 104.026 426.579 103.925 426.475 103.796C425.109 102.096 423.717 100.404 422.335 98.7661C422.167 98.567 422.085 98.3094 422.107 98.0499C422.129 97.7904 422.253 97.5504 422.452 97.3825C422.651 97.2146 422.909 97.1327 423.168 97.1548C423.428 97.1769 423.668 97.3011 423.835 97.5002C425.227 99.1497 426.63 100.854 428.006 102.567C428.116 102.704 428.187 102.867 428.212 103.041C428.237 103.215 428.215 103.392 428.148 103.554C428.082 103.716 427.973 103.858 427.833 103.964C427.693 104.07 427.528 104.136 427.353 104.156L427.352 104.157ZM145.255 129.297C145.076 129.318 144.895 129.288 144.731 129.212C144.567 129.136 144.428 129.016 144.328 128.866C144.228 128.715 144.172 128.54 144.165 128.36C144.158 128.18 144.2 128.001 144.289 127.843C145.377 125.892 146.625 124.034 148.02 122.288C148.101 122.187 148.2 122.103 148.313 122.04C148.426 121.977 148.551 121.938 148.679 121.923C148.808 121.909 148.938 121.92 149.062 121.956C149.186 121.992 149.302 122.053 149.403 122.134C149.504 122.215 149.588 122.315 149.65 122.428C149.711 122.542 149.75 122.667 149.764 122.795C149.778 122.924 149.766 123.054 149.729 123.178C149.692 123.302 149.631 123.418 149.55 123.518C148.223 125.179 147.035 126.947 146 128.803C145.924 128.939 145.817 129.054 145.687 129.14C145.558 129.226 145.41 129.28 145.255 129.297ZM418.917 94.1637C418.76 94.1819 418.602 94.162 418.455 94.1058C418.308 94.0495 418.176 93.9586 418.072 93.8407C416.619 92.2064 415.141 90.5874 413.681 89.0327C413.592 88.9387 413.524 88.8284 413.478 88.7078C413.432 88.5873 413.411 88.4589 413.415 88.3301C413.419 88.2013 413.448 88.0746 413.501 87.9571C413.554 87.8397 413.63 87.7338 413.724 87.6455C413.818 87.5573 413.928 87.4885 414.049 87.4429C414.169 87.3973 414.297 87.3759 414.426 87.38C414.555 87.384 414.682 87.4134 414.799 87.4664C414.916 87.5194 415.022 87.595 415.11 87.689C416.584 89.2581 418.073 90.8888 419.538 92.5366C419.657 92.6709 419.737 92.8353 419.77 93.012C419.802 93.1887 419.785 93.3709 419.721 93.5388C419.657 93.7066 419.548 93.8537 419.407 93.9639C419.265 94.0741 419.095 94.1432 418.917 94.1637ZM153.438 119.197C153.229 119.221 153.018 119.177 152.836 119.072C152.653 118.967 152.51 118.806 152.426 118.612C152.342 118.419 152.323 118.204 152.37 117.999C152.418 117.794 152.531 117.61 152.691 117.473C154.401 116.023 156.251 114.747 158.214 113.662C158.442 113.537 158.71 113.506 158.96 113.579C159.21 113.651 159.421 113.819 159.547 114.047C159.673 114.275 159.703 114.544 159.631 114.794C159.559 115.044 159.39 115.255 159.162 115.381C157.314 116.402 155.571 117.604 153.961 118.97C153.813 119.096 153.631 119.175 153.438 119.197ZM192.549 112.235L191.955 112.124C191.42 112.024 190.891 111.93 190.367 111.842C190.238 111.822 190.115 111.776 190.004 111.709C189.894 111.641 189.797 111.552 189.721 111.446C189.645 111.341 189.591 111.221 189.561 111.095C189.532 110.968 189.528 110.837 189.549 110.709C189.571 110.581 189.618 110.458 189.687 110.349C189.756 110.239 189.847 110.144 189.953 110.069C190.059 109.994 190.179 109.941 190.306 109.913C190.433 109.886 190.564 109.883 190.692 109.906C191.035 109.964 191.38 110.024 191.727 110.087C192.204 109.481 193.137 108.317 194.506 106.695C194.59 106.597 194.691 106.516 194.806 106.457C194.92 106.397 195.045 106.361 195.174 106.351C195.302 106.34 195.431 106.354 195.554 106.394C195.677 106.433 195.791 106.496 195.889 106.579C195.988 106.662 196.069 106.764 196.128 106.879C196.187 106.993 196.223 107.118 196.234 107.247C196.245 107.375 196.23 107.504 196.191 107.627C196.152 107.75 196.089 107.864 196.006 107.962C194.003 110.332 192.927 111.741 192.916 111.755L192.549 112.235ZM184.156 111.028C184.092 111.036 184.027 111.036 183.963 111.031C181.825 110.852 179.678 110.785 177.533 110.831C177.403 110.836 177.273 110.815 177.152 110.769C177.03 110.723 176.919 110.654 176.824 110.565C176.729 110.476 176.653 110.369 176.6 110.25C176.547 110.132 176.519 110.003 176.516 109.874C176.512 109.744 176.535 109.614 176.582 109.493C176.63 109.372 176.701 109.262 176.791 109.168C176.881 109.075 176.989 109 177.109 108.949C177.228 108.897 177.356 108.87 177.486 108.869C179.701 108.821 181.916 108.89 184.124 109.075C184.366 109.095 184.593 109.204 184.76 109.382C184.926 109.56 185.021 109.793 185.025 110.037C185.029 110.281 184.942 110.517 184.781 110.7C184.621 110.884 184.398 111 184.156 111.028ZM164.774 112.906C164.533 112.934 164.29 112.87 164.092 112.729C163.894 112.587 163.756 112.378 163.705 112.14C163.653 111.903 163.691 111.654 163.812 111.443C163.932 111.232 164.127 111.074 164.358 110.998C166.477 110.309 168.647 109.792 170.849 109.451C171.106 109.41 171.369 109.474 171.579 109.627C171.789 109.78 171.93 110.011 171.971 110.268C172.011 110.526 171.948 110.789 171.795 110.999C171.641 111.21 171.411 111.351 171.153 111.391C169.056 111.716 166.988 112.209 164.97 112.865C164.906 112.885 164.841 112.899 164.774 112.906ZM409.964 84.638C409.817 84.655 409.668 84.6384 409.528 84.5896C409.388 84.5407 409.261 84.4608 409.156 84.3558C407.616 82.8083 406.047 81.281 404.494 79.8168C404.398 79.729 404.321 79.623 404.266 79.5049C404.211 79.3868 404.181 79.259 404.176 79.129C404.171 78.9989 404.192 78.8692 404.238 78.7474C404.283 78.6255 404.353 78.514 404.442 78.4193C404.531 78.3246 404.639 78.2486 404.757 78.1958C404.876 78.1429 405.005 78.1142 405.135 78.1114C405.265 78.1086 405.394 78.1316 405.515 78.1793C405.636 78.2269 405.747 78.2982 405.84 78.389C407.408 79.8669 408.991 81.4086 410.547 82.9705C410.677 83.1011 410.767 83.2658 410.808 83.4456C410.849 83.6254 410.839 83.8131 410.778 83.9871C410.717 84.1611 410.608 84.3145 410.464 84.4296C410.32 84.5448 410.147 84.617 409.964 84.638ZM199.687 103.371C199.489 103.394 199.289 103.355 199.113 103.261C198.937 103.167 198.794 103.022 198.703 102.845C198.612 102.667 198.577 102.466 198.602 102.269C198.628 102.071 198.714 101.886 198.847 101.738C200.292 100.139 201.801 98.5187 203.332 96.9201C203.421 96.8271 203.527 96.7525 203.645 96.7007C203.763 96.6488 203.89 96.6207 204.019 96.618C204.148 96.6153 204.276 96.638 204.396 96.6847C204.516 96.7315 204.626 96.8015 204.719 96.8907C204.812 96.9799 204.886 97.0865 204.938 97.2045C204.99 97.3225 205.018 97.4496 205.021 97.5785C205.024 97.7073 205.001 97.8354 204.954 97.9555C204.907 98.0756 204.837 98.1853 204.748 98.2784C203.23 99.863 201.734 101.47 200.302 103.054C200.142 103.231 199.923 103.343 199.686 103.37L199.687 103.371ZM400.45 75.6724C400.314 75.6881 400.175 75.675 400.044 75.6339C399.913 75.5928 399.792 75.5246 399.689 75.4338C398.053 73.9908 396.386 72.5739 394.736 71.2219C394.535 71.0569 394.408 70.8188 394.382 70.5598C394.356 70.3007 394.434 70.0421 394.599 69.8408C394.764 69.6395 395.002 69.5119 395.261 69.4862C395.52 69.4604 395.778 69.5387 395.98 69.7036C397.648 71.0707 399.332 72.503 400.986 73.9611C401.129 74.0866 401.232 74.2507 401.283 74.4335C401.334 74.6163 401.331 74.81 401.274 74.9911C401.217 75.1723 401.109 75.333 400.963 75.4539C400.817 75.5748 400.639 75.6507 400.45 75.6724ZM208.749 93.9043C208.546 93.9278 208.341 93.8873 208.162 93.7886C207.984 93.6898 207.84 93.5378 207.752 93.3536C207.664 93.1694 207.635 92.9622 207.67 92.761C207.705 92.5598 207.802 92.3745 207.947 92.231C209.5 90.6968 211.095 89.1629 212.688 87.6714C212.782 87.5819 212.893 87.5118 213.014 87.4652C213.135 87.4187 213.264 87.3966 213.394 87.4002C213.523 87.4039 213.651 87.4332 213.769 87.4865C213.887 87.5398 213.994 87.6161 214.082 87.7108C214.171 87.8055 214.24 87.9168 214.285 88.0384C214.33 88.1599 214.351 88.2893 214.346 88.4189C214.341 88.5485 214.311 88.6758 214.256 88.7935C214.202 88.9112 214.124 89.017 214.029 89.1046C212.449 90.5838 210.866 92.1053 209.326 93.6269C209.17 93.7816 208.967 93.8793 208.749 93.9043ZM390.335 67.3903C390.084 67.4193 389.832 67.3504 389.631 67.1979C387.893 65.8824 386.124 64.5981 384.374 63.383C384.265 63.3106 384.172 63.2174 384.1 63.1087C384.028 63 383.979 62.8781 383.954 62.75C383.93 62.6219 383.931 62.4903 383.958 62.3627C383.985 62.2352 384.038 62.1143 384.112 62.0072C384.186 61.9001 384.281 61.8088 384.391 61.7388C384.501 61.6688 384.624 61.6213 384.752 61.5993C384.881 61.5773 385.012 61.5811 385.139 61.6106C385.266 61.64 385.386 61.6945 385.492 61.7707C387.264 63.001 389.055 64.3003 390.815 65.6328C390.972 65.7511 391.089 65.9136 391.152 66.0992C391.215 66.2849 391.221 66.4852 391.17 66.6744C391.118 66.8635 391.011 67.0328 390.862 67.1604C390.713 67.2881 390.529 67.3681 390.335 67.3903ZM218.314 84.9535C218.107 84.9775 217.897 84.9347 217.716 84.8313C217.534 84.728 217.391 84.5694 217.305 84.3787C217.22 84.188 217.198 83.9751 217.242 83.771C217.287 83.5669 217.395 83.3822 217.551 83.2438C219.192 81.7896 220.869 80.3459 222.534 78.9529C222.734 78.791 222.99 78.7143 223.246 78.7393C223.502 78.7643 223.738 78.889 223.903 79.0865C224.069 79.284 224.15 79.5385 224.129 79.7951C224.108 80.0517 223.987 80.2899 223.793 80.4583C222.141 81.8403 220.479 83.2721 218.852 84.7138C218.701 84.847 218.514 84.9306 218.314 84.9535ZM379.594 59.9417C379.372 59.9673 379.148 59.9161 378.96 59.7967C377.121 58.6359 375.248 57.5133 373.393 56.4603C373.28 56.3974 373.18 56.3126 373.1 56.2109C373.019 56.1092 372.96 55.9926 372.925 55.8677C372.89 55.7429 372.88 55.6124 372.896 55.4836C372.911 55.3549 372.952 55.2306 373.016 55.1179C373.08 55.0051 373.166 54.9061 373.268 54.8267C373.371 54.7473 373.488 54.6889 373.613 54.6551C373.738 54.6212 373.869 54.6125 373.997 54.6294C374.126 54.6463 374.25 54.6885 374.362 54.7536C376.243 55.8223 378.142 56.9597 380.007 58.137C380.178 58.2454 380.312 58.4046 380.39 58.5924C380.467 58.7802 380.484 58.9874 380.439 59.1855C380.394 59.3836 380.288 59.5627 380.137 59.6981C379.986 59.8336 379.796 59.9187 379.594 59.9417ZM228.357 76.5498C228.145 76.5743 227.931 76.529 227.747 76.4206C227.563 76.3122 227.419 76.1467 227.338 75.9493C227.256 75.7518 227.241 75.5331 227.295 75.3265C227.349 75.1198 227.469 74.9365 227.637 74.8042C229.365 73.4415 231.122 72.0969 232.861 70.8087C232.965 70.732 233.082 70.6764 233.207 70.6452C233.333 70.614 233.462 70.6077 233.59 70.6268C233.717 70.6458 233.84 70.6897 233.95 70.7561C234.061 70.8225 234.157 70.91 234.234 71.0137C234.311 71.1173 234.366 71.2351 234.397 71.3602C234.429 71.4853 234.435 71.6153 234.416 71.7428C234.397 71.8703 234.353 71.9929 234.287 72.1034C234.22 72.2139 234.133 72.3103 234.029 72.387C232.306 73.6636 230.565 74.9955 228.852 76.3466C228.709 76.459 228.538 76.5294 228.357 76.5498ZM238.877 68.7575C238.66 68.7827 238.44 68.7345 238.253 68.6206C238.067 68.5067 237.923 68.3336 237.846 68.1288C237.769 67.924 237.762 67.6993 237.828 67.4904C237.893 67.2815 238.026 67.1003 238.206 66.9758C240.016 65.7213 241.855 64.4904 243.673 63.3176C243.781 63.2456 243.903 63.1959 244.03 63.1713C244.158 63.1467 244.289 63.1478 244.416 63.1743C244.543 63.2009 244.664 63.2525 244.771 63.3261C244.878 63.3997 244.97 63.4939 245.04 63.6031C245.111 63.7124 245.159 63.8345 245.181 63.9625C245.204 64.0905 245.202 64.2217 245.173 64.3486C245.145 64.4755 245.092 64.5954 245.017 64.7016C244.942 64.8077 244.846 64.8979 244.736 64.9668C242.936 66.1277 241.115 67.3466 239.324 68.5889C239.191 68.6812 239.038 68.7391 238.877 68.7575ZM368.229 53.4957C368.039 53.5174 367.847 53.4829 367.677 53.3966C365.738 52.4194 363.765 51.488 361.813 50.6286C361.58 50.5208 361.398 50.3256 361.307 50.085C361.216 49.8443 361.223 49.5775 361.326 49.342C361.43 49.1065 361.622 48.9212 361.861 48.8259C362.1 48.7306 362.366 48.733 362.604 48.8326C364.587 49.7056 366.591 50.6516 368.56 51.644C368.748 51.7391 368.901 51.8925 368.996 52.0816C369.09 52.2706 369.121 52.4852 369.084 52.6933C369.047 52.9014 368.944 53.0919 368.79 53.2365C368.635 53.3811 368.439 53.472 368.229 53.4957ZM249.877 61.6653C249.654 61.6911 249.429 61.6396 249.239 61.5194C249.05 61.3992 248.907 61.2176 248.835 61.0049C248.763 60.7922 248.766 60.5613 248.844 60.3507C248.922 60.14 249.069 59.9624 249.262 59.8475C251.154 58.7186 253.075 57.6195 254.973 56.5801C255.086 56.5182 255.21 56.4791 255.339 56.4651C255.467 56.4512 255.596 56.4626 255.72 56.4988C255.844 56.5349 255.959 56.5951 256.059 56.6758C256.16 56.7566 256.243 56.8563 256.305 56.9693C256.367 57.0824 256.406 57.2065 256.42 57.3347C256.434 57.4628 256.423 57.5924 256.387 57.7162C256.351 57.8399 256.29 57.9553 256.21 58.0558C256.129 58.1562 256.029 58.2398 255.916 58.3017C254.039 59.3295 252.139 60.4167 250.268 61.533C250.148 61.6043 250.015 61.6494 249.877 61.6653ZM356.269 48.2355C356.115 48.2533 355.958 48.2338 355.813 48.1788C353.788 47.4166 351.728 46.7066 349.688 46.0689C349.439 45.9913 349.232 45.8182 349.111 45.5876C348.99 45.3571 348.966 45.088 349.044 44.8395C349.121 44.5911 349.294 44.3836 349.525 44.2628C349.755 44.142 350.024 44.1178 350.273 44.1954C352.348 44.8445 354.445 45.5664 356.504 46.3418C356.71 46.4194 356.884 46.564 356.998 46.7526C357.112 46.9412 357.16 47.1626 357.133 47.3813C357.105 47.6 357.006 47.8031 356.849 47.9581C356.692 48.1131 356.488 48.2108 356.269 48.2355ZM261.355 55.3862C261.126 55.4127 260.895 55.3575 260.702 55.2301C260.509 55.1027 260.367 54.9114 260.302 54.6898C260.236 54.4683 260.251 54.2307 260.343 54.0189C260.436 53.8071 260.6 53.6347 260.807 53.5321C262.782 52.5487 264.785 51.6036 266.759 50.7214C266.997 50.6153 267.267 50.6079 267.51 50.7009C267.753 50.7939 267.949 50.9797 268.055 51.2174C268.161 51.4551 268.169 51.7252 268.076 51.9683C267.983 52.2114 267.797 52.4076 267.56 52.5137C265.61 53.3846 263.632 54.3186 261.681 55.2893C261.579 55.3404 261.469 55.3732 261.355 55.3862ZM343.8 44.3404C343.684 44.3538 343.566 44.346 343.452 44.3175C341.36 43.7961 339.231 43.3329 337.124 42.9413C336.869 42.8937 336.642 42.7464 336.495 42.5318C336.348 42.3173 336.291 42.0529 336.339 41.797C336.387 41.5411 336.534 41.3145 336.748 41.1672C336.963 41.0199 337.227 40.9638 337.483 41.0114C339.628 41.4107 341.795 41.8824 343.926 42.4138C344.149 42.4693 344.346 42.6015 344.481 42.7872C344.617 42.973 344.683 43.2005 344.668 43.43C344.653 43.6595 344.558 43.8765 344.4 44.043C344.241 44.2095 344.029 44.3144 343.8 44.3404ZM273.299 50.056C273.062 50.0836 272.824 50.0241 272.628 49.8884C272.431 49.7528 272.291 49.5503 272.234 49.3189C272.176 49.0875 272.204 48.8429 272.314 48.631C272.423 48.4191 272.606 48.2543 272.828 48.1674C274.88 47.357 276.959 46.5908 279.007 45.8901C279.253 45.8085 279.521 45.8271 279.753 45.9421C279.984 46.057 280.161 46.2589 280.245 46.5038C280.329 46.7487 280.313 47.0168 280.2 47.2497C280.087 47.4825 279.886 47.6613 279.642 47.7471C277.623 48.4393 275.572 49.1936 273.547 49.9924C273.468 50.0242 273.384 50.0456 273.299 50.056ZM330.957 41.9534C330.88 41.9622 330.802 41.9619 330.725 41.9523C328.59 41.689 326.421 41.4902 324.277 41.3564C324.017 41.3404 323.774 41.2218 323.602 41.0268C323.43 40.8318 323.342 40.5763 323.358 40.3165C323.374 40.0567 323.492 39.8139 323.687 39.6416C323.882 39.4692 324.138 39.3814 324.397 39.3974C326.581 39.532 328.791 39.7363 330.965 40.0044C331.203 40.0336 331.422 40.1492 331.581 40.3295C331.74 40.5097 331.827 40.7419 331.826 40.9822C331.826 41.2224 331.737 41.454 331.576 41.633C331.416 41.812 331.196 41.926 330.957 41.9534ZM285.671 45.8302C285.427 45.8581 285.18 45.793 284.982 45.6479C284.783 45.5028 284.646 45.2882 284.598 45.0467C284.55 44.8053 284.594 44.5546 284.722 44.3444C284.85 44.1342 285.053 43.9798 285.289 43.9119C287.408 43.3015 289.554 42.7432 291.665 42.2518C291.791 42.2227 291.921 42.2185 292.048 42.2396C292.175 42.2606 292.297 42.3066 292.406 42.3747C292.515 42.4428 292.61 42.5318 292.685 42.6366C292.76 42.7415 292.814 42.86 292.843 42.9856C292.872 43.1111 292.876 43.2411 292.855 43.3683C292.834 43.4954 292.788 43.6171 292.72 43.7265C292.652 43.8359 292.563 43.9308 292.458 44.0058C292.354 44.0808 292.235 44.1344 292.11 44.1636C290.031 44.6472 287.919 45.1972 285.832 45.7979C285.78 45.8127 285.726 45.8233 285.672 45.8294L285.671 45.8302ZM317.917 41.1492C317.879 41.1534 317.841 41.1555 317.803 41.1556C315.661 41.1542 313.483 41.2186 311.329 41.3466C311.069 41.362 310.814 41.2736 310.619 41.1008C310.424 40.9279 310.306 40.6849 310.291 40.425C310.276 40.1652 310.364 39.9098 310.537 39.7152C310.709 39.5206 310.952 39.4025 311.212 39.3871C313.405 39.2569 315.623 39.1916 317.805 39.192C318.056 39.1917 318.297 39.2873 318.48 39.4594C318.662 39.6314 318.772 39.8668 318.786 40.1171C318.801 40.3674 318.719 40.6138 318.557 40.8056C318.396 40.9973 318.167 41.12 317.918 41.1484L317.917 41.1492ZM298.402 42.874C298.144 42.9112 297.882 42.8446 297.674 42.6887C297.465 42.5329 297.327 42.3005 297.29 42.0428C297.253 41.7851 297.319 41.5232 297.475 41.3146C297.631 41.106 297.863 40.9679 298.121 40.9307C300.291 40.5486 302.485 40.2256 304.644 39.9702L304.647 39.9698C304.906 39.9397 305.165 40.0135 305.37 40.175C305.574 40.3365 305.705 40.5725 305.735 40.831C305.765 41.0895 305.692 41.3494 305.53 41.5535C305.369 41.7576 305.133 41.8892 304.874 41.9193C302.752 42.1701 300.595 42.4879 298.461 42.8636C298.443 42.8679 298.423 42.8708 298.404 42.8731L298.402 42.874Z" fill="#7B7DB5"/>
<path d="M148.275 208.572C146.352 252.365 102.817 301.148 102.817 301.148C102.817 301.148 61.6653 253.813 59.6009 208.572C58.2201 178.312 79.4514 160.802 103.938 160.802C128.425 160.802 149.418 182.559 148.275 208.572Z" fill="#9395D1"/>
<path d="M103.928 235.361C118.759 235.361 130.782 223.089 130.782 207.95C130.782 192.811 118.759 180.538 103.928 180.538C89.0971 180.538 77.0742 192.811 77.0742 207.95C77.0742 223.089 89.0971 235.361 103.928 235.361Z" fill="#404396"/>
<path d="M199.814 94.9778C199.45 103.208 191.201 112.376 191.201 112.376C191.201 112.376 183.404 103.479 183.012 94.9778C182.75 89.2907 186.773 86 191.413 86C196.053 86 200.031 90.0889 199.814 94.9778Z" fill="#31AAB7" fill-opacity="0.3"/>
<path d="M191.389 100.012C194.223 100.012 196.521 97.7135 196.521 94.8784C196.521 92.0434 194.223 89.7451 191.389 89.7451C188.555 89.7451 186.258 92.0434 186.258 94.8784C186.258 97.7135 188.555 100.012 191.389 100.012Z" fill="#31AAB7"/>
<path d="M208.76 218.315L204.562 228.167L205.164 228.424L209.362 218.572L208.76 218.315Z" fill="#19274A"/>
<path d="M208.542 162.185L202.205 161.704L196.562 161.78L192.933 162.836C192.933 162.836 194.441 169.178 199.129 169.764C203.816 170.351 207.847 167.061 208.542 162.185Z" fill="#5A174A"/>
<path d="M153.133 300.77H166.766C166.676 299.337 166.137 297.97 165.227 296.861C164.317 295.752 163.081 294.958 161.694 294.591C160.307 294.224 158.84 294.304 157.501 294.818C156.162 295.332 155.018 296.254 154.232 297.455C154.116 297.631 154.008 297.814 153.909 298.001L153.88 298.058C153.443 298.899 153.189 299.823 153.133 300.77Z" fill="white"/>
<path d="M233.976 246.649C233.148 250.676 222.932 285.902 222.932 285.902C222.932 285.902 220.825 285.387 220.816 285.382L214.434 283.61C214.434 283.601 212.239 282.996 212.243 282.986C212.376 282.208 215.449 270.341 216.96 260.907C217.961 254.654 219.371 247.277 219.371 247.277L213.941 240.174V240.169L204.862 228.294V228.289L207.922 220.989C210.277 215.626 212.257 211.617 212.827 210.48L215.469 210.36L220.121 210.148C220.121 210.148 222.578 215.585 225.426 222.282C229.54 231.955 234.468 244.264 233.976 246.649Z" fill="#404396"/>
<path d="M225.368 222.605C225.082 222.553 218.334 221.21 215.157 210.453L215.784 210.268C218.839 220.612 225.419 221.95 225.485 221.962L225.368 222.605Z" fill="#19274A"/>
<path d="M219.629 247.085L219.105 247.478L221.001 250.005L221.524 249.613L219.629 247.085Z" fill="#19274A"/>
<path d="M180.758 256.321C181.945 253.158 181.902 237.403 181.681 225.37C181.534 217.424 181.309 211.1 181.309 211.1L192.678 210.76L212.827 210.479C212.257 211.618 210.277 215.629 207.925 220.991C207.086 222.903 206.199 224.986 205.314 227.173C205.162 227.546 204.865 228.295 204.865 228.295C199.227 242.504 194.681 257.951 189.85 265.095C186.277 270.379 170.447 290.403 170.447 290.403L160.108 283.002C160.108 283.002 179.834 258.776 180.758 256.321Z" fill="#404396"/>
<path d="M181.752 225.689L181.608 225.051C183.968 224.519 189.715 222.177 192.108 211.938L192.357 210.695L192.998 210.824L192.746 212.077C192.15 214.673 191.157 217.161 189.802 219.454C187.712 222.859 185.004 224.957 181.752 225.689Z" fill="#19274A"/>
<path d="M214.026 286.142L219.579 288.194L220.829 285.389L220.815 285.385L214.433 283.61C214.346 284.461 214.21 285.307 214.026 286.142Z" fill="#FD8680"/>
<path d="M212.527 294.669L221.359 300.05L227.563 303.829C228.196 303.385 228.693 302.773 228.998 302.063L221.811 297.617C222.119 296.896 222.573 296.246 223.143 295.708C223.714 295.17 224.39 294.756 225.128 294.491C224.551 294.185 223.844 293.821 223.116 293.474C222.977 293.409 222.838 293.342 222.698 293.278C222.698 293.278 221.215 294.857 220.537 294.648C220.044 294.477 219.573 294.248 219.133 293.968C218.81 293.789 218.526 293.548 218.296 293.259C217.945 292.703 218.554 290.401 218.554 290.401C218.522 289.559 219.58 288.192 219.58 288.192L214.026 286.141L212.259 291.709L212.222 291.825L211.812 292.71C211.73 292.886 211.684 293.076 211.675 293.269C211.667 293.463 211.697 293.656 211.763 293.838C211.829 294.02 211.931 294.187 212.062 294.329C212.193 294.472 212.351 294.587 212.527 294.669Z" fill="#9395D1"/>
<path d="M218.296 293.261C218.526 293.55 218.81 293.791 219.132 293.97C219.175 293.954 219.216 293.934 219.255 293.911C219.255 293.909 219.258 293.909 219.259 293.908C219.28 293.895 219.3 293.882 219.32 293.868C219.425 293.787 219.519 293.692 219.597 293.584C219.614 293.563 219.629 293.541 219.645 293.519C219.686 293.46 219.725 293.398 219.762 293.333C219.782 293.3 219.801 293.268 219.818 293.235C219.861 293.156 219.902 293.076 219.938 292.995C219.963 292.944 219.987 292.893 220.01 292.841C220.033 292.788 220.055 292.738 220.075 292.687C220.096 292.636 220.117 292.587 220.137 292.537C220.177 292.439 220.216 292.344 220.252 292.256C220.27 292.213 220.287 292.171 220.304 292.13C220.307 292.122 220.311 292.115 220.315 292.107C220.324 292.086 220.332 292.066 220.341 292.045C220.363 292.001 220.383 291.959 220.402 291.922C219.801 291.627 219.237 291.262 218.722 290.834C218.612 290.718 218.552 290.564 218.553 290.404C218.553 290.404 217.944 292.706 218.296 293.261Z" fill="#19274A"/>
<path d="M219.133 293.97C219.573 294.25 220.044 294.479 220.537 294.65C221.216 294.859 222.699 293.28 222.699 293.28C222.004 292.957 221.024 292.205 220.444 291.939C220.43 291.933 220.416 291.926 220.403 291.919C220.384 291.956 220.364 291.998 220.342 292.043C220.333 292.063 220.325 292.083 220.316 292.104C220.312 292.112 220.308 292.12 220.305 292.128C220.29 292.168 220.272 292.21 220.252 292.253C220.217 292.341 220.178 292.435 220.138 292.535C220.118 292.584 220.098 292.633 220.076 292.685C220.055 292.737 220.033 292.787 220.011 292.838C219.989 292.889 219.964 292.941 219.94 292.993C219.903 293.073 219.862 293.153 219.819 293.232C219.802 293.265 219.783 293.298 219.763 293.33C219.726 293.396 219.687 293.457 219.646 293.516C219.63 293.539 219.613 293.561 219.598 293.582C219.52 293.689 219.427 293.785 219.321 293.865C219.302 293.879 219.282 293.893 219.261 293.905C219.261 293.905 219.258 293.905 219.256 293.908C219.217 293.933 219.176 293.954 219.133 293.97Z" fill="#19274A"/>
<path d="M212.527 294.669L221.36 300.05L227.564 303.829C228.196 303.385 228.693 302.773 228.999 302.063L221.811 297.617L212.259 291.711L212.222 291.827L211.812 292.712C211.731 292.887 211.684 293.077 211.676 293.27C211.668 293.464 211.698 293.657 211.764 293.838C211.83 294.02 211.932 294.187 212.063 294.33C212.194 294.472 212.351 294.587 212.527 294.669Z" fill="#19274A"/>
<path d="M221.811 297.618L228.998 302.063C229.282 301.452 229.443 300.79 229.471 300.117C229.499 299.443 229.395 298.77 229.163 298.137C228.931 297.504 228.577 296.922 228.121 296.426C227.665 295.93 227.115 295.528 226.504 295.245C226.504 295.245 225.944 294.926 225.127 294.492C224.389 294.757 223.714 295.171 223.143 295.709C222.572 296.247 222.119 296.897 221.811 297.618Z" fill="white"/>
<path d="M154.233 297.456C155.018 296.255 156.161 295.332 157.501 294.818C158.84 294.303 160.308 294.224 161.695 294.591C163.082 294.958 164.318 295.752 165.228 296.862C166.138 297.971 166.676 299.339 166.766 300.771L166.424 290.644L159.949 286.457L153.909 298.004C154.007 297.815 154.116 297.633 154.233 297.456ZM163.637 291.574L161.072 290.093C161.005 290.054 160.946 290.003 160.898 289.941C160.851 289.879 160.816 289.809 160.796 289.734C160.776 289.658 160.771 289.58 160.781 289.503C160.791 289.426 160.817 289.352 160.856 289.284L161.132 288.805C161.171 288.737 161.223 288.678 161.285 288.631C161.346 288.584 161.417 288.549 161.492 288.529C161.567 288.509 161.645 288.503 161.722 288.514C161.8 288.524 161.874 288.549 161.941 288.588L164.505 290.068C164.641 290.147 164.74 290.276 164.781 290.428C164.822 290.579 164.801 290.741 164.723 290.877L164.446 291.357C164.407 291.424 164.355 291.483 164.294 291.531C164.232 291.578 164.162 291.613 164.087 291.633C164.011 291.653 163.933 291.658 163.856 291.648C163.779 291.638 163.705 291.613 163.637 291.574ZM159.931 291.188L160.207 290.709C160.286 290.573 160.415 290.474 160.567 290.433C160.719 290.392 160.88 290.414 161.016 290.492L163.582 291.973C163.718 292.052 163.817 292.181 163.857 292.333C163.898 292.485 163.877 292.647 163.798 292.783L163.522 293.261C163.443 293.397 163.314 293.496 163.162 293.537C163.01 293.578 162.849 293.556 162.713 293.478L160.147 291.997C160.012 291.918 159.913 291.789 159.872 291.638C159.831 291.486 159.853 291.324 159.931 291.188Z" fill="#9395D1"/>
<path d="M160.147 291.998L162.712 293.479C162.848 293.557 163.01 293.578 163.161 293.538C163.313 293.497 163.442 293.398 163.521 293.262L163.798 292.784C163.876 292.648 163.897 292.486 163.857 292.334C163.816 292.182 163.717 292.053 163.581 291.974L161.016 290.493C160.88 290.415 160.718 290.394 160.567 290.434C160.415 290.475 160.286 290.574 160.207 290.71L159.93 291.189C159.852 291.326 159.831 291.487 159.872 291.638C159.912 291.79 160.011 291.919 160.147 291.998Z" fill="#19274A"/>
<path d="M161.07 290.093L163.636 291.574C163.703 291.613 163.777 291.638 163.854 291.648C163.931 291.658 164.01 291.653 164.085 291.633C164.16 291.613 164.23 291.578 164.292 291.531C164.354 291.483 164.405 291.424 164.444 291.357L164.721 290.878C164.799 290.741 164.82 290.58 164.78 290.428C164.739 290.276 164.639 290.147 164.503 290.069L161.939 288.588C161.872 288.549 161.798 288.524 161.721 288.514C161.644 288.504 161.565 288.509 161.49 288.529C161.415 288.549 161.345 288.584 161.283 288.631C161.221 288.678 161.169 288.738 161.13 288.805L160.854 289.284C160.815 289.352 160.79 289.426 160.779 289.503C160.769 289.58 160.774 289.659 160.795 289.734C160.815 289.809 160.849 289.879 160.897 289.941C160.944 290.003 161.003 290.055 161.07 290.093Z" fill="#19274A"/>
<path d="M164.917 303.308H154.982C154.739 303.308 154.499 303.26 154.274 303.167C154.05 303.074 153.846 302.938 153.675 302.766C153.503 302.594 153.367 302.39 153.274 302.166C153.181 301.942 153.133 301.701 153.133 301.458V300.772H166.766V301.458C166.766 301.949 166.571 302.419 166.224 302.766C165.878 303.113 165.407 303.308 164.917 303.308Z" fill="#19274A"/>
<path d="M174.262 199.38C175.115 200.499 178.094 201.266 181.879 201.794L181.061 212.447C187.565 212.447 220.453 215.293 221.02 214.723C221.289 214.455 221.649 207.731 221.953 200.71C227.64 200.962 250.14 201.954 251.631 201.954C253.337 201.954 253.148 197.4 252.688 196.098C252.223 194.783 235.147 190.142 231.823 189.25C228.812 181.656 222.725 166.425 221.874 165.248C221.299 164.453 217.9 163.678 214.677 163.106C211.525 162.55 208.541 162.184 208.541 162.184C204.11 171.7 196.955 171.212 192.932 162.835C192.932 162.835 190.964 163.365 188.447 164.16C184.686 165.346 179.701 167.122 178.216 168.609C175.206 171.622 171.282 195.477 174.262 199.38Z" fill="#9395D1"/>
<path d="M231.739 189.567L231.182 189.417L231.349 188.785L231.909 188.935L231.739 189.567Z" fill="#19274A"/>
<path d="M222.281 200.724L221.627 200.696C221.962 192.936 222.236 184.703 222.238 184.621L222.893 184.643C222.89 184.725 222.617 192.96 222.281 200.724Z" fill="#19274A"/>
<path d="M233.199 193.617C233.199 193.617 232.533 191.926 231.521 189.372L232.129 189.131C233.143 191.686 233.808 193.378 233.808 193.378L233.199 193.617Z" fill="#19274A"/>
<path d="M203.763 203.261C200.369 203.261 189.426 203.174 181.834 202.116L181.924 201.468C190.146 202.613 202.339 202.613 204.476 202.604V197.679C198.757 195.477 185.977 190.525 185.547 190.095C185.191 189.739 185.159 186.909 185.452 181.685L186.106 181.721C185.909 185.214 185.831 189.081 186.03 189.645C186.788 190.103 197.701 194.37 204.921 197.149L205.131 197.23V203.253L204.807 203.256C204.784 203.257 204.41 203.261 203.763 203.261Z" fill="#19274A"/>
<path d="M213.288 208.669L212.984 208.09C214.783 207.147 217.775 205.513 218.149 205.139L218.611 205.601C218.044 206.169 213.773 208.415 213.288 208.669Z" fill="#19274A"/>
<path d="M186.887 204.375L186.455 204.866L190.723 208.628L191.155 208.137L186.887 204.375Z" fill="#19274A"/>
<path d="M196.563 155.417C196.686 155.4 196.811 155.377 196.941 155.347C197.671 156.466 200.069 159.911 202.456 160.682C202.816 160.805 203.198 160.855 203.578 160.828C210.068 160.284 209.121 152.017 208.812 150.097C208.638 150.188 208.92 150.882 208.45 150.778C207.296 150.519 204.733 148.394 204.617 148.298C204.179 148.471 203.748 148.646 203.323 148.824C202.2 149.292 201.123 149.777 200.092 150.278C199.196 150.712 198.338 151.16 197.519 151.622C196.973 151.254 195.87 150.633 194.842 150.809C194.496 150.867 194.173 151.02 193.909 151.251C193.868 151.284 193.828 151.323 193.789 151.362C192.686 152.465 193.494 155.841 196.563 155.417Z" fill="#FD8680"/>
<path d="M204.433 148.569L204.382 148.527L204.614 148.296L204.803 148.028L204.633 148.276L204.846 148.064L204.633 148.276L204.433 148.569Z" fill="#2DEA43"/>
<path d="M204.617 148.299C204.733 148.395 207.296 150.52 208.45 150.779C208.92 150.884 208.638 150.19 208.812 150.098C209.518 149.723 211.387 152.425 211.748 151.731C212.108 151.037 209.478 149.101 209.821 148.467C210.311 147.556 213.931 149.939 213.931 148.981C213.931 147.566 209.696 146.956 208.625 146.822C207.971 147.047 207.328 147.275 206.696 147.505C205.989 147.765 205.296 148.03 204.617 148.299Z" fill="#8E3332"/>
<path d="M194.843 150.809C195.87 150.633 196.974 151.254 197.519 151.621C198.338 151.16 199.196 150.712 200.092 150.278C199.548 149.165 198.608 147.647 198.073 146.806C196.358 147.959 195.028 149.332 194.843 150.809Z" fill="#9395D1"/>
<path d="M205.104 143.656C205.719 144.903 206.251 146.189 206.697 147.505C207.328 147.275 207.971 147.047 208.626 146.823C208.626 146.823 207.93 143.757 206.806 143.411C206.511 143.372 206.212 143.391 205.924 143.467C205.683 143.511 205.409 143.574 205.104 143.656Z" fill="#404396"/>
<path d="M201.624 144.897C202.257 146.177 202.824 147.488 203.322 148.825C203.747 148.647 204.179 148.472 204.617 148.299C205.295 148.03 205.988 147.766 206.697 147.507C206.251 146.19 205.719 144.904 205.104 143.657C203.915 143.986 202.752 144.4 201.624 144.897Z" fill="#9395D1"/>
<path d="M198.072 146.806C198.608 147.647 199.547 149.165 200.092 150.278C201.121 149.776 202.198 149.292 203.323 148.824C202.824 147.487 202.257 146.176 201.624 144.896C200.386 145.427 199.198 146.066 198.072 146.806Z" fill="#404396"/>
<path d="M193.909 151.251C194.173 151.02 194.496 150.867 194.842 150.81C195.027 149.333 196.357 147.96 198.072 146.806C199.198 146.066 200.386 145.427 201.624 144.897C202.753 144.4 203.916 143.985 205.104 143.657C205.409 143.575 205.684 143.512 205.921 143.468C205.404 142.658 203.503 140.128 200.082 140.319C198.652 140.384 197.26 140.803 196.033 141.54C195.407 141.92 194.836 142.383 194.336 142.918C193.184 144.101 192.474 145.645 192.326 147.291C192.28 148.274 193.443 150.431 193.909 151.251ZM197.925 143.685C197.925 143.184 200.16 142.362 200.494 142.221C200.828 142.08 201.661 142.744 201.7 143.082C201.765 143.651 199.313 145.048 198.914 145.099C198.516 145.15 197.925 144.187 197.925 143.686V143.685Z" fill="#404396"/>
<path d="M194.337 142.918C194.837 142.383 195.408 141.919 196.034 141.54C195.942 141.408 195.823 141.296 195.685 141.213C195.548 141.13 195.394 141.076 195.234 141.055C195.074 141.035 194.912 141.048 194.758 141.094C194.603 141.139 194.46 141.217 194.337 141.321C193.326 142.041 194.337 142.918 194.337 142.918Z" fill="#9395D1"/>
<path d="M197.925 143.686C197.925 144.188 198.515 145.151 198.914 145.1C199.313 145.048 201.766 143.652 201.699 143.082C201.66 142.746 200.828 142.08 200.494 142.222C200.16 142.364 197.925 143.184 197.925 143.686Z" fill="#FEFEFE"/>
<path d="M196.458 153.666C196.262 153.414 195.994 153.229 195.689 153.135C195.384 153.041 195.057 153.044 194.754 153.143L194.537 152.526C194.971 152.38 195.44 152.373 195.879 152.507C196.317 152.641 196.702 152.908 196.981 153.272L196.457 153.665L196.719 153.468L196.458 153.666Z" fill="#CC5754"/>
<path d="M196.562 155.416V161.779C198.121 164.943 200.125 166.074 202.575 165.171L202.455 160.682C200.068 159.911 197.67 156.466 196.941 155.347C196.811 155.377 196.685 155.4 196.562 155.416Z" fill="#FD8680"/>
<path d="M202.455 160.683C201.113 160.249 199.766 158.969 198.716 157.733C198.716 157.733 199.029 160.837 202.574 162.782L202.455 160.683H202.455Z" fill="#CC5754"/>
<path d="M251.17 195.686C251.17 195.686 258.336 194.043 258.095 194.709C257.854 195.374 255.642 195.919 255.642 195.919L256.216 196.982C256.216 196.982 261.383 197.865 261.44 198.599C261.496 199.332 257.029 198.58 257.029 198.58C257.029 198.58 260.748 199.762 261.113 200.656C261.478 201.551 256.764 200.171 256.764 200.171C256.764 200.171 259.997 201.392 259.95 202.042C259.904 202.693 251.629 201.474 251.629 201.474L251.17 195.686Z" fill="#FD8680"/>
<path d="M208.056 212.219H259.41V170.78H208.056V212.219Z" fill="#E57D00"/>
<path d="M233.733 212.219H259.41V170.78H233.733V212.219Z" fill="#FFAA40"/>
<path d="M253.456 200.778H259.41V197.219H253.456V200.778Z" fill="#E57D00"/>
<path d="M208.055 179.678H214.01V176.881H208.055V179.678Z" fill="#FF9E1D"/>
<path d="M204.291 197.378C204.291 197.378 211.457 195.735 211.216 196.401C210.975 197.067 208.763 197.611 208.763 197.611L209.338 198.674C209.338 198.674 214.502 199.557 214.561 200.291C214.619 201.024 210.15 200.272 210.15 200.272C210.15 200.272 213.869 201.454 214.234 202.349C214.599 203.243 209.885 201.863 209.885 201.863C209.885 201.863 213.118 203.084 213.071 203.734C213.025 204.385 204.75 203.166 204.75 203.166L204.291 197.378Z" fill="#FD8680"/>
<path d="M159.949 286.457L161.142 283.743L167.8 288.508L166.424 290.643L159.949 286.457Z" fill="#FD8680"/>
</svg>
