<svg width="491" height="352" viewBox="0 0 491 352" fill="none" xmlns="http://www.w3.org/2000/svg">
<path d="M66.9945 339.031H464.771C464.771 339.031 544.591 196.728 421.867 89.2386C316.423 -3.11521 277.154 -48.2027 142.26 76.1491C7.36462 200.501 -55.1742 230.678 66.9945 339.031Z" fill="#EEEEF5"/>
<path d="M441.691 324.938C441.638 329.669 441.367 334.097 441.034 337.839H427.437C421.234 330.598 415.748 321.837 411.803 313.25C410.207 309.808 408.839 306.265 407.709 302.644C406.625 299.252 405.9 295.756 405.548 292.212C405.171 287.826 405.698 284.104 407.327 281.469C409.488 277.986 413.583 276.402 420.086 277.69C421.088 277.886 422.075 278.156 423.038 278.497V278.501C424.377 278.964 425.662 279.573 426.869 280.317C428.819 281.529 430.563 283.046 432.034 284.809C434.252 287.432 435.991 290.6 437.341 294.114C437.548 294.637 437.742 295.168 437.925 295.706C439.04 299.022 439.873 302.426 440.415 305.883C440.468 306.203 440.52 306.523 440.569 306.847C440.63 307.245 440.687 307.646 440.739 308.047C441.285 312.154 441.595 316.288 441.668 320.429C441.699 321.954 441.707 323.462 441.691 324.938Z" fill="#404396"/>
<path d="M436.123 337.878C435.866 336.963 435.595 336.01 435.308 335.02L435.231 334.753C434.171 331.092 433.089 327.481 432.018 324.02C431.137 321.179 430.239 318.369 429.347 315.671C428.059 311.786 426.854 308.314 425.663 305.057C424.042 300.623 422.452 296.599 420.935 293.097C417.876 286.032 415.023 280.866 412.454 277.745L412.677 277.562C415.264 280.703 418.131 285.891 421.201 292.982C422.72 296.489 424.313 300.519 425.935 304.958C427.127 308.217 428.333 311.692 429.622 315.58C430.514 318.28 431.413 321.091 432.294 323.935C433.365 327.397 434.449 331.01 435.51 334.672L435.587 334.94C435.872 335.931 436.145 336.884 436.402 337.8L436.123 337.878Z" fill="black"/>
<path d="M439.212 349.228L439.139 348.953L439.419 348.878L439.492 349.155L439.212 349.228Z" fill="black"/>
<path d="M421.177 293.321L407.055 281.429L407.241 281.208L420.961 292.76L422.895 278.477L423.182 278.515L421.177 293.321Z" fill="black"/>
<path d="M425.883 305.232L405.469 292.336L405.623 292.092L425.718 304.786L431.998 284.443L432.275 284.529L425.883 305.232Z" fill="black"/>
<path d="M429.559 315.838L407.632 302.765L407.78 302.516L429.407 315.41L437.208 294.057L437.479 294.156L429.559 315.838Z" fill="black"/>
<path d="M432.217 324.174L411.734 313.377L411.87 313.121L432.098 323.784L440.612 307.979L440.867 308.116L432.217 324.174Z" fill="black"/>
<path d="M435.42 334.899L418.999 326.633L419.129 326.374L435.323 334.526L441.564 325.333L441.804 325.495L435.42 334.899Z" fill="black"/>
<path d="M443.289 323.244C443.289 323.244 408.017 265.269 439.64 252.701C471.264 240.132 450.992 315.541 443.289 323.244Z" fill="#404396"/>
<path d="M442.943 323.062C442.919 322.906 440.578 307.239 439.536 290.664C438.134 268.372 439.623 255.142 443.964 251.342L444.154 251.559C433.953 260.492 443.135 322.396 443.229 323.021L442.943 323.062Z" fill="black"/>
<path d="M439.847 263.276L435.658 254.717L435.918 254.59L439.926 262.778L450.148 252.176L450.357 252.377L439.847 263.276Z" fill="black"/>
<path d="M439.161 274.09L439.074 273.946L430.362 259.74L430.609 259.589L439.233 273.652L455.532 260.031L455.718 260.253L439.161 274.09Z" fill="black"/>
<path d="M439.398 286.136L426.629 270.007L426.856 269.827L439.445 285.729L456.703 272.022L456.883 272.249L439.398 286.136Z" fill="black"/>
<path d="M440.204 298.119L440.118 298.035L427.741 286.036L427.942 285.828L440.233 297.744L455.138 287.149L455.306 287.385L440.204 298.119Z" fill="black"/>
<path d="M441.017 306.7L430.554 296.058L430.76 295.855L441.05 306.32L452.91 297.814L453.078 298.049L441.017 306.7Z" fill="black"/>
<path d="M472.799 312.163C471.898 315.388 470.7 318.521 469.219 321.524C466.275 327.569 462.347 333.082 457.596 337.839H437.45C437.296 336.623 437.154 335.337 437.04 333.999V333.995C437 333.48 436.959 332.953 436.923 332.422C436.558 326.896 436.691 320.616 438.026 314.6V314.596C438.084 314.344 438.139 314.097 438.199 313.846C438.373 313.12 438.564 312.398 438.779 311.685C439.258 310.032 439.855 308.416 440.567 306.849C440.648 306.667 440.733 306.48 440.822 306.299C440.871 306.19 440.923 306.084 440.976 305.975C441.333 305.245 441.714 304.527 442.132 303.826C444.219 300.222 447.108 297.148 450.576 294.842C451.719 294.082 452.915 293.407 454.157 292.823C455.107 292.374 456.08 291.973 457.072 291.623C458.929 290.931 460.868 290.484 462.841 290.293C465.427 290.074 467.544 290.52 469.218 291.489C471.411 292.758 472.846 294.931 473.59 297.712C474.627 301.602 474.307 306.683 472.799 312.163Z" fill="#7B7DB5"/>
<path d="M443.627 337.887L443.354 337.79C443.789 336.572 444.264 335.278 444.766 333.944C445.727 331.403 446.725 328.918 447.733 326.56C449.099 323.349 450.559 320.179 452.074 317.138C454.763 311.702 457.817 306.454 461.214 301.431C463.611 297.905 466.25 294.549 469.112 291.389L469.326 291.584C466.473 294.735 463.842 298.079 461.453 301.594C458.063 306.607 455.016 311.843 452.333 317.267C450.821 320.303 449.362 323.467 447.998 326.673C446.992 329.028 445.996 331.508 445.037 334.046C444.535 335.379 444.062 336.671 443.627 337.887Z" fill="black"/>
<path d="M461.156 301.76L462.699 290.271L462.985 290.309L461.503 301.348L473.546 297.572L473.633 297.848L461.156 301.76Z" fill="black"/>
<path d="M452.072 317.386L450.432 294.848L450.721 294.827L452.336 317.023L472.765 312.024L472.834 312.305L452.072 317.386Z" fill="black"/>
<path d="M444.805 334.159L444.764 334.043L437.891 314.644L438.164 314.547L444.996 333.832L463.665 330.565L463.715 330.851L444.805 334.159Z" fill="black"/>
<path d="M438.516 337.895L436.896 333.999L437.045 333.997L437.174 333.943L438.783 337.783L438.516 337.895Z" fill="black"/>
<path d="M447.759 326.789L447.724 326.65L441.991 303.861L442.272 303.79L447.97 326.441L469.187 321.386L469.254 321.667L447.759 326.789Z" fill="black"/>
<path d="M252.424 329.977C252.391 333.003 252.217 335.834 252.004 338.227H243.309C239.283 333.46 235.92 328.171 233.312 322.503C232.291 320.302 231.416 318.036 230.693 315.72C230 313.552 229.537 311.316 229.312 309.05C229.07 306.245 229.407 303.865 230.45 302.18C231.831 299.953 234.45 298.939 238.609 299.763C239.249 299.889 239.88 300.061 240.496 300.279V300.283C241.353 300.579 242.174 300.969 242.946 301.445C244.193 302.22 245.308 303.189 246.249 304.317C247.704 306.097 248.851 308.108 249.643 310.267C249.775 310.602 249.899 310.942 250.016 311.286C250.729 313.407 251.262 315.583 251.608 317.794C251.642 317.998 251.676 318.203 251.707 318.411C251.746 318.665 251.782 318.921 251.816 319.178C252.165 321.804 252.363 324.447 252.409 327.096C252.43 328.069 252.435 329.034 252.424 329.977Z" fill="#404396"/>
<path d="M248.815 338.266C248.646 337.662 248.465 337.032 248.276 336.377L248.245 336.268C247.565 333.923 246.874 331.613 246.189 329.406C245.628 327.595 245.054 325.799 244.481 324.068C243.657 321.581 242.886 319.362 242.126 317.282C241.091 314.451 240.075 311.878 239.104 309.637C237.15 305.123 235.328 301.824 233.689 299.833L233.913 299.648C235.57 301.661 237.406 304.983 239.371 309.522C240.344 311.768 241.363 314.346 242.399 317.183C243.161 319.265 243.932 321.487 244.757 323.977C245.33 325.71 245.905 327.507 246.466 329.32C247.15 331.529 247.842 333.84 248.521 336.188L248.553 336.297C248.741 336.953 248.922 337.583 249.092 338.188L248.815 338.266Z" fill="black"/>
<path d="M250.909 345.077L250.629 345.151L250.676 345.328L250.956 345.253L250.909 345.077Z" fill="black"/>
<path d="M239.347 309.859L230.244 302.194L230.431 301.973L239.131 309.299L240.355 300.259L240.642 300.298L239.347 309.859Z" fill="black"/>
<path d="M242.347 317.456L229.235 309.173L229.39 308.928L242.182 317.01L246.178 304.066L246.455 304.152L242.347 317.456Z" fill="black"/>
<path d="M244.695 324.234L230.619 315.842L230.767 315.593L244.543 323.807L249.51 310.211L249.782 310.31L244.695 324.234Z" fill="black"/>
<path d="M246.389 329.559L233.246 322.63L233.381 322.374L246.271 329.169L251.691 319.107L251.946 319.245L246.389 329.559Z" fill="black"/>
<path d="M248.434 336.414L237.893 331.107L238.023 330.849L248.337 336.041L252.302 330.2L252.542 330.363L248.434 336.414Z" fill="black"/>
<path d="M253.448 328.893C253.448 328.893 230.894 291.819 251.115 283.782C271.336 275.745 258.374 323.966 253.448 328.893Z" fill="#404396"/>
<path d="M253.176 328.786C253.161 328.686 251.664 318.665 250.997 308.062C250.099 293.79 251.058 285.316 253.846 282.875L254.037 283.093C247.535 288.786 253.402 328.344 253.462 328.743L253.176 328.786Z" fill="black"/>
<path d="M251.233 290.636L248.521 285.095L248.781 284.968L251.311 290.137L257.797 283.411L258.005 283.612L251.233 290.636Z" fill="black"/>
<path d="M250.796 297.54L250.708 297.397L245.138 288.312L245.384 288.161L250.868 297.103L261.244 288.431L261.43 288.653L250.796 297.54Z" fill="black"/>
<path d="M250.952 305.237L242.754 294.883L242.981 294.703L250.999 304.83L261.994 296.098L262.174 296.325L250.952 305.237Z" fill="black"/>
<path d="M251.471 312.895L251.384 312.811L243.47 305.138L243.671 304.93L251.5 312.519L260.995 305.769L261.163 306.006L251.471 312.895Z" fill="black"/>
<path d="M251.989 318.383L245.267 311.547L245.473 311.344L252.022 318.004L259.57 312.59L259.738 312.825L251.989 318.383Z" fill="black"/>
<path d="M272.319 321.809C271.743 323.871 270.976 325.875 270.03 327.795C268.147 331.661 265.635 335.186 262.597 338.228H249.714C249.616 337.45 249.525 336.628 249.454 335.773V335.77C249.428 335.441 249.402 335.104 249.378 334.764C249.145 331.232 249.231 327.214 250.084 323.367V323.365C250.12 323.204 250.156 323.046 250.195 322.885C250.307 322.422 250.429 321.958 250.566 321.503C250.872 320.446 251.254 319.412 251.709 318.41C251.761 318.294 251.815 318.174 251.872 318.057C251.904 317.988 251.937 317.92 251.971 317.85C252.199 317.383 252.443 316.924 252.71 316.476C254.045 314.171 255.892 312.205 258.11 310.731C258.841 310.245 259.606 309.813 260.399 309.44C261.007 309.153 261.63 308.897 262.264 308.673C263.451 308.23 264.691 307.944 265.953 307.822C267.607 307.682 268.96 307.967 270.031 308.587C271.434 309.398 272.351 310.787 272.826 312.566C273.488 315.055 273.283 318.304 272.319 321.809Z" fill="#7B7DB5"/>
<path d="M253.714 338.277L253.441 338.179C253.716 337.408 254.02 336.581 254.344 335.718C254.958 334.095 255.596 332.505 256.242 330.994C257.115 328.941 258.05 326.912 259.02 324.966C260.74 321.488 262.694 318.13 264.868 314.916C266.402 312.659 268.091 310.511 269.923 308.488L270.137 308.684C268.314 310.696 266.633 312.833 265.107 315.079C262.94 318.283 260.993 321.629 259.279 325.095C258.312 327.037 257.379 329.059 256.508 331.107C255.864 332.615 255.227 334.201 254.615 335.82C254.291 336.681 253.988 337.507 253.714 338.277Z" fill="black"/>
<path d="M264.812 315.23L265.809 307.802L266.095 307.84L265.159 314.818L272.781 312.428L272.868 312.704L264.812 315.23Z" fill="black"/>
<path d="M259.017 325.214L257.964 310.741L258.253 310.72L259.282 324.852L272.285 321.669L272.354 321.951L259.017 325.214Z" fill="black"/>
<path d="M254.384 335.933L249.947 323.412L250.221 323.315L254.575 335.606L266.47 333.525L266.52 333.81L254.384 335.933Z" fill="black"/>
<path d="M250.348 338.284L249.308 335.773L249.456 335.772L249.586 335.717L250.615 338.172L250.348 338.284Z" fill="black"/>
<path d="M256.268 331.224L256.233 331.085L252.567 316.512L252.849 316.441L256.48 330.876L269.997 327.655L270.064 327.936L256.268 331.224Z" fill="black"/>
<path d="M103.535 323.953C103.477 329.228 103.173 334.163 102.803 338.335H87.6431C80.7276 330.263 74.6121 320.495 70.2132 310.922C68.4337 307.085 66.9086 303.135 65.6479 299.098C64.4395 295.316 63.6321 291.418 63.2389 287.468C62.8185 282.578 63.406 278.428 65.2231 275.49C67.6323 271.608 72.1974 269.84 79.4473 271.278C80.5647 271.497 81.6645 271.797 82.7378 272.177V272.182C84.2315 272.698 85.6638 273.377 87.009 274.207C89.1838 275.558 91.128 277.249 92.7675 279.216C95.2399 282.14 97.1789 285.67 98.6842 289.589C98.9146 290.172 99.1315 290.764 99.3347 291.365C100.578 295.062 101.506 298.857 102.11 302.71C102.168 303.067 102.227 303.424 102.282 303.786C102.35 304.229 102.413 304.676 102.472 305.124C103.08 309.701 103.425 314.31 103.507 318.928C103.544 320.626 103.553 322.308 103.535 323.953Z" fill="#404396"/>
<path d="M97.3431 338.375C97.0637 337.378 96.7661 336.342 96.4571 335.266L96.3491 334.891C95.1638 330.801 93.9582 326.775 92.7656 322.925C91.7835 319.755 90.7817 316.624 89.7877 313.617C88.3508 309.281 87.0082 305.41 85.6807 301.783C83.8752 296.842 82.1015 292.355 80.4092 288.448C76.9988 280.57 73.8171 274.811 70.9521 271.33L71.1754 271.146C74.0577 274.647 77.2538 280.43 80.675 288.333C82.3696 292.245 84.1453 296.737 85.9526 301.684C87.2804 305.314 88.625 309.187 90.0639 313.526C91.0582 316.535 92.0617 319.668 93.0435 322.84C94.2364 326.69 95.4426 330.719 96.6285 334.811L96.7362 335.187C97.0451 336.264 97.3407 337.301 97.6231 338.298L97.3431 338.375Z" fill="black"/>
<path d="M100.787 351.028L100.706 350.721L100.986 350.646L101.067 350.955L100.787 351.028Z" fill="black"/>
<path d="M80.6517 288.673L64.9307 275.435L65.1171 275.214L80.4358 288.112L82.596 272.158L82.8826 272.197L80.6517 288.673Z" fill="black"/>
<path d="M85.9016 301.958L63.1611 287.592L63.3155 287.347L85.7363 301.511L92.7445 278.812L93.021 278.897L85.9016 301.958Z" fill="black"/>
<path d="M90.0008 313.782L65.5723 299.217L65.7202 298.969L89.8485 313.354L98.5521 289.529L98.824 289.628L90.0008 313.782Z" fill="black"/>
<path d="M92.9656 323.079L70.1455 311.049L70.2804 310.793L92.8469 322.689L102.346 305.054L102.601 305.191L92.9656 323.079Z" fill="black"/>
<path d="M96.537 335.036L78.2432 325.827L78.3734 325.569L96.4403 334.663L103.406 324.402L103.646 324.565L96.537 335.036Z" fill="black"/>
<path d="M105.316 322.064C105.316 322.064 65.9928 257.429 101.248 243.417C136.503 229.405 113.904 313.476 105.316 322.064Z" fill="#404396"/>
<path d="M104.947 321.859C104.92 321.685 102.312 304.218 101.149 285.739C99.5851 260.892 101.245 246.147 106.079 241.914L106.27 242.132C94.8912 252.096 105.128 321.12 105.233 321.816L104.947 321.859Z" fill="black"/>
<path d="M101.484 255.179L96.8242 245.658L97.0845 245.531L101.562 254.68L112.976 242.844L113.185 243.045L101.484 255.179Z" fill="black"/>
<path d="M100.718 267.239L100.631 267.096L90.9189 251.258L91.1653 251.106L100.79 266.801L118.976 251.603L119.161 251.826L100.718 267.239Z" fill="black"/>
<path d="M100.982 280.669L86.7559 262.701L86.9826 262.521L101.029 280.262L120.282 264.971L120.461 265.198L100.982 280.669Z" fill="black"/>
<path d="M101.879 294.031L101.792 293.947L87.9941 280.57L88.1954 280.362L101.908 293.656L118.536 281.837L118.703 282.073L101.879 294.031Z" fill="black"/>
<path d="M102.785 303.597L91.1299 291.744L91.3363 291.541L102.818 303.218L116.051 293.726L116.22 293.961L102.785 303.597Z" fill="black"/>
<path d="M138.216 309.71C137.212 313.305 135.876 316.799 134.225 320.147C130.943 326.886 126.564 333.032 121.266 338.335H98.8071C98.6354 336.979 98.4771 335.546 98.3505 334.055V334.05C98.3054 333.476 98.2602 332.889 98.2197 332.297C97.8143 326.136 97.962 319.134 99.449 312.427V312.422C99.5121 312.142 99.5755 311.867 99.6433 311.586C99.8376 310.776 100.049 309.973 100.29 309.177C100.824 307.334 101.49 305.532 102.283 303.785C102.373 303.582 102.468 303.374 102.568 303.17C102.622 303.048 102.68 302.931 102.74 302.809C103.137 301.995 103.562 301.195 104.028 300.413C106.354 296.395 109.576 292.967 113.442 290.397C114.716 289.549 116.05 288.797 117.434 288.146C118.494 287.645 119.578 287.199 120.683 286.808C122.754 286.037 124.916 285.539 127.115 285.326C129.999 285.082 132.358 285.579 134.225 286.659C136.67 288.074 138.27 290.496 139.098 293.597C140.255 297.936 139.898 303.6 138.216 309.71Z" fill="#7B7DB5"/>
<path d="M105.678 338.384L105.405 338.286C105.883 336.945 106.413 335.503 106.979 333.999C108.05 331.167 109.161 328.398 110.285 325.767C111.809 322.186 113.437 318.652 115.125 315.264C118.123 309.204 121.527 303.355 125.314 297.755C127.985 293.824 130.927 290.083 134.117 286.561L134.33 286.756C131.149 290.268 128.216 293.998 125.552 297.918C121.772 303.507 118.375 309.345 115.383 315.393C113.698 318.775 112.072 322.304 110.55 325.88C109.428 328.507 108.317 331.273 107.25 334.1C106.684 335.603 106.155 337.044 105.678 338.384Z" fill="black"/>
<path d="M125.256 298.088L126.972 285.305L127.259 285.343L125.603 297.675L139.054 293.458L139.14 293.734L125.256 298.088Z" fill="black"/>
<path d="M115.124 315.512L113.297 290.406L113.586 290.385L115.388 315.15L138.183 309.571L138.252 309.853L115.124 315.512Z" fill="black"/>
<path d="M107.018 334.213L106.977 334.098L99.3145 312.47L99.5875 312.373L107.209 333.886L128.037 330.242L128.087 330.527L107.018 334.213Z" fill="black"/>
<path d="M100.012 338.39L98.2061 334.054L98.3563 334.052L98.484 333.998L100.279 338.278L100.012 338.39Z" fill="black"/>
<path d="M110.312 325.996L110.277 325.858L103.886 300.451L104.167 300.38L110.523 325.648L134.193 320.008L134.26 320.29L110.312 325.996Z" fill="black"/>
<path d="M386.642 335.627C414.379 335.627 436.864 331.13 436.864 325.583C436.864 320.036 414.379 315.539 386.642 315.539C358.906 315.539 336.421 320.036 336.421 325.583C336.421 331.13 358.906 335.627 386.642 335.627Z" fill="#404396"/>
<path d="M451.387 189.641C448.572 253.187 384.86 323.975 384.86 323.975C384.86 323.975 324.635 255.288 321.614 189.641C319.592 145.731 350.665 120.322 386.5 120.322C422.336 120.322 453.059 151.893 451.387 189.641Z" fill="#9395D1"/>
<path d="M386.316 228.504C408.205 228.504 425.949 210.759 425.949 188.87C425.949 166.981 408.205 149.236 386.316 149.236C364.426 149.236 346.682 166.981 346.682 188.87C346.682 210.759 364.426 228.504 386.316 228.504Z" fill="#404396"/>
<path d="M82.7451 269.871C82.3201 279.468 72.6983 290.158 72.6983 290.158C72.6983 290.158 63.6032 279.785 63.1469 269.871C62.8417 263.24 67.5342 259.402 72.9462 259.402C78.3581 259.402 82.9976 264.17 82.7451 269.871Z" fill="#ECA7A9"/>
<path d="M72.9181 275.741C76.2238 275.741 78.9036 273.061 78.9036 269.755C78.9036 266.449 76.2238 263.77 72.9181 263.77C69.6124 263.77 66.9326 266.449 66.9326 269.755C66.9326 273.061 69.6124 275.741 72.9181 275.741Z" fill="#31AAB7"/>
<path d="M20.454 167.776C20.454 167.776 94.6281 183.047 116.08 166.322C137.533 149.596 78.266 124.509 25.5443 149.233C-27.1774 173.956 20.454 167.776 20.454 167.776Z" fill="white"/>
<path d="M138.26 59.7875C138.26 59.7875 189.163 76.1493 234.613 59.7875C280.063 43.4256 255.702 32.8811 230.614 37.2444C205.525 41.6077 195.345 8.88348 152.804 24.5183C110.263 40.1531 138.26 59.7875 138.26 59.7875Z" fill="white"/>
<path d="M27.4372 139.106L83.7861 129.752L80.7597 111.521L52.9404 116.139L64.3732 100.009C70.6919 91.1753 74.604 81.7676 72.9533 71.8237C70.1824 55.1321 55.3124 47.626 40.5149 50.0824C29.0321 51.9886 18.8673 59.6365 15.584 72.8323L33.1177 79.5314C34.5023 73.9493 38.0167 69.4733 43.8173 68.5104C49.3812 67.5868 53.2854 70.5879 54.1501 75.7966C54.9558 80.6502 52.2101 86.0933 48.1819 91.871L25.1576 125.374L27.4372 139.106Z" fill="#31AAB7"/>
<path d="M156.295 94.133H147.895V76.133H128.455V94.133H110.935L137.695 41.333H117.055L90.2945 94.133V111.893H128.455V125.333H147.895V111.893H156.295V94.133Z" fill="#31AAB7"/>
<path d="M223.091 98.4921C222.442 113.136 207.76 129.448 207.76 129.448C207.76 129.448 193.882 113.62 193.186 98.4921C192.72 88.3738 199.88 82.5186 208.138 82.5186C216.396 82.5186 223.475 89.7934 223.091 98.4921Z" fill="#1097A3" fill-opacity="0.4"/>
<path d="M208.095 107.448C213.139 107.448 217.228 103.359 217.228 98.3147C217.228 93.2706 213.139 89.1816 208.095 89.1816C203.051 89.1816 198.962 93.2706 198.962 98.3147C198.962 103.359 203.051 107.448 208.095 107.448Z" fill="#31AAB7"/>
<path d="M433.501 67.0589C433.501 67.0589 371.326 55.7874 338.966 72.8765C306.605 89.9656 370.94 101.21 431.672 98.3149C492.404 95.4196 433.501 67.0589 433.501 67.0589Z" fill="white"/>
<path d="M166.705 247.835L161.852 261.247L162.396 261.444L167.25 248.032L166.705 247.835Z" fill="#19274A"/>
<path d="M277.062 181.976L284.127 181.44L290.418 181.525L294.465 182.702C294.465 182.702 292.784 189.771 287.557 190.424C282.331 191.077 277.837 187.411 277.062 181.976Z" fill="#5A174A"/>
<path d="M338.84 336.436H323.64C323.74 334.84 324.34 333.316 325.355 332.08C326.37 330.844 327.748 329.959 329.294 329.55C330.84 329.141 332.476 329.229 333.969 329.802C335.462 330.375 336.737 331.403 337.613 332.741V332.743C337.742 332.94 337.863 333.143 337.974 333.351L338.006 333.415C338.493 334.353 338.777 335.382 338.84 336.436Z" fill="white"/>
<path d="M281.162 255.654V255.659L271.044 268.899L264.993 276.817C264.993 276.817 267.342 287.114 268.905 293.998C270.948 302.996 273.887 315.608 274.035 316.476C274.04 316.485 270.495 317.302 270.495 317.311L261.804 319.679C261.804 319.679 249.629 280.6 248.703 276.11C248.158 273.461 253.651 259.739 258.24 248.96C261.416 241.496 264.156 235.437 264.156 235.437L269.338 235.67L272.285 235.806C272.924 237.074 275.129 241.542 277.751 247.52L281.162 255.654Z" fill="#404396"/>
<path d="M258.29 249.246L258.186 248.676C258.26 248.662 265.639 247.17 269.06 235.589L269.615 235.753C266.085 247.699 258.607 249.188 258.29 249.246Z" fill="#19274A"/>
<path d="M264.761 276.642L262.647 279.459L263.111 279.807L265.224 276.99L264.761 276.642Z" fill="#19274A"/>
<path d="M308.864 283.512C307.54 279.986 306.764 265.811 307.012 252.399C307.176 243.543 307.426 236.495 307.426 236.495L294.751 236.116L272.286 235.804C272.923 237.072 275.129 241.543 277.751 247.519C278.687 249.649 279.675 251.972 280.663 254.408C280.832 254.823 281.163 255.658 281.163 255.658C287.449 271.495 291.069 289.888 297.167 297.322C302.122 303.362 318.298 323.764 318.298 323.764L331.958 315.539C331.958 315.539 309.892 286.248 308.864 283.512Z" fill="#404396"/>
<path d="M306.948 252.682C303.343 251.871 300.34 249.543 298.021 245.766C296.517 243.221 295.413 240.459 294.75 237.578L294.467 236.173L295.035 236.059L295.315 237.455C297.991 248.9 304.431 251.521 307.076 252.117L306.948 252.682Z" fill="#19274A"/>
<path d="M270.949 320.133L264.757 322.42L263.364 319.293L263.38 319.288L270.495 317.312C270.495 317.974 270.949 320.133 270.949 320.133Z" fill="#FD8680"/>
<path d="M272.621 329.637L262.773 335.635L255.856 339.847C255.151 339.351 254.597 338.67 254.256 337.878L262.269 332.923C261.926 332.119 261.42 331.395 260.784 330.795C260.147 330.196 259.394 329.734 258.571 329.439C259.214 329.097 260.002 328.692 260.814 328.306C260.969 328.232 261.124 328.158 261.28 328.089C261.28 328.089 262.933 329.849 263.69 329.616C264.239 329.425 264.765 329.17 265.256 328.858C265.615 328.658 265.932 328.39 266.188 328.068C266.58 327.449 265.9 324.883 265.9 324.883C265.935 323.945 264.757 322.422 264.757 322.422L270.948 320.135L272.919 326.342L272.96 326.471L273.417 327.457C273.6 327.852 273.62 328.303 273.47 328.712C273.321 329.12 273.015 329.453 272.621 329.637Z" fill="#FFAA40"/>
<path d="M266.188 328.067C265.932 328.389 265.615 328.657 265.255 328.857C265.208 328.84 265.162 328.818 265.119 328.791C265.117 328.79 265.115 328.79 265.114 328.788C265.09 328.774 265.068 328.759 265.046 328.743C264.929 328.654 264.824 328.548 264.738 328.428C264.719 328.404 264.702 328.379 264.685 328.354C264.638 328.288 264.595 328.219 264.553 328.147C264.531 328.11 264.51 328.074 264.491 328.036C264.443 327.95 264.398 327.859 264.357 327.769C264.329 327.711 264.303 327.655 264.277 327.595C264.251 327.535 264.228 327.482 264.203 327.425C264.179 327.368 264.157 327.313 264.134 327.257C264.09 327.147 264.048 327.042 264.007 326.944C263.986 326.895 263.967 326.849 263.949 326.804C263.946 326.795 263.942 326.786 263.937 326.778C263.927 326.754 263.918 326.731 263.908 326.709C263.884 326.659 263.861 326.613 263.841 326.571C264.511 326.243 265.139 325.836 265.713 325.359C265.835 325.229 265.902 325.058 265.901 324.88C265.901 324.88 266.579 327.449 266.188 328.067Z" fill="#19274A"/>
<path d="M265.255 328.857C264.764 329.169 264.239 329.424 263.69 329.615C262.933 329.847 261.279 328.088 261.279 328.088C262.054 327.727 263.147 326.889 263.793 326.595C263.809 326.588 263.824 326.581 263.84 326.572C263.86 326.614 263.883 326.659 263.907 326.71C263.917 326.732 263.926 326.755 263.936 326.779C263.94 326.787 263.945 326.796 263.948 326.805C263.965 326.85 263.986 326.896 264.006 326.945C264.045 327.043 264.088 327.147 264.133 327.258C264.156 327.313 264.178 327.369 264.202 327.426C264.226 327.482 264.25 327.539 264.276 327.596C264.302 327.653 264.328 327.712 264.356 327.77C264.397 327.86 264.442 327.949 264.49 328.037C264.509 328.075 264.53 328.111 264.552 328.148C264.594 328.22 264.637 328.289 264.683 328.355C264.7 328.38 264.718 328.404 264.737 328.429C264.823 328.549 264.927 328.655 265.045 328.744C265.067 328.76 265.089 328.775 265.112 328.789C265.114 328.791 265.116 328.791 265.118 328.792C265.161 328.818 265.207 328.84 265.255 328.857Z" fill="#19274A"/>
<path d="M272.621 329.637L262.773 335.635L255.856 339.847C255.151 339.351 254.597 338.67 254.256 337.878L262.269 332.923L272.919 326.342L272.96 326.471L273.417 327.457C273.6 327.852 273.62 328.303 273.47 328.712C273.321 329.12 273.015 329.453 272.621 329.637Z" fill="#19274A"/>
<path d="M262.269 332.922L254.256 337.877C253.939 337.195 253.76 336.458 253.729 335.707C253.697 334.956 253.814 334.207 254.072 333.501C254.33 332.795 254.725 332.147 255.234 331.594C255.742 331.041 256.355 330.593 257.037 330.277C257.037 330.277 257.661 329.922 258.571 329.438C259.394 329.733 260.147 330.195 260.784 330.794C261.42 331.394 261.926 332.118 262.269 332.922Z" fill="white"/>
<path d="M337.975 333.352L331.241 320.483L324.022 325.149L323.641 336.436C323.741 334.84 324.341 333.316 325.356 332.08C326.371 330.844 327.749 329.959 329.295 329.55C330.841 329.141 332.477 329.229 333.97 329.802C335.463 330.375 336.738 331.403 337.614 332.741V332.743C337.746 332.94 337.865 333.143 337.975 333.352ZM326.227 325.945L325.919 325.411C325.831 325.259 325.808 325.079 325.854 324.91C325.899 324.74 326.01 324.596 326.162 324.509L329.02 322.859C329.095 322.815 329.178 322.787 329.264 322.776C329.35 322.765 329.438 322.77 329.521 322.793C329.605 322.815 329.683 322.854 329.752 322.907C329.821 322.959 329.879 323.025 329.922 323.1L330.231 323.635C330.274 323.71 330.302 323.793 330.314 323.879C330.325 323.964 330.319 324.052 330.297 324.136C330.274 324.219 330.236 324.298 330.183 324.367C330.13 324.435 330.064 324.493 329.989 324.536L327.129 326.187C327.054 326.23 326.971 326.258 326.885 326.27C326.799 326.281 326.712 326.275 326.628 326.253C326.544 326.23 326.466 326.192 326.397 326.139C326.328 326.086 326.271 326.02 326.227 325.945ZM331.02 326.659L328.16 328.309C328.085 328.353 328.002 328.381 327.916 328.392C327.83 328.403 327.743 328.398 327.659 328.375C327.575 328.353 327.497 328.314 327.428 328.261C327.359 328.209 327.302 328.143 327.258 328.068L326.95 327.535C326.862 327.383 326.839 327.203 326.884 327.033C326.929 326.864 327.04 326.72 327.191 326.632L330.051 324.981C330.127 324.938 330.209 324.91 330.295 324.898C330.381 324.887 330.469 324.893 330.552 324.915C330.636 324.938 330.715 324.976 330.783 325.029C330.852 325.082 330.91 325.148 330.953 325.223L331.262 325.757C331.349 325.909 331.373 326.089 331.328 326.259C331.282 326.428 331.172 326.572 331.02 326.66V326.659Z" fill="#FFAA40"/>
<path d="M331.02 326.66L328.16 328.31C328.085 328.353 328.002 328.381 327.916 328.393C327.83 328.404 327.743 328.398 327.659 328.376C327.575 328.354 327.497 328.315 327.428 328.262C327.359 328.209 327.301 328.144 327.258 328.068L326.949 327.536C326.862 327.384 326.839 327.204 326.884 327.034C326.929 326.865 327.039 326.721 327.191 326.632L330.051 324.982C330.126 324.939 330.209 324.911 330.295 324.899C330.381 324.888 330.468 324.894 330.552 324.916C330.636 324.938 330.714 324.977 330.783 325.03C330.852 325.083 330.909 325.148 330.953 325.224L331.261 325.758C331.349 325.91 331.372 326.09 331.327 326.259C331.282 326.428 331.171 326.572 331.02 326.66Z" fill="#19274A"/>
<path d="M329.988 324.537L327.128 326.187C327.053 326.23 326.97 326.258 326.884 326.27C326.798 326.281 326.711 326.275 326.627 326.253C326.544 326.231 326.465 326.192 326.396 326.139C326.328 326.086 326.27 326.021 326.227 325.945L325.918 325.411C325.831 325.259 325.807 325.079 325.853 324.91C325.898 324.741 326.009 324.597 326.161 324.509L329.02 322.859C329.095 322.816 329.178 322.788 329.264 322.776C329.349 322.765 329.437 322.771 329.521 322.793C329.604 322.815 329.683 322.854 329.751 322.907C329.82 322.96 329.878 323.025 329.921 323.101L330.23 323.635C330.273 323.71 330.301 323.793 330.313 323.879C330.324 323.965 330.318 324.052 330.296 324.136C330.274 324.22 330.235 324.298 330.182 324.367C330.129 324.436 330.064 324.493 329.988 324.537Z" fill="#19274A"/>
<path d="M323.641 336.436H338.841V337.456C338.841 337.935 338.651 338.395 338.312 338.734C337.973 339.073 337.513 339.263 337.034 339.263H325.449C324.97 339.263 324.51 339.073 324.171 338.734C323.832 338.395 323.642 337.935 323.642 337.456V336.436H323.641Z" fill="#19274A"/>
<path d="M315.283 223.433C314.332 224.678 311.01 225.535 306.791 226.122L307.701 237.996C300.45 237.996 263.783 241.168 263.15 240.533C262.85 240.234 262.448 232.74 262.109 224.915C255.769 225.195 230.684 226.302 229.021 226.302C227.118 226.302 227.329 221.226 227.842 219.776C228.361 218.31 247.399 213.137 251.105 212.143C254.462 203.679 261.248 186.704 262.198 185.392C262.839 184.506 266.628 183.643 270.222 183.004C273.736 182.383 277.063 181.977 277.063 181.977C282.003 192.583 289.981 192.038 294.466 182.703C294.466 182.703 296.66 183.294 299.467 184.179C303.66 185.502 309.217 187.48 310.874 189.137C314.23 192.494 318.607 219.082 315.283 223.433Z" fill="#9395D1"/>
<path d="M251.181 212.423L251.03 211.864C251.432 211.755 251.655 211.696 251.655 211.696L251.802 212.256C251.802 212.256 251.58 212.315 251.181 212.423Z" fill="#19274A"/>
<path d="M261.82 224.928C261.446 216.275 261.141 207.097 261.139 207.006L261.718 206.986C261.721 207.078 262.026 216.254 262.399 224.903L261.82 224.928Z" fill="#19274A"/>
<path d="M249.504 216.981L248.965 216.769C248.965 216.769 249.707 214.884 250.836 212.036L251.374 212.25C250.246 215.096 249.504 216.981 249.504 216.981Z" fill="#19274A"/>
<path d="M282.392 227.684C281.67 227.684 281.255 227.68 281.23 227.679L280.943 227.677V221.088L281.129 221.017C289.198 217.912 301.367 213.156 302.23 212.625C302.463 212.06 302.377 207.703 302.155 203.748L302.734 203.715C302.917 206.98 303.149 212.532 302.65 213.032C302.168 213.514 286.605 219.53 281.524 221.486V227.103C283.679 227.113 297.479 227.126 306.753 225.837L306.832 226.41C298.371 227.586 286.175 227.683 282.392 227.684Z" fill="#19274A"/>
<path d="M271.807 233.72C271.268 233.438 266.515 230.941 265.891 230.315L266.3 229.905C266.726 230.331 269.987 232.114 272.076 233.206L271.807 233.72Z" fill="#19274A"/>
<path d="M301.255 229.054L296.496 233.246L296.879 233.681L301.638 229.488L301.255 229.054Z" fill="#19274A"/>
<path d="M290.42 174.434C290.283 174.416 290.143 174.391 289.998 174.357C289.184 175.605 286.511 179.444 283.85 180.303C283.448 180.44 283.022 180.496 282.599 180.466C275.362 179.858 276.418 170.646 276.762 168.505C276.957 168.607 276.643 169.381 277.166 169.264C278.453 168.975 281.311 166.608 281.44 166.5C281.928 166.693 282.409 166.889 282.883 167.087C284.135 167.608 285.336 168.148 286.485 168.708C287.483 169.193 288.44 169.692 289.354 170.206C289.962 169.797 291.193 169.106 292.338 169.301C292.724 169.365 293.084 169.536 293.378 169.793C293.424 169.831 293.469 169.873 293.513 169.916C294.742 171.145 293.842 174.908 290.42 174.434Z" fill="#FD8680"/>
<path d="M281.6 166.74L281.423 166.475L281.649 166.7L281.6 166.74ZM281.439 166.499L281.239 166.291L281.439 166.499Z" fill="#2DEA43"/>
<path d="M281.439 166.499C281.31 166.606 278.453 168.975 277.166 169.263C276.642 169.379 276.956 168.606 276.762 168.504C275.976 168.086 273.891 171.098 273.49 170.325C273.09 169.552 276.02 167.393 275.639 166.686C275.089 165.671 271.056 168.329 271.056 167.26C271.056 165.682 275.778 165.001 276.972 164.856C277.701 165.107 278.418 165.361 279.121 165.617C279.91 165.906 280.682 166.2 281.439 166.499Z" fill="#8E3332"/>
<path d="M292.338 169.3C291.193 169.103 289.962 169.796 289.354 170.205C288.441 169.691 287.485 169.192 286.485 168.707C287.093 167.468 288.14 165.776 288.737 164.838C290.649 166.123 292.132 167.654 292.338 169.3Z" fill="#9395D1"/>
<path d="M280.896 161.327C280.211 162.716 279.617 164.15 279.12 165.617C278.417 165.36 277.701 165.106 276.971 164.857C276.971 164.857 277.746 161.44 278.999 161.054C279.328 161.011 279.663 161.032 279.984 161.116C280.25 161.165 280.556 161.236 280.896 161.327Z" fill="#404396"/>
<path d="M284.776 162.708C284.07 164.134 283.438 165.595 282.882 167.086C282.409 166.888 281.928 166.692 281.439 166.499C280.683 166.2 279.91 165.906 279.12 165.616C279.617 164.149 280.211 162.716 280.896 161.326C282.221 161.692 283.518 162.154 284.776 162.708Z" fill="#9395D1"/>
<path d="M288.736 164.837C288.139 165.775 287.091 167.467 286.484 168.706C285.336 168.148 284.136 167.607 282.882 167.085C283.438 165.594 284.07 164.133 284.776 162.707C286.156 163.298 287.482 164.011 288.736 164.837Z" fill="#404396"/>
<path d="M295.143 165.377C295.07 163.865 294.323 162.018 292.901 160.503C292.344 159.907 291.707 159.39 291.009 158.967C289.641 158.146 288.089 157.678 286.495 157.606C282.68 157.393 280.561 160.212 279.984 161.116C280.25 161.165 280.556 161.236 280.896 161.326C282.221 161.693 283.518 162.155 284.776 162.709C286.157 163.3 287.482 164.012 288.737 164.837C290.648 166.123 292.131 167.653 292.338 169.299C292.723 169.363 293.084 169.534 293.378 169.791C293.897 168.877 295.194 166.473 295.143 165.377ZM287.797 162.934C287.354 162.876 284.618 161.321 284.692 160.686C284.736 160.311 285.664 159.568 286.036 159.726C286.409 159.885 288.9 160.8 288.9 161.359C288.9 161.917 288.242 162.992 287.797 162.934Z" fill="#404396"/>
<path d="M292.901 160.502C292.344 159.906 291.708 159.39 291.01 158.966C291.113 158.819 291.245 158.695 291.399 158.602C291.552 158.509 291.724 158.449 291.902 158.427C292.08 158.404 292.261 158.418 292.433 158.469C292.605 158.52 292.764 158.607 292.901 158.723C294.029 159.525 292.901 160.502 292.901 160.502Z" fill="#9395D1"/>
<path d="M288.901 161.358C288.901 161.917 288.243 162.991 287.798 162.934C287.354 162.876 284.619 161.32 284.693 160.685C284.737 160.31 285.665 159.568 286.037 159.726C286.41 159.884 288.901 160.8 288.901 161.358Z" fill="#FEFEFE"/>
<path d="M290.478 172.438L290.015 172.09C290.315 171.697 290.731 171.408 291.205 171.264C291.678 171.119 292.184 171.126 292.653 171.284L292.461 171.83C292.108 171.714 291.728 171.711 291.373 171.82C291.018 171.928 290.705 172.144 290.478 172.438Z" fill="#CC5754"/>
<path d="M290.419 174.434V181.526C288.682 185.052 286.448 186.312 283.716 185.306L283.849 180.303C286.511 179.443 289.184 175.604 289.997 174.356C290.142 174.39 290.282 174.416 290.419 174.434Z" fill="#FD8680"/>
<path d="M283.849 180.303C285.346 179.819 286.847 178.392 288.019 177.016C288.019 177.016 287.669 180.475 283.716 182.642L283.849 180.303Z" fill="#CC5754"/>
<path d="M229.536 219.315C229.536 219.315 221.547 217.484 221.816 218.226C222.085 218.968 224.548 219.575 224.548 219.575L223.908 220.76C223.908 220.76 218.149 221.744 218.085 222.562C218.02 223.379 223.002 222.541 223.002 222.541C223.002 222.541 218.855 223.859 218.448 224.857C218.041 225.856 223.298 224.316 223.298 224.316C223.298 224.316 219.694 225.677 219.746 226.401C219.797 227.125 229.023 225.767 229.023 225.767L229.536 219.315Z" fill="#FD8680"/>
<path d="M277.605 191.557H220.349V237.742H277.605V191.557Z" fill="#E57D00"/>
<path d="M248.977 191.557H220.349V237.742H248.977V191.557Z" fill="#FFAA40"/>
<path d="M226.987 221.024H220.349V224.991H226.987V221.024Z" fill="#E57D00"/>
<path d="M277.605 198.356H270.967V201.473H277.605V198.356Z" fill="#FFAA40"/>
<path d="M281.803 221.202C281.803 221.202 273.813 219.37 274.082 220.113C274.351 220.855 276.815 221.462 276.815 221.462L276.174 222.647C276.174 222.647 270.416 223.631 270.351 224.449C270.286 225.266 275.268 224.428 275.268 224.428C275.268 224.428 271.122 225.745 270.715 226.743C270.308 227.74 275.564 226.201 275.564 226.201C275.564 226.201 271.96 227.562 272.012 228.286C272.064 229.01 281.289 227.653 281.289 227.653L281.803 221.202Z" fill="#FD8680"/>
<path d="M276.665 244.394L276.132 244.622L280.898 255.768L281.431 255.54L276.665 244.394Z" fill="#19274A"/>
<path d="M331.24 320.483L329.377 317.092L321.104 322.073L324.022 325.148L331.24 320.483Z" fill="#FD8680"/>
<path d="M127.994 214.606C131.998 216.607 136.897 213.944 142.756 211.032L143.397 240.619H158.138V187.944C155.079 187.985 148.428 188.304 145.574 190.206C142.765 192.078 137.254 197.984 131.879 203.262L125.599 190.206H119.066C119.066 190.206 123.219 212.218 127.994 214.606Z" fill="#404396"/>
<path d="M171.371 188.26V240.588C171.371 240.588 183.054 240.796 183.683 240.167C184.042 239.808 184.127 228.589 184.135 219.073C186.796 223.313 189.358 227.117 191.306 229.93C192.069 234.377 196.498 251.302 196.498 252.145C196.498 253.065 201.356 252.554 202.276 252.145C202.965 251.839 201.021 229.614 201.021 227.27C201.021 224.926 190.424 201.138 187.662 196.614C185.349 192.829 174.762 189.308 171.371 188.26ZM175.057 208.73H180.751V210.211H175.057L175.057 208.73Z" fill="#404396"/>
<path d="M191.021 229.981C190.958 229.667 190.92 229.348 190.905 229.028H191.484C191.499 229.315 191.535 229.599 191.593 229.88L191.021 229.981Z" fill="#19274A"/>
<path d="M194.59 235.062C194.576 235.043 193.169 233.131 191.068 230.095L191.545 229.766C193.64 232.794 195.042 234.7 195.056 234.719L194.59 235.062Z" fill="#19274A"/>
<path d="M183.846 219.072V219.07H184.425L183.846 219.072Z" fill="#19274A"/>
<path d="M183.846 219.073V219.071C183.85 212.059 183.813 205.891 183.812 205.83L184.392 205.826C184.392 205.888 184.43 212.057 184.425 219.071L183.846 219.073Z" fill="#19274A"/>
<path d="M142.851 203.643L142.271 203.656L142.495 213.474L143.074 213.461L142.851 203.643Z" fill="#19274A"/>
<path d="M158.138 190.208V240.62H171.371V190.208C171.152 190.492 170.912 190.758 170.651 191.004C168.983 192.614 164.502 195.658 158.138 190.208Z" fill="#7B7DB5"/>
<path d="M180.751 208.73H175.057V210.212H180.751V208.73Z" fill="#E2DAF1"/>
<path d="M171.371 188.259L168.965 187.984L161.092 187.88L158.138 187.946L158.088 192.645L165.339 197.928L171.555 192.438L171.371 188.259Z" fill="#5A174A"/>
<path d="M167.09 247.629L169.717 240.368L181.774 240.22L184.54 324.482H172.4C172.4 324.482 169.375 297.589 164.296 272.044L164.246 271.784L162.127 261.369L162.123 261.342L162.109 261.279L166.977 247.931L167.09 247.629Z" fill="#9395D1"/>
<path d="M126.083 325.116L139.771 327.965L162.123 261.343L166.978 247.931L167.088 247.631L169.716 240.37L144.922 240.221L142.242 253.853L126.083 325.116Z" fill="#9395D1"/>
<path d="M185.196 335.786H196.084C196.084 334.342 195.511 332.957 194.49 331.936C193.469 330.915 192.084 330.342 190.64 330.342C189.196 330.342 187.812 330.915 186.791 331.936C185.77 332.957 185.196 334.342 185.196 335.786Z" fill="white"/>
<path d="M124.917 339.052H139.377C139.282 337.533 138.711 336.083 137.746 334.908C136.78 333.732 135.469 332.889 133.998 332.501C132.527 332.112 130.971 332.196 129.55 332.741C128.13 333.285 126.917 334.264 126.083 335.537V335.539C125.394 336.588 124.992 337.799 124.917 339.052Z" fill="white"/>
<path d="M185.196 335.785H196.084C196.086 336.692 195.86 337.585 195.426 338.382H175.578V335.785H185.196Z" fill="#19274A"/>
<path d="M174.572 327.16L175.576 335.786H185.196C185.196 334.342 185.769 332.958 186.79 331.937C187.811 330.916 189.195 330.343 190.639 330.343C190.639 330.343 188.656 330.177 186.589 330.154C186.427 330.154 186.263 330.151 186.101 330.154C186.101 330.154 185.379 332.335 184.633 332.439C184.082 332.493 183.526 332.483 182.978 332.41C182.588 332.38 182.207 332.276 181.857 332.101C181.272 331.725 181.774 329.743 181.774 329.743C181.368 328.947 181.774 327.161 181.774 327.161L174.572 327.16Z" fill="#FFAC32"/>
<path d="M126.083 335.538C126.727 334.554 127.601 333.742 128.629 333.171C129.657 332.601 130.808 332.289 131.984 332.262C133.159 332.236 134.324 332.496 135.376 333.02C136.429 333.544 137.338 334.317 138.025 335.27L137.384 329.671H127.334L126.083 335.538Z" fill="#FFAC32"/>
<path d="M181.617 255.875C181.552 255.833 175.039 251.482 174.031 240.34L174.608 240.288C175.59 251.153 181.869 255.349 181.933 255.39L181.617 255.875Z" fill="#19274A"/>
<path d="M142.383 254.103L142.102 253.597C149.948 249.245 152.575 240.423 152.6 240.334L153.157 240.495C153.13 240.587 150.434 249.638 142.383 254.103Z" fill="#19274A"/>
<path d="M181.858 332.101C182.208 332.275 182.588 332.38 182.978 332.409C183.534 331.853 183.744 330.682 183.812 330.177C183.249 330.213 182.684 330.18 182.129 330.08C181.971 330.018 181.844 329.897 181.774 329.742C181.774 329.742 181.272 331.724 181.858 332.101Z" fill="#404396"/>
<path d="M182.979 332.409C183.527 332.482 184.083 332.492 184.634 332.438C185.38 332.335 186.101 330.153 186.101 330.153C185.291 330.153 184.488 330.173 183.812 330.178C183.745 330.682 183.534 331.853 182.979 332.409Z" fill="#404396"/>
<path d="M137.033 341.398H127.261C126.639 341.398 126.043 341.151 125.603 340.712C125.163 340.272 124.916 339.675 124.916 339.053H139.377C139.377 339.675 139.13 340.272 138.69 340.712C138.25 341.151 137.654 341.398 137.032 341.398H137.033Z" fill="#19274A"/>
<path d="M161.15 187.985C163.94 190.857 166.521 190.857 168.894 187.985L168.48 182.976C167.413 183.368 166.284 183.563 165.147 183.551C164.074 183.547 163.018 183.292 162.063 182.805L161.15 187.985Z" fill="#FD8680"/>
<path d="M168.291 183.045C167.395 183.812 166.339 184.368 165.2 184.674C164.061 184.981 162.869 185.028 161.709 184.814L162.063 182.805L168.291 183.045Z" fill="#CC5754"/>
<path d="M156.045 171.027C156.537 171.284 156.965 171.649 157.296 172.094C161.509 171.158 163.628 164.9 163.628 164.9C165.543 172.768 172.352 173.222 172.352 173.222C172.751 172.733 173.713 171.731 174.934 171.687C174.488 169.291 173.135 164.492 169.275 162.461C167.694 161.658 165.908 161.348 164.148 161.572C162.657 161.689 161.224 162.206 160.001 163.067C157.352 164.977 156.376 168.308 156.045 171.027Z" fill="#8E3332"/>
<path d="M153.95 175.641C154.263 176.389 154.762 177.044 155.401 177.543C156.04 178.043 156.796 178.37 157.598 178.494C158.616 180.057 160.108 181.829 162.062 182.804C163.017 183.292 164.074 183.547 165.146 183.55C166.283 183.562 167.413 183.368 168.48 182.975C170.4 182.252 171.932 180.859 173.089 178.879C173.575 178.99 174.082 178.969 174.558 178.819C175.033 178.669 175.46 178.394 175.794 178.024C177.417 176.4 177.969 172.851 176.074 171.935C175.72 171.759 175.328 171.673 174.933 171.686C173.714 171.731 172.75 172.733 172.352 173.22C172.352 173.22 165.543 172.767 163.627 164.898C163.627 164.898 161.508 171.156 157.295 172.093C156.964 171.647 156.536 171.282 156.044 171.025C155.867 170.941 155.674 170.896 155.478 170.893C154.016 170.895 152.705 172.692 153.95 175.641Z" fill="#FD8680"/>
<path d="M173.49 176.544L172.955 176.321C173.089 175.958 173.306 175.631 173.589 175.367C173.872 175.103 174.212 174.908 174.583 174.798L174.743 175.354C174.456 175.441 174.192 175.594 173.975 175.8C173.757 176.007 173.591 176.262 173.49 176.544Z" fill="#CC5754"/>
<path d="M174.743 175.353L174.583 174.797C174.877 174.711 175.184 174.681 175.489 174.71L175.414 175.284C175.188 175.267 174.96 175.29 174.743 175.353Z" fill="#CC5754"/>
<path d="M157.508 175.331C157.001 174.289 155.158 174.037 155.14 174.034L155.214 173.46C155.301 173.472 157.386 173.755 158.029 175.077L157.508 175.331Z" fill="#CC5754"/>
<path d="M155.69 175.463L155.266 175.069C155.299 175.033 156.091 174.187 156.952 174.094L157.015 174.669C156.477 174.728 155.876 175.263 155.69 175.463Z" fill="#CC5754"/>
<path d="M174.339 175.913C174.149 175.808 173.986 175.658 173.866 175.477L174.36 175.175C174.432 175.275 174.526 175.358 174.635 175.416L174.339 175.913Z" fill="#19274A"/>
<path d="M174.944 176.18C174.732 176.116 174.529 176.027 174.338 175.915L174.636 175.418C174.784 175.504 174.941 175.573 175.104 175.624L174.944 176.18Z" fill="#19274A"/>
<path d="M174.374 175.076V175.075H174.953L174.374 175.076Z" fill="#19274A"/>
<path d="M174.197 175.665V175.664H174.776L174.197 175.665Z" fill="#CC5754"/>
<path d="M160.001 163.066C161.224 162.205 162.656 161.688 164.148 161.57C165.907 161.347 167.694 161.656 169.275 162.46C170.206 160.724 170.46 158.705 169.987 156.793C169.279 154.042 166.459 152.141 164.055 152.141C160.527 152.141 158.409 155.799 158.278 157.448C158.122 159.471 158.737 161.478 160.001 163.066Z" fill="#8E3332"/>
<path d="M125.599 190.208C125.599 190.208 126.802 182.493 126.077 182.804C125.352 183.115 124.938 185.497 124.938 185.497L123.695 184.979C123.695 184.979 122.245 179.592 121.416 179.592C120.587 179.592 121.83 184.253 121.83 184.253C121.83 184.253 120.173 180.42 119.137 180.109C118.102 179.799 120.07 184.668 120.07 184.668C120.07 184.668 118.412 181.353 117.687 181.456C116.962 181.56 119.067 190.207 119.067 190.207L125.599 190.208Z" fill="#FD8680"/>
<path d="M196.497 252.146L195.691 258.323C195.691 258.323 196.676 258.737 196.935 257.753C197.194 256.769 197.401 255.37 197.401 255.37L198.488 256.406L197.815 262C197.815 262 198.281 262.156 198.696 261.534C199.11 260.913 200.146 256.873 200.146 256.873L199.783 261.017C199.783 261.017 200.042 261.327 200.664 260.239C201.285 259.152 201.7 256.769 201.7 256.769L201.648 259.514C201.932 259.357 202.174 259.133 202.354 258.863C202.534 258.593 202.647 258.283 202.684 257.961C202.788 256.873 202.425 251.952 202.425 251.952L196.497 252.146Z" fill="#FD8680"/>
<path d="M127.334 329.671L127.739 325.46L137.608 327.565L137.384 329.671H127.334Z" fill="#FD8680"/>
<path d="M174.573 327.159L174.124 324.481H182.11L181.775 327.159H174.573Z" fill="#FD8680"/>
</svg>
