<svg width="64" height="64" viewBox="0 0 64 64" fill="none" xmlns="http://www.w3.org/2000/svg">
<circle cx="25" cy="26" r="25" fill="#FFF7E4"/>
<path d="M36.5796 43.5597C36.4201 43.5789 36.259 43.5789 36.0996 43.5597L34.0996 43.0597C30.9386 42.272 28.0506 40.6412 25.7436 38.3412C23.4365 36.0412 21.7969 33.1582 20.9996 29.9997L20.4996 27.9997C20.4149 27.665 20.4183 27.3142 20.5094 26.9812C20.6005 26.6483 20.7763 26.3446 21.0196 26.0997L33.4196 13.7197C40.3922 6.74613 49.5964 2.44848 59.4196 1.57967L60.5396 1.47967C60.8053 1.46485 61.0713 1.5032 61.322 1.5925C61.5727 1.68179 61.803 1.82021 61.9996 1.99967C62.208 2.20729 62.368 2.45833 62.4682 2.7349C62.5685 3.01146 62.6065 3.30673 62.5796 3.59967V4.71967C61.7007 14.5401 57.4046 23.741 50.4396 30.7197L37.9996 42.9797C37.8127 43.165 37.591 43.3117 37.3474 43.4112C37.1037 43.5107 36.8428 43.5612 36.5796 43.5597ZM24.5796 28.0197L24.7996 28.9397C25.4171 31.4018 26.6925 33.6497 28.4891 35.4429C30.2858 37.236 32.5362 38.5069 34.9996 39.1197L35.8996 39.3397L47.4796 27.7597C53.4698 21.7837 57.3101 13.9906 58.3996 5.59967C50.0186 6.66719 42.2268 10.4787 36.2396 16.4397L24.5796 28.0197Z" fill="#FFB431"/>
<path d="M56.1001 21.0396C55.9145 21.0689 55.7256 21.0689 55.5401 21.0396C52.6549 20.0459 50.0633 18.3479 48.0001 16.0996C45.7145 13.9438 44.0205 11.2374 43.0801 8.23964C42.9384 7.73046 43.004 7.18589 43.2626 6.72494C43.5211 6.26399 43.9517 5.92413 44.4601 5.77964C44.7135 5.70647 44.9789 5.68417 45.241 5.71401C45.5031 5.74385 45.7567 5.82525 45.9872 5.95352C46.2178 6.08179 46.4206 6.2544 46.5841 6.46139C46.7477 6.66839 46.8686 6.90569 46.9401 7.15964C47.6914 9.49664 49.0269 11.6032 50.8201 13.2796C52.468 15.0406 54.5308 16.3608 56.8201 17.1196C57.3505 17.1966 57.8286 17.481 58.1493 17.9105C58.47 18.3399 58.607 18.8792 58.5301 19.4096C58.4531 19.9401 58.1687 20.4182 57.7392 20.7389C57.3097 21.0596 56.7705 21.1966 56.2401 21.1196L56.1001 21.0396Z" fill="#FFB431"/>
<path d="M17.3796 48.6196C16.8561 48.6016 16.3606 48.379 15.9996 47.9996C15.6271 47.6249 15.418 47.118 15.418 46.5896C15.418 46.0612 15.6271 45.5543 15.9996 45.1796L30.3796 30.7796C30.566 30.5931 30.7874 30.4452 31.0311 30.3443C31.2747 30.2434 31.5358 30.1914 31.7996 30.1914C32.0633 30.1914 32.3244 30.2434 32.5681 30.3443C32.8117 30.4452 33.0331 30.5931 33.2196 30.7796C33.406 30.9661 33.554 31.1874 33.6549 31.4311C33.7558 31.6747 33.8077 31.9359 33.8077 32.1996C33.8077 32.4633 33.7558 32.7244 33.6549 32.9681C33.554 33.2117 33.406 33.4331 33.2196 33.6196L18.7796 47.9996C18.5984 48.1898 18.3815 48.3425 18.1412 48.4489C17.901 48.5553 17.6422 48.6133 17.3796 48.6196Z" fill="#FFB431"/>
<path d="M3.99991 33.659C3.60266 33.6614 3.21373 33.5453 2.88269 33.3257C2.55165 33.1061 2.2935 32.7929 2.14117 32.426C1.98884 32.0591 1.94921 31.6552 2.02735 31.2657C2.10549 30.8762 2.29785 30.5188 2.57991 30.239L11.9999 20.919C13.7026 19.196 15.7783 17.8869 18.0669 17.0928C20.3555 16.2988 22.7959 16.0409 25.1999 16.339L31.0599 17.0391C31.4349 17.083 31.7897 17.2321 32.0835 17.4692C32.3773 17.7064 32.5979 18.0218 32.7199 18.379C32.8285 18.7246 32.8412 19.0932 32.7567 19.4455C32.6722 19.7977 32.4935 20.1204 32.2399 20.379L23.8599 28.7591C23.5829 29.0427 23.2279 29.2376 22.8399 29.319C15.9999 30.7591 4.65991 33.559 4.53991 33.599C4.36348 33.6435 4.1818 33.6637 3.99991 33.659ZM23.1999 20.219C20.0461 20.2429 17.0286 21.5075 14.7999 23.739L10.5199 27.9991C13.9799 27.159 18.1199 26.2191 21.4599 25.5391L26.4999 20.479L24.7199 20.2791C24.2349 20.2294 23.7473 20.2094 23.2599 20.219H23.1999Z" fill="#FFB431"/>
<path d="M32.3397 62.0001C31.9961 61.999 31.6586 61.9095 31.3597 61.7401C30.9792 61.5256 30.6794 61.1925 30.5061 60.7916C30.3327 60.3908 30.2954 59.9442 30.3997 59.5201C30.3997 59.4001 33.2397 48.1601 34.6197 41.2201C34.7011 40.8321 34.8961 40.4771 35.1797 40.2001L43.5597 31.8201C43.8183 31.5664 44.141 31.3878 44.4933 31.3033C44.8455 31.2187 45.2141 31.2315 45.5597 31.3401C45.917 31.4621 46.2324 31.6827 46.4695 31.9765C46.7066 32.2702 46.8558 32.6251 46.8997 33.0001L47.5997 38.8601C47.8827 41.2492 47.6232 43.6714 46.8406 45.9464C46.0581 48.2214 44.7725 50.2906 43.0797 52.0001L33.7597 61.3401C33.5796 61.5399 33.361 61.7014 33.117 61.8148C32.873 61.9282 32.6086 61.9912 32.3397 62.0001ZM38.3397 42.6001C37.7397 45.8801 36.7997 50.0001 35.9997 53.4801L40.2997 49.2001C41.5952 47.9049 42.5771 46.3302 43.1699 44.5968C43.7627 42.8635 43.9508 41.0174 43.7197 39.2001L43.5197 37.4201L38.3397 42.6001Z" fill="#FFB431"/>
<path d="M40.8205 29.1799C39.6304 29.1829 38.4664 28.8319 37.4764 28.1715C36.4863 27.5112 35.715 26.5713 35.2605 25.4715C34.806 24.3717 34.6888 23.1615 34.9239 21.9949C35.1589 20.8283 35.7355 19.758 36.5805 18.9199C37.7284 17.8326 39.2494 17.2266 40.8305 17.2266C42.4116 17.2266 43.9326 17.8326 45.0805 18.9199C45.6398 19.4773 46.0837 20.1397 46.3865 20.869C46.6893 21.5983 46.8452 22.3802 46.8452 23.1699C46.8452 23.9596 46.6893 24.7415 46.3865 25.4708C46.0837 26.2002 45.6398 26.8625 45.0805 27.4199C44.5215 27.9796 43.8573 28.4233 43.1262 28.7253C42.3951 29.0274 41.6115 29.1819 40.8205 29.1799ZM40.8205 21.1799C40.2958 21.1821 39.793 21.3904 39.4205 21.7599C39.048 22.1347 38.8389 22.6416 38.8389 23.1699C38.8389 23.6983 39.048 24.2052 39.4205 24.5799C39.7952 24.9524 40.3021 25.1615 40.8305 25.1615C41.3588 25.1615 41.8658 24.9524 42.2405 24.5799C42.5157 24.2992 42.702 23.9435 42.7763 23.5574C42.8505 23.1713 42.8092 22.7719 42.6577 22.4091C42.5062 22.0464 42.2511 21.7363 41.9243 21.5176C41.5976 21.299 41.2136 21.1816 40.8205 21.1799Z" fill="#FFB431"/>
<path d="M4 61.999C3.46957 61.999 2.96086 61.7883 2.58579 61.4132C2.21071 61.0381 2 60.5294 2 59.999C2 38.919 16.6 32.419 17.22 32.159C17.4636 32.0444 17.7277 31.9802 17.9967 31.9701C18.2657 31.9601 18.5339 32.0045 18.7854 32.1006C19.0368 32.1967 19.2662 32.3425 19.4599 32.5294C19.6537 32.7163 19.8076 32.9403 19.9127 33.1882C20.0178 33.436 20.0717 33.7025 20.0713 33.9716C20.0709 34.2408 20.0162 34.5071 19.9105 34.7546C19.8047 35.0021 19.6501 35.2257 19.4558 35.4121C19.2616 35.5984 19.0317 35.7436 18.78 35.839C18.3 35.999 6.92 41.239 6 57.999C22.7 57.139 27.88 45.759 28.1 45.259C28.2037 45.0174 28.3541 44.7985 28.5424 44.615C28.7307 44.4314 28.9533 44.2868 29.1975 44.1893C29.4418 44.0918 29.7028 44.0433 29.9657 44.0467C30.2287 44.0501 30.4884 44.1052 30.73 44.209C30.9716 44.3127 31.1905 44.463 31.374 44.6514C31.5575 44.8397 31.7022 45.0623 31.7997 45.3065C31.8972 45.5507 31.9456 45.8118 31.9423 46.0747C31.9389 46.3377 31.8837 46.5974 31.78 46.839C31.58 47.399 25.08 61.999 4 61.999Z" fill="#FFB431"/>
</svg>
