<svg width="492" height="362" viewBox="0 0 492 362" fill="none" xmlns="http://www.w3.org/2000/svg">
<path d="M56.0389 352.691L435.792 349.498C435.792 349.498 531.974 318.579 472.702 248.348C430.468 198.306 388.887 215.937 399.591 142.586C423.725 -22.8019 187.726 -36.7151 142.637 63.7959C91.5297 177.722 117.083 193.338 45.7467 204.34C-25.5899 215.342 -6.77944 353.047 56.0389 352.691Z" fill="#EEEEF5"/>
<path d="M91.5299 240.896C111.131 240.896 127.021 237.718 127.021 233.797C127.021 229.877 111.131 226.699 91.5299 226.699C71.9289 226.699 56.0391 229.877 56.0391 233.797C56.0391 237.718 71.9289 240.896 91.5299 240.896Z" fill="#404396"/>
<path d="M109.824 335.83C109.772 340.504 109.504 344.877 109.175 348.573H95.7419C89.6145 341.421 84.196 332.767 80.2995 324.284C78.7228 320.885 77.3716 317.385 76.2546 313.808C75.1844 310.458 74.4694 307.004 74.1215 303.504C73.7493 299.171 74.2699 295.494 75.8799 292.891C78.013 289.451 82.0594 287.885 88.4828 289.159C89.4725 289.353 90.4465 289.62 91.3972 289.957V289.961C92.7207 290.419 93.9899 291.02 95.1818 291.755C97.1086 292.953 98.8312 294.451 100.284 296.193C102.475 298.784 104.193 301.911 105.526 305.383C105.73 305.9 105.923 306.425 106.103 306.957C107.204 310.233 108.026 313.595 108.562 317.009C108.613 317.326 108.666 317.643 108.714 317.962C108.774 318.355 108.829 318.751 108.882 319.148C109.421 323.204 109.727 327.287 109.799 331.378C109.831 332.883 109.839 334.372 109.824 335.83Z" fill="#404396"/>
<path d="M104.322 348.611C104.073 347.723 103.809 346.799 103.532 345.839L103.441 345.524C102.39 341.899 101.322 338.332 100.267 334.923C99.3962 332.114 98.5081 329.34 97.6283 326.675C96.3542 322.832 95.1639 319.403 93.9893 316.191C92.3877 311.81 90.8166 307.834 89.3194 304.377C86.2983 297.398 83.48 292.296 80.9424 289.214L81.1649 289.031C83.7195 292.135 86.552 297.26 89.584 304.263C91.083 307.725 92.6569 311.705 94.2602 316.093C95.4361 319.307 96.6272 322.739 97.9022 326.586C98.7831 329.252 99.6715 332.028 100.542 334.838C101.599 338.25 102.667 341.818 103.719 345.447L103.809 345.762C104.085 346.722 104.351 347.647 104.6 348.536L104.322 348.611Z" fill="black"/>
<path d="M107.578 359.477L107.3 359.551L107.372 359.823L107.651 359.749L107.578 359.477Z" fill="black"/>
<path d="M89.5598 304.6L75.6084 292.853L75.7943 292.633L89.3448 304.042L91.2548 289.936L91.5402 289.974L89.5598 304.6Z" fill="black"/>
<path d="M94.2081 316.368L74.042 303.628L74.1956 303.384L94.0435 315.923L100.247 295.83L100.522 295.915L94.2081 316.368Z" fill="black"/>
<path d="M97.8392 326.841L76.1787 313.927L76.3263 313.68L97.6879 326.416L105.393 305.324L105.664 305.423L97.8392 326.841Z" fill="black"/>
<path d="M100.464 335.077L80.2314 324.412L80.3661 324.157L100.346 334.689L108.756 319.078L109.009 319.215L100.464 335.077Z" fill="black"/>
<path d="M103.628 345.67L87.4072 337.505L87.5367 337.247L103.532 345.298L109.696 336.219L109.935 336.381L103.628 345.67Z" fill="black"/>
<path d="M111.401 334.157C111.401 334.157 76.5592 276.889 107.797 264.474C139.035 252.06 119.009 326.548 111.401 334.157Z" fill="#404396"/>
<path d="M111.058 333.978C111.034 333.823 108.723 318.347 107.692 301.973C106.308 279.953 107.779 266.885 112.067 263.131L112.256 263.348C102.18 272.171 111.25 333.318 111.342 333.935L111.058 333.978Z" fill="black"/>
<path d="M108.001 274.923L103.862 266.466L104.121 266.34L108.079 274.426L118.176 263.955L118.384 264.155L108.001 274.923Z" fill="black"/>
<path d="M107.323 285.605L107.236 285.463L98.6309 271.43L98.8765 271.279L107.395 285.17L123.494 271.716L123.679 271.937L107.323 285.605Z" fill="black"/>
<path d="M107.558 297.502L94.9434 281.57L95.1694 281.391L107.605 297.097L124.65 283.558L124.829 283.784L107.558 297.502Z" fill="black"/>
<path d="M108.353 309.34L108.268 309.257L96.042 297.404L96.2423 297.197L108.382 308.967L123.105 298.502L123.272 298.737L108.353 309.34Z" fill="black"/>
<path d="M109.156 317.815L98.8203 307.304L99.0258 307.102L109.189 317.438L120.903 309.036L121.071 309.27L109.156 317.815Z" fill="black"/>
<path d="M140.553 323.211C139.663 326.396 138.479 329.492 137.016 332.458C134.108 338.429 130.228 343.874 125.535 348.572H105.634C105.482 347.371 105.342 346.101 105.23 344.78V344.776C105.19 344.267 105.15 343.747 105.115 343.222C104.755 337.764 104.887 331.56 106.204 325.617V325.613C106.26 325.365 106.317 325.121 106.377 324.872C106.55 324.155 106.738 323.443 106.95 322.739C107.423 321.106 108.014 319.509 108.716 317.961C108.796 317.781 108.88 317.597 108.969 317.416C109.017 317.308 109.069 317.204 109.121 317.096C109.473 316.375 109.849 315.666 110.262 314.974C112.323 311.414 115.176 308.378 118.601 306.1C119.729 305.349 120.911 304.683 122.138 304.106C123.077 303.662 124.038 303.267 125.017 302.92C126.851 302.238 128.767 301.796 130.716 301.607C133.271 301.391 135.361 301.831 137.015 302.789C139.182 304.042 140.599 306.189 141.332 308.936C142.357 312.779 142.041 317.797 140.553 323.211Z" fill="#7B7DB5"/>
<path d="M111.737 348.622L111.466 348.525C111.892 347.329 112.361 346.051 112.86 344.726C113.808 342.218 114.794 339.764 115.79 337.433C117.14 334.262 118.582 331.13 120.079 328.126C122.735 322.757 125.751 317.573 129.107 312.611C131.475 309.128 134.082 305.813 136.909 302.691L137.122 302.886C134.304 305.998 131.705 309.301 129.345 312.773C125.996 317.725 122.987 322.897 120.336 328.255C118.843 331.253 117.403 334.379 116.055 337.546C115.06 339.874 114.076 342.325 113.13 344.829C112.632 346.151 112.163 347.427 111.737 348.622Z" fill="black"/>
<path d="M129.049 312.937L130.573 301.586L130.858 301.624L129.394 312.526L141.288 308.797L141.374 309.072L129.049 312.937Z" fill="black"/>
<path d="M120.077 328.371L118.456 306.107L118.744 306.086L120.34 328.01L140.518 323.071L140.586 323.352L120.077 328.371Z" fill="black"/>
<path d="M112.899 344.938L112.858 344.824L106.068 325.661L106.34 325.564L113.089 344.613L131.529 341.386L131.579 341.67L112.899 344.938Z" fill="black"/>
<path d="M106.686 348.629L105.085 344.781L105.234 344.778L105.362 344.725L106.952 348.517L106.686 348.629Z" fill="black"/>
<path d="M115.817 337.659L115.782 337.521L110.119 315.01L110.399 314.939L116.027 337.313L136.984 332.319L137.051 332.599L115.817 337.659Z" fill="black"/>
<path d="M380.261 337.607C380.209 342.281 379.941 346.654 379.612 350.35H366.179C360.052 343.198 354.634 334.544 350.737 326.061C349.16 322.662 347.809 319.162 346.692 315.585C345.622 312.235 344.907 308.781 344.559 305.281C344.187 300.948 344.707 297.272 346.318 294.669C348.451 291.228 352.497 289.663 358.92 290.936C359.91 291.13 360.885 291.396 361.836 291.733V291.737C363.159 292.194 364.428 292.796 365.62 293.531C367.547 294.728 369.27 296.226 370.723 297.968C372.913 300.56 374.631 303.687 375.965 307.159C376.169 307.676 376.361 308.201 376.542 308.733C377.643 312.008 378.465 315.371 379 318.785C379.053 319.102 379.104 319.418 379.153 319.738C379.213 320.131 379.268 320.527 379.321 320.923C379.86 324.979 380.166 329.063 380.238 333.154C380.269 334.66 380.277 336.15 380.261 337.607Z" fill="#404396"/>
<path d="M374.76 350.388C374.494 349.441 374.212 348.453 373.914 347.424L373.879 347.302C372.833 343.695 371.765 340.128 370.704 336.7C369.833 333.892 368.946 331.117 368.066 328.453C366.795 324.62 365.605 321.191 364.427 317.969C362.826 313.588 361.256 309.614 359.757 306.154C356.736 299.175 353.917 294.073 351.38 290.992L351.602 290.809C354.157 293.912 356.989 299.037 360.021 306.041C361.522 309.505 363.096 313.486 364.698 317.871C365.878 321.096 367.069 324.528 368.34 328.364C369.221 331.03 370.109 333.806 370.98 336.616C372.042 340.047 373.11 343.614 374.156 347.224L374.191 347.347C374.488 348.376 374.77 349.365 375.038 350.313L374.76 350.388Z" fill="black"/>
<path d="M377.811 361.6L377.739 361.328L378.018 361.254L378.09 361.527L377.811 361.6Z" fill="black"/>
<path d="M359.998 306.378L346.046 294.63L346.232 294.41L359.783 305.82L361.692 291.713L361.978 291.751L359.998 306.378Z" fill="black"/>
<path d="M364.647 318.145L344.48 305.405L344.634 305.161L364.482 317.7L370.685 297.607L370.96 297.692L364.647 318.145Z" fill="black"/>
<path d="M368.278 328.619L346.617 315.705L346.765 315.457L368.126 328.193L375.831 307.102L376.102 307.2L368.278 328.619Z" fill="black"/>
<path d="M370.903 336.854L350.67 326.189L350.804 325.934L370.785 336.466L379.194 320.855L379.448 320.992L370.903 336.854Z" fill="black"/>
<path d="M374.067 347.447L357.846 339.282L357.975 339.025L373.97 347.076L380.135 337.996L380.374 338.158L374.067 347.447Z" fill="black"/>
<path d="M381.839 335.934C381.839 335.934 346.998 278.666 378.236 266.252C409.473 253.837 389.448 328.326 381.839 335.934Z" fill="#404396"/>
<path d="M381.496 335.755C381.472 335.601 379.161 320.124 378.131 303.751C376.747 281.73 378.217 268.662 382.505 264.908L382.694 265.125C372.619 273.948 381.688 335.096 381.781 335.712L381.496 335.755Z" fill="black"/>
<path d="M378.439 276.7L374.301 268.244L374.56 268.117L378.518 276.204L388.614 265.732L388.822 265.933L378.439 276.7Z" fill="black"/>
<path d="M377.761 287.381L377.674 287.238L369.069 273.205L369.315 273.055L377.833 286.945L393.932 273.491L394.116 273.713L377.761 287.381Z" fill="black"/>
<path d="M377.996 299.279L365.382 283.347L365.608 283.168L378.043 298.874L395.089 285.336L395.268 285.561L377.996 299.279Z" fill="black"/>
<path d="M378.792 311.118L378.706 311.034L366.48 299.182L366.681 298.975L378.821 310.744L393.543 300.28L393.71 300.515L378.792 311.118Z" fill="black"/>
<path d="M379.595 319.593L369.259 309.081L369.464 308.879L379.628 319.215L391.342 310.813L391.51 311.047L379.595 319.593Z" fill="black"/>
<path d="M410.99 324.989C410.1 328.174 408.916 331.27 407.453 334.236C404.545 340.206 400.665 345.652 395.972 350.35H376.072C375.92 349.149 375.78 347.879 375.669 346.558V346.554C375.629 346.045 375.589 345.524 375.554 345C375.193 339.541 375.325 333.338 376.643 327.395V327.391C376.699 327.143 376.755 326.898 376.816 326.65C376.989 325.933 377.176 325.22 377.389 324.517C377.862 322.884 378.452 321.288 379.155 319.739C379.235 319.559 379.319 319.375 379.407 319.195C379.455 319.087 379.507 318.982 379.559 318.874C379.911 318.154 380.288 317.445 380.7 316.752C382.762 313.192 385.616 310.155 389.042 307.877C390.17 307.127 391.352 306.46 392.578 305.883C393.518 305.439 394.479 305.044 395.458 304.698C397.293 304.015 399.208 303.573 401.157 303.384C403.712 303.168 405.802 303.608 407.456 304.566C409.623 305.82 411.04 307.968 411.773 310.713C412.796 314.557 412.479 319.575 410.99 324.989Z" fill="#7B7DB5"/>
<path d="M382.177 350.401L381.905 350.304C382.334 349.102 382.803 347.825 383.3 346.505C384.247 343.997 385.233 341.544 386.23 339.21C387.579 336.04 389.022 332.908 390.518 329.904C393.175 324.534 396.191 319.351 399.547 314.388C401.914 310.905 404.521 307.591 407.349 304.469L407.561 304.663C404.743 307.775 402.145 311.079 399.785 314.551C396.436 319.502 393.426 324.674 390.776 330.032C389.282 333.03 387.842 336.157 386.495 339.323C385.499 341.653 384.515 344.103 383.57 346.606C383.072 347.924 382.604 349.2 382.177 350.401Z" fill="black"/>
<path d="M399.487 314.714L401.011 303.363L401.297 303.402L399.833 314.304L411.727 310.575L411.813 310.85L399.487 314.714Z" fill="black"/>
<path d="M390.515 330.15L388.895 307.886L389.182 307.865L390.778 329.789L410.956 324.85L411.025 325.131L390.515 330.15Z" fill="black"/>
<path d="M383.337 346.718L383.296 346.603L376.507 327.44L376.779 327.344L383.528 346.392L401.968 343.165L402.017 343.45L383.337 346.718Z" fill="black"/>
<path d="M377.125 350.408L375.523 346.56L375.672 346.558L375.8 346.504L377.391 350.297L377.125 350.408Z" fill="black"/>
<path d="M386.255 339.438L386.22 339.3L380.557 316.789L380.837 316.719L386.465 339.092L407.421 334.098L407.488 334.379L386.255 339.438Z" fill="black"/>
<path d="M373.763 268.276L370.928 266.531L349.553 301.263L352.388 303.008L373.763 268.276Z" fill="#404396"/>
<path d="M367.937 264.53L365.102 262.785L343.726 297.517L346.562 299.262L367.937 264.53Z" fill="#404396"/>
<path d="M170.023 214.442C173.815 214.442 176.889 210.809 176.889 206.328C176.889 201.846 173.815 198.213 170.023 198.213C166.23 198.213 163.156 201.846 163.156 206.328C163.156 210.809 166.23 214.442 170.023 214.442Z" fill="#FFAA40"/>
<path d="M178.761 223.388C178.761 223.388 172.935 222.972 167.109 235.457C161.283 247.941 142.557 288.307 142.557 288.307L176.681 295.797L178.761 223.388Z" fill="#404396"/>
<path d="M167.109 191.346H168.14C171.62 191.346 174.956 192.728 177.417 195.188C179.877 197.648 181.259 200.985 181.259 204.465V207.981C181.259 211.461 179.877 214.798 177.417 217.258C174.956 219.718 171.62 221.1 168.14 221.1H167.11V191.346H167.109Z" fill="#404396"/>
<path d="M178.969 223.597C178.969 223.597 178.553 200.293 180.634 196.964C182.715 193.635 195.199 193.219 196.031 202.374C196.864 211.529 197.28 226.926 197.28 229.839C197.28 232.752 182.298 268.125 207.267 316.813H238.477C238.477 316.813 259.284 297.255 252.209 268.957L309.221 268.541C309.221 268.541 362.903 273.535 356.245 328.465H183.963C183.963 328.465 191.454 308.074 166.485 293.509C166.485 293.509 160.243 255.224 178.969 223.597Z" fill="#9395D1"/>
<path d="M166.485 293.508C166.485 293.508 129.241 281.648 122.582 321.181C122.582 321.181 115.508 323.678 113.843 319.516C112.179 315.355 128.408 264.17 166.485 293.508Z" fill="#404396"/>
<path d="M153.376 348.856C168.2 348.856 180.218 336.839 180.218 322.015C180.218 307.191 168.2 295.174 153.376 295.174C138.552 295.174 126.535 307.191 126.535 322.015C126.535 336.839 138.552 348.856 153.376 348.856Z" fill="#404396"/>
<path d="M153.584 335.956C161.169 335.956 167.317 329.807 167.317 322.223C167.317 314.639 161.169 308.49 153.584 308.49C146 308.49 139.852 314.639 139.852 322.223C139.852 329.807 146 335.956 153.584 335.956Z" fill="#9FA3BF"/>
<path d="M303.604 349.272C318.428 349.272 330.445 337.255 330.445 322.431C330.445 307.607 318.428 295.59 303.604 295.59C288.78 295.59 276.763 307.607 276.763 322.431C276.763 337.255 288.78 349.272 303.604 349.272Z" fill="#404396"/>
<path d="M303.812 336.372C311.396 336.372 317.544 330.223 317.544 322.639C317.544 315.055 311.396 308.906 303.812 308.906C296.227 308.906 290.079 315.055 290.079 322.639C290.079 330.223 296.227 336.372 303.812 336.372Z" fill="#9FA3BF"/>
<path d="M267.459 328.464C267.459 328.464 262.614 288.931 290.08 284.769C317.545 280.608 345.249 308.906 349.499 328.464H267.459Z" fill="#404396"/>
<path d="M304.756 253.975H252.93C250.464 253.975 248.465 255.974 248.465 258.44V264.074C248.465 266.541 250.464 268.54 252.93 268.54H304.756C307.223 268.54 309.222 266.541 309.222 264.074V258.44C309.222 255.974 307.223 253.975 304.756 253.975Z" fill="#404396"/>
<path d="M393.616 261.674H313.096C311.072 261.674 309.431 263.315 309.431 265.339V265.915C309.431 267.94 311.072 269.581 313.096 269.581H393.616C395.64 269.581 397.281 267.94 397.281 265.915V265.339C397.281 263.315 395.64 261.674 393.616 261.674Z" fill="#404396"/>
<path d="M206.171 205.719L189.491 201.334C188.429 201.054 187.342 201.689 187.063 202.751L186.983 203.053C186.704 204.115 187.339 205.202 188.401 205.481L205.081 209.866C206.143 210.145 207.23 209.511 207.509 208.449L207.589 208.147C207.868 207.085 207.233 205.998 206.171 205.719Z" fill="#404396"/>
<path d="M392.245 213.461H310.491V261.743H392.245V213.461Z" fill="#E57D00"/>
<path d="M351.368 213.461H310.491V261.743H351.368V213.461Z" fill="#FFAA40"/>
<path d="M319.97 244.266H310.491V248.413H319.97V244.266Z" fill="#E57D00"/>
<path d="M392.245 220.568H382.767V223.827H392.245V220.568Z" fill="#FF9E1D"/>
<path d="M95.4343 92.8978C95.4343 92.8978 136.604 120.581 167.126 103.189C197.648 85.797 211.844 100.349 222.137 85.4433C232.429 70.5372 201.197 52.437 169.965 62.3744C138.733 72.3117 138.023 13.0419 95.4343 49.5976C52.8453 86.1533 95.4343 92.8978 95.4343 92.8978Z" fill="white"/>
<path d="M361.615 17.3038C361.615 17.3038 316.542 3.1073 293.828 15.1741C271.114 27.2408 330.738 66.9908 398.526 31.1439C466.313 -4.70294 361.615 17.3038 361.615 17.3038Z" fill="white"/>
<path d="M411.303 134.423C411.303 134.423 412.013 104.611 385.04 113.128C358.067 121.646 339.256 110.289 325.77 125.905C312.283 141.521 364.81 164.945 408.109 150.039C451.407 135.133 411.303 134.423 411.303 134.423Z" fill="white"/>
<path d="M91.3171 220.343H91.2987C91.1851 220.34 91.0732 220.315 90.9692 220.27C90.8652 220.224 90.7712 220.158 90.6926 220.076C90.614 219.994 90.5524 219.898 90.5111 219.792C90.4699 219.686 90.4499 219.573 90.4523 219.46L90.5137 216.577C90.5162 216.463 90.5409 216.351 90.5866 216.247C90.6323 216.143 90.6981 216.05 90.7801 215.971C90.8621 215.892 90.9588 215.831 91.0646 215.789C91.1705 215.748 91.2834 215.728 91.397 215.731C91.5106 215.733 91.6225 215.758 91.7265 215.804C91.8305 215.849 91.9245 215.915 92.0031 215.997C92.0817 216.079 92.1433 216.176 92.1846 216.282C92.2258 216.387 92.2458 216.5 92.2433 216.614L92.1819 219.497C92.177 219.723 92.0838 219.938 91.9221 220.096C91.7605 220.254 91.5433 220.343 91.3171 220.343Z" fill="#7B7DB5"/>
<path d="M438.715 287.637C438.576 287.637 438.438 287.603 438.315 287.539C438.191 287.474 438.085 287.38 438.005 287.266C437.926 287.151 437.875 287.019 437.858 286.88C437.84 286.742 437.857 286.601 437.905 286.47C438.584 284.648 439.25 282.82 439.886 281.038C439.924 280.931 439.983 280.832 440.059 280.748C440.135 280.664 440.227 280.595 440.33 280.547C440.432 280.498 440.543 280.47 440.657 280.464C440.77 280.459 440.884 280.475 440.991 280.513C441.098 280.551 441.196 280.61 441.28 280.686C441.365 280.763 441.433 280.855 441.482 280.957C441.53 281.06 441.558 281.171 441.564 281.284C441.57 281.398 441.553 281.511 441.515 281.618C440.877 283.408 440.208 285.244 439.526 287.074C439.465 287.239 439.354 287.382 439.209 287.483C439.064 287.583 438.892 287.637 438.715 287.637ZM442.606 276.721C442.468 276.721 442.333 276.688 442.21 276.625C442.088 276.562 441.982 276.471 441.902 276.359C441.822 276.248 441.77 276.118 441.75 275.982C441.73 275.846 441.742 275.708 441.787 275.577C442.409 273.747 443.02 271.9 443.603 270.089C443.638 269.981 443.693 269.881 443.767 269.795C443.84 269.708 443.93 269.637 444.031 269.585C444.132 269.533 444.243 269.502 444.356 269.493C444.469 269.483 444.583 269.497 444.691 269.531C444.799 269.566 444.899 269.622 444.986 269.696C445.072 269.769 445.144 269.859 445.195 269.96C445.247 270.061 445.279 270.171 445.288 270.285C445.297 270.398 445.284 270.512 445.249 270.62C444.663 272.44 444.049 274.295 443.424 276.133C443.366 276.305 443.256 276.453 443.109 276.559C442.962 276.664 442.786 276.721 442.606 276.721ZM446.157 265.69C446.022 265.69 445.888 265.658 445.768 265.597C445.647 265.537 445.542 265.448 445.462 265.34C445.381 265.231 445.327 265.105 445.304 264.972C445.281 264.839 445.29 264.702 445.329 264.573C445.89 262.726 446.438 260.861 446.959 259.029C447.024 258.811 447.172 258.627 447.371 258.518C447.571 258.408 447.805 258.382 448.024 258.444C448.243 258.506 448.428 258.652 448.54 258.85C448.652 259.048 448.682 259.282 448.622 259.501C448.099 261.343 447.548 263.22 446.984 265.076C446.93 265.253 446.821 265.409 446.672 265.519C446.523 265.63 446.342 265.689 446.157 265.69ZM449.322 254.542C449.247 254.542 449.173 254.532 449.101 254.513C448.879 254.454 448.69 254.31 448.574 254.112C448.459 253.914 448.427 253.678 448.486 253.456C448.979 251.587 449.455 249.703 449.902 247.856C449.929 247.745 449.977 247.641 450.044 247.55C450.111 247.458 450.195 247.38 450.292 247.321C450.389 247.262 450.497 247.222 450.609 247.205C450.721 247.187 450.836 247.192 450.946 247.219C451.057 247.245 451.161 247.294 451.253 247.36C451.344 247.427 451.422 247.512 451.481 247.609C451.54 247.706 451.58 247.813 451.597 247.925C451.615 248.038 451.61 248.152 451.584 248.263C451.134 250.121 450.654 252.017 450.158 253.897C450.109 254.082 450.001 254.245 449.85 254.362C449.699 254.478 449.513 254.542 449.322 254.542ZM452.047 243.278C451.917 243.278 451.79 243.249 451.673 243.194C451.556 243.138 451.454 243.057 451.372 242.956C451.291 242.855 451.234 242.737 451.204 242.611C451.175 242.485 451.174 242.354 451.201 242.228C451.618 240.329 452.012 238.427 452.373 236.574C452.394 236.462 452.437 236.355 452.5 236.26C452.562 236.164 452.643 236.082 452.737 236.018C452.832 235.954 452.938 235.909 453.05 235.886C453.161 235.863 453.277 235.863 453.389 235.885C453.501 235.907 453.607 235.95 453.702 236.013C453.797 236.077 453.879 236.158 453.942 236.253C454.005 236.348 454.049 236.454 454.072 236.566C454.094 236.678 454.093 236.793 454.071 236.905C453.707 238.771 453.31 240.686 452.891 242.598C452.849 242.791 452.742 242.963 452.589 243.087C452.435 243.211 452.244 243.278 452.047 243.278ZM454.262 231.904C454.137 231.904 454.012 231.877 453.898 231.824C453.784 231.771 453.682 231.694 453.601 231.598C453.52 231.502 453.46 231.389 453.427 231.268C453.394 231.146 453.388 231.019 453.409 230.895C453.732 228.984 454.031 227.066 454.297 225.192C454.311 225.078 454.347 224.968 454.404 224.868C454.461 224.767 454.537 224.68 454.629 224.609C454.72 224.539 454.824 224.488 454.936 224.459C455.047 224.429 455.163 224.423 455.277 224.439C455.391 224.455 455.501 224.494 455.6 224.553C455.699 224.612 455.785 224.69 455.853 224.783C455.921 224.876 455.97 224.982 455.997 225.094C456.023 225.206 456.028 225.322 456.009 225.435C455.741 227.324 455.44 229.258 455.114 231.184C455.08 231.385 454.976 231.568 454.82 231.699C454.664 231.831 454.466 231.904 454.262 231.904ZM455.887 220.431C455.765 220.431 455.645 220.406 455.533 220.356C455.422 220.306 455.323 220.234 455.241 220.143C455.16 220.052 455.099 219.945 455.062 219.829C455.025 219.713 455.013 219.59 455.026 219.469C455.244 217.544 455.43 215.613 455.585 213.729C455.593 213.615 455.624 213.504 455.676 213.402C455.727 213.3 455.798 213.209 455.885 213.135C455.972 213.061 456.072 213.004 456.181 212.969C456.289 212.934 456.404 212.921 456.518 212.93C456.631 212.939 456.742 212.971 456.844 213.023C456.945 213.076 457.035 213.147 457.109 213.235C457.182 213.322 457.238 213.423 457.272 213.532C457.307 213.641 457.319 213.755 457.309 213.869C457.154 215.772 456.963 217.72 456.745 219.663C456.721 219.874 456.621 220.069 456.462 220.211C456.304 220.353 456.098 220.431 455.886 220.431H455.887ZM91.5027 211.668H91.4842C91.3707 211.665 91.2587 211.641 91.1547 211.595C91.0508 211.549 90.9568 211.483 90.8782 211.401C90.7996 211.32 90.7379 211.223 90.6967 211.117C90.6555 211.011 90.6355 210.898 90.6379 210.785L90.7613 204.991C90.7661 204.764 90.8593 204.549 91.021 204.391C91.1827 204.233 91.3999 204.144 91.6261 204.144H91.6445C91.7581 204.147 91.8701 204.171 91.9741 204.217C92.0781 204.263 92.1721 204.329 92.2507 204.411C92.3293 204.493 92.3909 204.589 92.4321 204.695C92.4734 204.801 92.4933 204.914 92.4909 205.028L92.3675 210.822C92.3625 211.048 92.2692 211.263 92.1076 211.421C91.9459 211.579 91.7288 211.667 91.5027 211.667V211.668ZM456.823 208.882H456.78C456.551 208.871 456.336 208.769 456.182 208.6C456.027 208.43 455.947 208.206 455.958 207.977C456.051 206.04 456.109 204.102 456.131 202.216C456.132 202.103 456.156 201.991 456.201 201.886C456.245 201.782 456.31 201.687 456.391 201.608C456.473 201.528 456.569 201.466 456.674 201.424C456.78 201.381 456.892 201.36 457.006 201.362C457.12 201.363 457.232 201.387 457.336 201.432C457.441 201.476 457.535 201.541 457.614 201.622C457.694 201.704 457.756 201.8 457.799 201.905C457.841 202.011 457.862 202.123 457.861 202.237C457.838 204.143 457.779 206.102 457.685 208.06C457.674 208.281 457.579 208.49 457.418 208.643C457.258 208.796 457.044 208.881 456.823 208.882V208.882ZM91.75 200.08H91.7316C91.618 200.078 91.506 200.053 91.4021 200.007C91.2981 199.962 91.2041 199.896 91.1255 199.814C91.0469 199.732 90.9853 199.635 90.944 199.529C90.9028 199.424 90.8828 199.311 90.8852 199.197L91.0083 193.403C91.0132 193.174 91.1089 192.956 91.2745 192.797C91.3566 192.718 91.4532 192.657 91.5591 192.615C91.6649 192.574 91.7778 192.554 91.8914 192.556C92.005 192.559 92.117 192.584 92.221 192.629C92.325 192.675 92.4189 192.741 92.4976 192.823C92.5762 192.905 92.6378 193.001 92.6791 193.107C92.7203 193.213 92.7403 193.326 92.7379 193.44L92.6151 199.234C92.6103 199.46 92.517 199.675 92.3553 199.833C92.1936 199.992 91.9763 200.08 91.75 200.08ZM456.953 197.296C456.727 197.296 456.511 197.208 456.349 197.051C456.188 196.894 456.094 196.68 456.088 196.455C456.035 194.519 455.944 192.585 455.812 190.707C455.804 190.594 455.819 190.48 455.855 190.372C455.891 190.265 455.948 190.165 456.023 190.079C456.097 189.994 456.188 189.924 456.289 189.873C456.391 189.822 456.502 189.792 456.615 189.784C456.728 189.777 456.842 189.791 456.95 189.827C457.057 189.863 457.157 189.92 457.243 189.995C457.328 190.069 457.398 190.16 457.449 190.262C457.5 190.363 457.53 190.474 457.538 190.587C457.669 192.49 457.763 194.448 457.817 196.408C457.82 196.521 457.801 196.634 457.76 196.74C457.719 196.847 457.658 196.944 457.58 197.026C457.502 197.109 457.408 197.175 457.305 197.221C457.201 197.267 457.089 197.293 456.976 197.296L456.953 197.296ZM91.9959 188.493H91.9775C91.8639 188.49 91.7519 188.465 91.6479 188.42C91.5439 188.374 91.4499 188.308 91.3713 188.226C91.2927 188.144 91.231 188.048 91.1898 187.942C91.1486 187.836 91.1287 187.723 91.1311 187.609L91.2545 181.815C91.2594 181.586 91.3552 181.368 91.5208 181.209C91.6865 181.05 91.9084 180.964 92.1377 180.969C92.3671 180.974 92.5851 181.07 92.7438 181.235C92.9025 181.401 92.989 181.623 92.9841 181.852L92.8607 187.646C92.8559 187.872 92.7626 188.088 92.6009 188.246C92.4392 188.404 92.2219 188.493 91.9956 188.493H91.9959ZM456.145 185.75C455.933 185.75 455.729 185.672 455.57 185.531C455.412 185.389 455.311 185.195 455.287 184.984C455.067 183.07 454.8 181.157 454.494 179.297C454.459 179.072 454.514 178.842 454.648 178.657C454.781 178.472 454.983 178.348 455.208 178.311C455.433 178.274 455.663 178.327 455.849 178.459C456.035 178.591 456.161 178.791 456.2 179.016C456.511 180.903 456.782 182.845 457.006 184.787C457.032 185.015 456.966 185.243 456.824 185.423C456.681 185.603 456.473 185.718 456.245 185.745C456.212 185.748 456.179 185.75 456.145 185.75ZM92.2421 176.905H92.2236C92.1101 176.903 91.9981 176.878 91.8941 176.832C91.7901 176.787 91.6962 176.721 91.6176 176.639C91.539 176.557 91.4773 176.46 91.4361 176.355C91.3949 176.249 91.3749 176.136 91.3773 176.022L91.5007 170.228C91.5031 170.115 91.5279 170.003 91.5736 169.899C91.6193 169.795 91.685 169.701 91.767 169.622C91.849 169.543 91.9457 169.482 92.0516 169.441C92.1574 169.399 92.2703 169.379 92.3839 169.382C92.4975 169.384 92.6095 169.409 92.7135 169.455C92.8174 169.5 92.9114 169.566 92.99 169.648C93.0686 169.73 93.1303 169.827 93.1715 169.933C93.2127 170.039 93.2327 170.152 93.2303 170.265L93.1069 176.059C93.102 176.285 93.0087 176.5 92.8471 176.659C92.6854 176.817 92.4682 176.905 92.2421 176.905ZM454.256 174.34C454.059 174.339 453.868 174.272 453.715 174.148C453.561 174.025 453.455 173.852 453.413 173.66C453.002 171.785 452.536 169.913 452.029 168.094C451.97 167.874 452.001 167.64 452.114 167.443C452.227 167.245 452.413 167.1 452.632 167.039C452.851 166.977 453.086 167.005 453.285 167.116C453.484 167.227 453.631 167.411 453.695 167.63C454.211 169.478 454.684 171.383 455.102 173.29C455.126 173.4 455.128 173.515 455.108 173.627C455.088 173.739 455.047 173.845 454.985 173.941C454.924 174.037 454.845 174.119 454.751 174.184C454.658 174.249 454.553 174.295 454.442 174.32C454.381 174.333 454.319 174.34 454.256 174.341V174.34ZM92.4888 165.318H92.4707C92.2414 165.313 92.0235 165.217 91.8648 165.052C91.7061 164.886 91.6198 164.664 91.6246 164.435L91.7477 158.641C91.7487 158.527 91.7725 158.415 91.8176 158.31C91.8628 158.205 91.9284 158.111 92.0106 158.032C92.0929 157.953 92.1901 157.891 92.2965 157.851C92.403 157.81 92.5165 157.791 92.6304 157.794C92.7439 157.797 92.8559 157.822 92.9599 157.867C93.0639 157.913 93.1578 157.979 93.2364 158.061C93.315 158.143 93.3767 158.239 93.4179 158.345C93.4592 158.451 93.4791 158.564 93.4767 158.677L93.3536 164.472C93.3489 164.698 93.2557 164.913 93.094 165.071C92.9323 165.23 92.7151 165.318 92.4888 165.318ZM451.144 163.206C450.964 163.206 450.789 163.15 450.642 163.045C450.495 162.941 450.385 162.793 450.326 162.623C449.703 160.811 449.018 159.009 448.292 157.268C448.204 157.056 448.204 156.818 448.291 156.606C448.378 156.394 448.546 156.225 448.758 156.137C448.97 156.049 449.208 156.048 449.42 156.135C449.632 156.223 449.801 156.391 449.889 156.602C450.629 158.377 451.326 160.214 451.962 162.059C452.007 162.19 452.02 162.329 452 162.465C451.98 162.601 451.928 162.731 451.848 162.843C451.768 162.955 451.663 163.047 451.54 163.11C451.418 163.173 451.282 163.206 451.144 163.206ZM92.735 153.731H92.716C92.6024 153.728 92.4905 153.703 92.3865 153.657C92.2826 153.612 92.1886 153.546 92.1101 153.464C92.0316 153.382 91.97 153.285 91.9288 153.179C91.8876 153.073 91.8677 152.961 91.8702 152.847L91.8783 152.482L91.9674 152.306C92.0054 152.231 92.9218 150.432 94.7462 147.305C94.8025 147.205 94.8781 147.118 94.9686 147.047C95.0591 146.977 95.1627 146.925 95.2733 146.895C95.384 146.865 95.4996 146.857 95.6132 146.872C95.7269 146.887 95.8365 146.925 95.9355 146.983C96.0346 147.041 96.1212 147.117 96.1902 147.209C96.2593 147.301 96.3094 147.405 96.3377 147.516C96.3661 147.627 96.372 147.743 96.3553 147.856C96.3385 147.97 96.2993 148.079 96.24 148.177C94.7581 150.717 93.8688 152.398 93.5981 152.918C93.5847 153.138 93.488 153.344 93.3276 153.495C93.1672 153.646 92.9553 153.73 92.735 153.731ZM446.693 152.538C446.532 152.538 446.374 152.493 446.237 152.408C446.1 152.324 445.99 152.202 445.918 152.058C445.07 150.348 444.155 148.653 443.2 147.02C443.142 146.922 443.103 146.813 443.087 146.7C443.07 146.587 443.077 146.472 443.105 146.361C443.134 146.251 443.184 146.147 443.252 146.055C443.321 145.964 443.407 145.888 443.506 145.83C443.605 145.772 443.714 145.735 443.827 145.719C443.94 145.704 444.055 145.711 444.166 145.741C444.276 145.77 444.379 145.821 444.47 145.891C444.561 145.961 444.636 146.048 444.693 146.147C445.668 147.814 446.602 149.544 447.467 151.289C447.533 151.42 447.564 151.567 447.557 151.714C447.55 151.861 447.505 152.004 447.428 152.129C447.35 152.254 447.242 152.357 447.114 152.429C446.985 152.5 446.841 152.538 446.693 152.538ZM98.5032 143.631C98.3488 143.63 98.1973 143.589 98.0644 143.511C97.9315 143.432 97.822 143.319 97.7472 143.184C97.6725 143.049 97.6353 142.897 97.6395 142.742C97.6437 142.588 97.6891 142.438 97.771 142.307C98.784 140.688 99.8465 139.038 100.934 137.403C100.996 137.309 101.077 137.227 101.171 137.164C101.266 137.1 101.372 137.056 101.483 137.034C101.594 137.011 101.709 137.011 101.82 137.033C101.932 137.055 102.038 137.098 102.133 137.161C102.227 137.224 102.309 137.305 102.372 137.399C102.435 137.493 102.48 137.599 102.502 137.71C102.525 137.822 102.525 137.936 102.503 138.048C102.481 138.159 102.438 138.265 102.375 138.36C101.298 139.982 100.242 141.619 99.2377 143.224C99.1599 143.349 99.0516 143.452 98.9231 143.523C98.7946 143.594 98.6501 143.631 98.5032 143.631V143.631ZM440.856 142.56C440.715 142.56 440.576 142.526 440.451 142.46C440.327 142.394 440.22 142.299 440.141 142.183C439.067 140.611 437.926 139.06 436.748 137.573C436.673 137.484 436.617 137.382 436.583 137.271C436.549 137.161 436.537 137.044 436.548 136.929C436.56 136.814 436.594 136.702 436.65 136.6C436.706 136.499 436.781 136.409 436.872 136.337C436.962 136.265 437.067 136.213 437.178 136.182C437.29 136.151 437.407 136.143 437.522 136.158C437.636 136.173 437.747 136.211 437.847 136.269C437.947 136.328 438.034 136.406 438.103 136.499C439.306 138.018 440.472 139.602 441.568 141.207C441.657 141.337 441.709 141.489 441.718 141.646C441.727 141.803 441.693 141.96 441.619 142.099C441.546 142.238 441.436 142.354 441.301 142.436C441.167 142.517 441.012 142.56 440.855 142.56H440.856ZM104.927 133.949C104.769 133.949 104.614 133.906 104.478 133.823C104.343 133.741 104.233 133.623 104.16 133.483C104.087 133.343 104.054 133.185 104.065 133.027C104.075 132.869 104.129 132.717 104.22 132.588C105.329 131.005 106.474 129.414 107.624 127.857C107.761 127.677 107.965 127.557 108.19 127.525C108.414 127.493 108.643 127.551 108.826 127.685C109.008 127.82 109.131 128.022 109.166 128.246C109.202 128.471 109.147 128.7 109.015 128.885C107.874 130.43 106.738 132.01 105.636 133.581C105.556 133.695 105.45 133.788 105.326 133.852C105.203 133.916 105.066 133.949 104.927 133.949ZM433.676 133.496C433.556 133.496 433.437 133.471 433.327 133.423C433.217 133.374 433.118 133.303 433.037 133.215C431.758 131.815 430.409 130.439 429.027 129.125C428.945 129.046 428.879 128.953 428.833 128.849C428.787 128.745 428.762 128.633 428.759 128.519C428.756 128.406 428.775 128.293 428.816 128.187C428.857 128.081 428.918 127.984 428.997 127.902C429.075 127.82 429.169 127.754 429.273 127.707C429.376 127.661 429.488 127.636 429.602 127.633C429.715 127.631 429.828 127.65 429.934 127.691C430.04 127.732 430.137 127.793 430.219 127.871C431.63 129.214 433.007 130.619 434.313 132.048C434.426 132.171 434.501 132.325 434.528 132.491C434.555 132.656 434.533 132.826 434.466 132.98C434.398 133.133 434.288 133.264 434.147 133.355C434.007 133.447 433.843 133.496 433.675 133.496H433.676ZM425.295 125.517C425.093 125.518 424.898 125.447 424.743 125.318C423.288 124.11 421.763 122.928 420.211 121.804C420.117 121.738 420.037 121.654 419.976 121.557C419.915 121.46 419.874 121.352 419.855 121.239C419.836 121.126 419.84 121.011 419.866 120.899C419.892 120.788 419.941 120.682 420.008 120.59C420.075 120.497 420.16 120.418 420.258 120.359C420.356 120.299 420.464 120.259 420.577 120.242C420.691 120.225 420.806 120.23 420.917 120.258C421.029 120.285 421.133 120.335 421.225 120.403C422.808 121.55 424.363 122.755 425.848 123.987C425.985 124.101 426.083 124.254 426.13 124.425C426.177 124.597 426.169 124.779 426.109 124.947C426.048 125.114 425.938 125.259 425.792 125.361C425.646 125.463 425.473 125.518 425.295 125.517ZM111.824 124.608C111.662 124.608 111.504 124.563 111.367 124.477C111.229 124.391 111.119 124.269 111.048 124.123C110.977 123.978 110.948 123.816 110.964 123.655C110.981 123.494 111.043 123.341 111.142 123.213C112.327 121.687 113.549 120.154 114.772 118.658C114.843 118.568 114.931 118.493 115.032 118.437C115.132 118.381 115.243 118.346 115.357 118.333C115.471 118.32 115.587 118.331 115.697 118.363C115.807 118.396 115.91 118.45 115.999 118.523C116.088 118.596 116.161 118.685 116.215 118.787C116.269 118.888 116.302 119 116.313 119.114C116.323 119.228 116.311 119.344 116.276 119.453C116.241 119.563 116.185 119.665 116.111 119.752C114.897 121.238 113.684 122.76 112.508 124.275C112.427 124.379 112.323 124.463 112.204 124.52C112.086 124.578 111.956 124.608 111.824 124.607V124.608ZM415.919 118.72C415.756 118.72 415.596 118.674 415.458 118.586C413.859 117.575 412.195 116.592 410.512 115.664C410.312 115.553 410.163 115.367 410.099 115.147C410.036 114.927 410.062 114.69 410.173 114.489C410.284 114.288 410.47 114.14 410.691 114.076C410.911 114.012 411.148 114.039 411.348 114.15C413.061 115.094 414.755 116.095 416.383 117.124C416.542 117.225 416.663 117.374 416.73 117.549C416.796 117.724 416.804 117.916 416.752 118.096C416.7 118.277 416.59 118.435 416.44 118.547C416.29 118.66 416.108 118.72 415.92 118.72H415.919ZM119.169 115.621C119.003 115.621 118.841 115.573 118.702 115.484C118.562 115.395 118.452 115.267 118.383 115.117C118.314 114.966 118.289 114.799 118.312 114.635C118.335 114.471 118.405 114.318 118.513 114.192C119.776 112.722 121.072 111.252 122.365 109.824C122.441 109.738 122.533 109.668 122.636 109.618C122.739 109.568 122.85 109.539 122.965 109.533C123.079 109.526 123.194 109.543 123.301 109.581C123.409 109.619 123.509 109.678 123.594 109.755C123.679 109.832 123.747 109.924 123.796 110.028C123.845 110.132 123.872 110.244 123.877 110.358C123.882 110.473 123.865 110.587 123.825 110.694C123.786 110.802 123.725 110.9 123.647 110.984C122.365 112.402 121.079 113.861 119.825 115.32C119.744 115.414 119.643 115.49 119.53 115.542C119.416 115.594 119.293 115.621 119.169 115.621ZM405.774 113.119C405.644 113.119 405.516 113.09 405.399 113.034C403.694 112.216 401.926 111.427 400.145 110.689C400.04 110.646 399.945 110.582 399.864 110.502C399.784 110.421 399.72 110.326 399.677 110.221C399.634 110.116 399.611 110.004 399.611 109.89C399.611 109.776 399.634 109.664 399.677 109.559C399.721 109.454 399.785 109.359 399.865 109.278C399.945 109.198 400.041 109.135 400.146 109.091C400.251 109.048 400.363 109.025 400.477 109.026C400.59 109.026 400.703 109.048 400.808 109.092C402.617 109.841 404.414 110.643 406.148 111.474C406.325 111.558 406.467 111.701 406.553 111.878C406.638 112.054 406.661 112.255 406.617 112.446C406.574 112.637 406.466 112.808 406.313 112.93C406.16 113.053 405.969 113.119 405.773 113.119H405.774ZM395.062 108.675C394.964 108.674 394.866 108.657 394.774 108.625C392.984 107.99 391.142 107.385 389.297 106.831C389.188 106.798 389.087 106.744 388.999 106.672C388.911 106.601 388.838 106.512 388.784 106.412C388.73 106.312 388.697 106.202 388.685 106.089C388.674 105.976 388.685 105.862 388.718 105.753C388.75 105.645 388.804 105.543 388.876 105.455C388.948 105.368 389.036 105.295 389.136 105.241C389.236 105.187 389.346 105.153 389.459 105.142C389.572 105.131 389.686 105.142 389.795 105.174C391.666 105.737 393.535 106.35 395.352 106.994C395.544 107.062 395.706 107.196 395.809 107.372C395.913 107.548 395.951 107.755 395.916 107.956C395.882 108.157 395.777 108.34 395.621 108.471C395.465 108.603 395.267 108.675 395.063 108.675H395.062ZM126.954 107.018C126.785 107.018 126.619 106.968 126.478 106.875C126.337 106.782 126.226 106.649 126.159 106.493C126.093 106.338 126.073 106.166 126.103 105.999C126.133 105.833 126.211 105.679 126.328 105.556C127.665 104.153 129.036 102.753 130.402 101.395C130.482 101.314 130.578 101.249 130.683 101.205C130.788 101.161 130.901 101.139 131.016 101.139C131.13 101.138 131.243 101.161 131.348 101.205C131.453 101.248 131.549 101.313 131.63 101.394C131.71 101.474 131.774 101.57 131.817 101.676C131.86 101.782 131.882 101.895 131.881 102.009C131.881 102.123 131.857 102.236 131.813 102.341C131.768 102.446 131.703 102.541 131.622 102.621C130.267 103.969 128.907 105.358 127.58 106.75C127.499 106.835 127.402 106.902 127.294 106.948C127.186 106.994 127.07 107.018 126.953 107.018H126.954ZM383.948 105.328C383.877 105.328 383.806 105.319 383.738 105.302C381.883 104.839 379.99 104.413 378.109 104.035C377.996 104.014 377.889 103.971 377.794 103.908C377.698 103.845 377.616 103.763 377.552 103.669C377.488 103.574 377.443 103.467 377.421 103.355C377.399 103.243 377.399 103.127 377.421 103.015C377.444 102.903 377.488 102.796 377.552 102.701C377.616 102.607 377.699 102.525 377.794 102.463C377.89 102.4 377.997 102.357 378.109 102.335C378.222 102.314 378.337 102.316 378.449 102.34C380.356 102.722 382.276 103.154 384.157 103.624C384.362 103.675 384.541 103.799 384.661 103.973C384.78 104.147 384.832 104.359 384.806 104.568C384.781 104.778 384.679 104.971 384.521 105.111C384.363 105.251 384.159 105.328 383.948 105.328H383.948ZM372.556 103.042C372.512 103.042 372.468 103.038 372.424 103.032C370.484 102.736 368.558 102.492 366.699 102.306C366.584 102.297 366.473 102.265 366.371 102.212C366.269 102.159 366.179 102.086 366.105 101.998C366.032 101.909 365.977 101.807 365.943 101.698C365.91 101.588 365.898 101.472 365.91 101.358C365.921 101.244 365.955 101.133 366.01 101.032C366.065 100.931 366.139 100.842 366.229 100.77C366.318 100.698 366.421 100.645 366.532 100.613C366.642 100.582 366.758 100.572 366.872 100.586C368.76 100.774 370.716 101.022 372.685 101.322C372.901 101.355 373.096 101.468 373.232 101.638C373.368 101.809 373.434 102.024 373.418 102.242C373.401 102.459 373.304 102.662 373.144 102.811C372.984 102.959 372.774 103.042 372.556 103.042H372.556ZM361.018 101.74C360.831 101.741 360.649 101.68 360.499 101.567C358.958 100.407 357.395 99.2508 355.852 98.1297C355.758 98.0638 355.679 97.9798 355.618 97.8827C355.557 97.7856 355.516 97.6773 355.497 97.5641C355.478 97.451 355.482 97.3353 355.508 97.2236C355.535 97.112 355.583 97.0067 355.65 96.914C355.718 96.8212 355.803 96.7427 355.901 96.6832C355.999 96.6237 356.108 96.5842 356.221 96.5672C356.335 96.5501 356.45 96.5558 356.562 96.5839C356.673 96.612 356.777 96.6619 356.869 96.7308C358.419 97.8573 359.991 99.0196 361.539 100.185C361.684 100.294 361.792 100.446 361.846 100.62C361.9 100.793 361.898 100.979 361.84 101.151C361.783 101.324 361.672 101.474 361.525 101.579C361.377 101.685 361.2 101.742 361.018 101.742L361.018 101.74ZM135.179 98.8403C135.006 98.8404 134.837 98.7884 134.693 98.691C134.55 98.5937 134.439 98.4555 134.375 98.2944C134.311 98.1333 134.297 97.9567 134.335 97.7875C134.373 97.6184 134.46 97.4644 134.586 97.3456C136.001 96.0147 137.447 94.6936 138.884 93.4152C139.055 93.2628 139.28 93.1848 139.509 93.1982C139.738 93.2117 139.952 93.3156 140.105 93.4871C140.257 93.6585 140.335 93.8835 140.322 94.1124C140.308 94.3414 140.204 94.5557 140.033 94.708C138.608 95.9744 137.174 97.2854 135.771 98.6051C135.612 98.7564 135.4 98.8406 135.179 98.8403ZM351.643 94.9285C351.466 94.9287 351.293 94.874 351.148 94.772C349.57 93.6665 347.968 92.5656 346.385 91.4999C346.195 91.3718 346.064 91.1733 346.02 90.9482C345.976 90.7231 346.023 90.4897 346.151 90.2995C346.279 90.1092 346.478 89.9776 346.703 89.9337C346.928 89.8898 347.161 89.9371 347.352 90.0652C348.943 91.137 350.554 92.2439 352.14 93.3555C352.291 93.461 352.404 93.6119 352.463 93.7861C352.522 93.9603 352.524 94.1489 352.469 94.3243C352.413 94.4997 352.303 94.6529 352.155 94.7615C352.007 94.8702 351.827 94.9287 351.643 94.9285ZM143.849 91.139C143.672 91.1391 143.498 91.0846 143.353 90.9827C143.207 90.8809 143.097 90.7368 143.036 90.5699C142.975 90.403 142.967 90.2214 143.014 90.0499C143.06 89.8784 143.157 89.7252 143.293 89.6112C144.787 88.361 146.308 87.1261 147.816 85.9408C147.997 85.8013 148.225 85.7388 148.451 85.7668C148.677 85.7949 148.884 85.9112 149.025 86.0905C149.166 86.2697 149.23 86.4974 149.204 86.724C149.178 86.9506 149.063 87.1577 148.885 87.3002C147.391 88.4749 145.884 89.6986 144.404 90.9375C144.248 91.0678 144.052 91.1391 143.849 91.139ZM342.031 88.4559C341.865 88.456 341.702 88.4078 341.563 88.3172C339.938 87.2676 338.295 86.229 336.68 85.2302C336.493 85.106 336.361 84.9139 336.313 84.6945C336.265 84.4751 336.304 84.2455 336.422 84.0545C336.541 83.8635 336.728 83.7259 336.946 83.671C337.164 83.616 337.395 83.648 337.589 83.76C339.215 84.7649 340.867 85.8096 342.501 86.8655C342.658 86.9668 342.778 87.1162 342.843 87.2913C342.908 87.4665 342.914 87.6579 342.861 87.837C342.809 88.0161 342.699 88.1732 342.549 88.2849C342.4 88.3967 342.218 88.4569 342.031 88.4567V88.4559ZM152.962 83.9733C152.78 83.9735 152.603 83.9161 152.455 83.8093C152.307 83.7025 152.197 83.5518 152.14 83.3787C152.083 83.2056 152.082 83.0189 152.138 82.8453C152.193 82.6718 152.302 82.5201 152.449 82.4121C154.017 81.259 155.613 80.1213 157.195 79.0345C157.384 78.9045 157.617 78.855 157.843 78.8968C158.068 78.9386 158.268 79.0683 158.398 79.2573C158.528 79.4464 158.577 79.6794 158.536 79.9049C158.494 80.1305 158.364 80.3303 158.175 80.4603C156.609 81.5361 155.028 82.6614 153.476 83.8041C153.328 83.9142 153.148 83.9735 152.963 83.9733H152.962ZM332.175 82.3642C332.021 82.3642 331.869 82.3227 331.737 82.244C330.073 81.2639 328.389 80.2945 326.73 79.3651C326.631 79.3096 326.544 79.2351 326.474 79.1459C326.403 79.0567 326.351 78.9545 326.321 78.8452C326.29 78.7359 326.281 78.6216 326.294 78.5088C326.308 78.396 326.343 78.287 326.399 78.1879C326.454 78.0888 326.529 78.0016 326.618 77.9313C326.707 77.861 326.809 77.809 326.919 77.7782C327.028 77.7473 327.142 77.7384 327.255 77.7517C327.368 77.7651 327.477 77.8006 327.576 77.8561C329.245 78.7921 330.941 79.767 332.615 80.7543C332.779 80.8506 332.906 80.9981 332.977 81.174C333.049 81.3499 333.06 81.5444 333.01 81.7275C332.96 81.9106 332.851 82.0722 332.7 82.1873C332.549 82.3023 332.365 82.3645 332.175 82.3642ZM162.519 77.4107C162.332 77.411 162.15 77.3505 162 77.2384C161.85 77.1262 161.74 76.9685 161.688 76.7888C161.635 76.6091 161.642 76.4173 161.708 76.242C161.774 76.0668 161.895 75.9176 162.053 75.8169C163.692 74.7708 165.362 73.7451 167.017 72.7685C167.115 72.7108 167.223 72.6729 167.336 72.657C167.448 72.6411 167.563 72.6476 167.673 72.6759C167.783 72.7043 167.886 72.754 167.977 72.8223C168.068 72.8906 168.144 72.9761 168.202 73.0739C168.259 73.1717 168.297 73.2799 168.313 73.3924C168.329 73.5049 168.323 73.6194 168.294 73.7293C168.266 73.8393 168.216 73.9426 168.148 74.0334C168.08 74.1241 167.994 74.2005 167.896 74.2582C166.258 75.2245 164.605 76.2395 162.983 77.2746C162.845 77.3635 162.684 77.4108 162.519 77.4107ZM322.069 76.7007C321.928 76.7005 321.789 76.6658 321.665 76.5995C319.96 75.695 318.235 74.8051 316.534 73.9544C316.332 73.8499 316.18 73.6702 316.109 73.4541C316.039 73.2381 316.057 73.0031 316.158 72.7998C316.26 72.5966 316.437 72.4416 316.652 72.3682C316.867 72.2948 317.103 72.3089 317.307 72.4076C319.021 73.2646 320.76 74.1608 322.476 75.0717C322.647 75.1622 322.782 75.3072 322.861 75.4836C322.94 75.66 322.957 75.8577 322.91 76.0451C322.863 76.2326 322.755 76.399 322.603 76.5178C322.451 76.6366 322.263 76.701 322.07 76.7007H322.069ZM172.499 71.5243C172.307 71.5246 172.119 71.4606 171.967 71.3425C171.815 71.2244 171.707 71.059 171.66 70.8724C171.612 70.6859 171.629 70.4889 171.706 70.3126C171.783 70.1363 171.917 69.9908 172.086 69.8991C173.796 68.9723 175.536 68.0704 177.259 67.2182C177.361 67.167 177.472 67.1365 177.586 67.1283C177.7 67.1202 177.814 67.1346 177.922 67.1708C178.03 67.207 178.13 67.2642 178.216 67.3391C178.302 67.4141 178.372 67.5053 178.423 67.6075C178.473 67.7097 178.503 67.8209 178.51 67.9347C178.518 68.0485 178.503 68.1627 178.466 68.2706C178.429 68.3785 178.371 68.478 178.296 68.5635C178.22 68.649 178.128 68.7186 178.026 68.7685C176.322 69.6111 174.601 70.503 172.91 71.4206C172.784 71.4889 172.643 71.5246 172.499 71.5243ZM311.704 71.5192C311.577 71.5192 311.452 71.4912 311.337 71.4373C309.589 70.6172 307.82 69.8158 306.081 69.0554C305.976 69.0099 305.882 68.9444 305.804 68.8626C305.725 68.7808 305.663 68.6843 305.621 68.5786C305.58 68.4728 305.56 68.36 305.562 68.2464C305.564 68.1328 305.588 68.0208 305.634 67.9167C305.679 67.8126 305.745 67.7185 305.826 67.6397C305.908 67.5609 306.005 67.499 306.11 67.4575C306.216 67.416 306.329 67.3957 306.443 67.3979C306.556 67.4 306.668 67.4245 306.772 67.4699C308.526 68.2367 310.308 69.0444 312.07 69.8709C312.248 69.9544 312.392 70.0961 312.479 70.2727C312.566 70.4493 312.59 70.6501 312.547 70.8421C312.504 71.034 312.397 71.2057 312.244 71.3287C312.09 71.4516 311.899 71.5186 311.703 71.5186L311.704 71.5192ZM301.087 66.8804C300.976 66.8803 300.866 66.8588 300.763 66.817C298.978 66.0946 297.169 65.3927 295.385 64.7302C295.17 64.6504 294.995 64.4884 294.9 64.28C294.804 64.0715 294.795 63.8336 294.875 63.6185C294.955 63.4035 295.117 63.229 295.325 63.1334C295.534 63.0378 295.772 63.0289 295.987 63.1087C297.786 63.7769 299.612 64.4852 301.412 65.2131C301.598 65.2882 301.752 65.4259 301.848 65.6024C301.944 65.7789 301.975 65.9832 301.937 66.1803C301.898 66.3775 301.793 66.5551 301.637 66.6827C301.482 66.8104 301.288 66.88 301.087 66.8798V66.8804ZM182.884 66.3903C182.686 66.3906 182.494 66.3229 182.34 66.1984C182.186 66.0739 182.079 65.9003 182.037 65.7065C181.996 65.5128 182.022 65.3106 182.112 65.134C182.202 64.9573 182.349 64.8168 182.53 64.736C184.304 63.9421 186.109 63.1765 187.895 62.4604C188.107 62.3781 188.343 62.3828 188.552 62.4735C188.761 62.5642 188.926 62.7336 189.01 62.9449C189.095 63.1563 189.093 63.3925 189.005 63.6024C188.916 63.8122 188.749 63.9787 188.538 64.0658C186.773 64.7735 184.99 65.5302 183.237 66.3142C183.126 66.3643 183.006 66.3901 182.884 66.3901V66.3903ZM290.225 62.8499C290.131 62.8499 290.038 62.8345 289.949 62.8043C288.122 62.1883 286.274 61.5974 284.457 61.0476C284.238 60.9804 284.055 60.8294 283.948 60.6276C283.84 60.4257 283.817 60.1896 283.883 59.9707C283.949 59.7518 284.099 59.5681 284.301 59.4597C284.502 59.3513 284.738 59.327 284.957 59.3921C286.792 59.9471 288.658 60.5452 290.502 61.1655C290.696 61.231 290.861 61.3635 290.967 61.5393C291.072 61.7151 291.112 61.9227 291.079 62.1252C291.046 62.3276 290.942 62.5116 290.785 62.6444C290.629 62.7771 290.43 62.85 290.225 62.8499ZM193.635 62.0808C193.431 62.0807 193.233 62.0086 193.077 61.8771C192.921 61.7456 192.817 61.5633 192.783 61.3622C192.748 61.1612 192.786 60.9545 192.889 60.7786C192.992 60.6027 193.154 60.4689 193.346 60.4008C195.173 59.7525 197.034 59.135 198.876 58.5654C198.985 58.5305 199.1 58.5174 199.214 58.5271C199.328 58.5368 199.439 58.569 199.54 58.6218C199.642 58.6746 199.732 58.7471 199.805 58.8349C199.878 58.9227 199.933 59.0242 199.967 59.1334C200.001 59.2427 200.012 59.3575 200.002 59.4713C199.991 59.5852 199.957 59.6957 199.903 59.7966C199.849 59.8974 199.776 59.9866 199.687 60.0588C199.599 60.1311 199.497 60.1851 199.387 60.2177C197.567 60.7804 195.729 61.3904 193.925 62.0309C193.831 62.0638 193.733 62.0806 193.635 62.0805V62.0808ZM279.134 59.4988C279.058 59.499 278.983 59.4893 278.91 59.47C277.052 58.9739 275.17 58.506 273.318 58.0791C273.095 58.0276 272.901 57.8894 272.779 57.695C272.657 57.5005 272.618 57.2657 272.67 57.0422C272.721 56.8187 272.859 56.6248 273.054 56.5032C273.248 56.3815 273.483 56.3421 273.706 56.3936C275.578 56.826 277.479 57.2976 279.356 57.7989C279.56 57.8527 279.736 57.9786 279.853 58.1531C279.97 58.3276 280.02 58.5387 279.992 58.7471C279.965 58.9554 279.863 59.1467 279.705 59.2852C279.547 59.4237 279.344 59.4999 279.134 59.4997V59.4988ZM204.696 58.6628C204.486 58.6626 204.284 58.5859 204.126 58.4472C203.968 58.3085 203.867 58.1173 203.84 57.9091C203.813 57.7009 203.862 57.49 203.979 57.3158C204.097 57.1415 204.273 57.0158 204.476 56.9621C206.347 56.468 208.252 56.0082 210.14 55.5943C210.364 55.5451 210.599 55.587 210.792 55.7107C210.985 55.8344 211.121 56.0297 211.17 56.2538C211.219 56.4779 211.178 56.7123 211.054 56.9055C210.93 57.0987 210.735 57.2349 210.511 57.2841C208.647 57.6923 206.765 58.1466 204.918 58.6343C204.846 58.6529 204.772 58.6621 204.698 58.6617L204.696 58.6628ZM267.845 56.9007C267.789 56.9006 267.734 56.8953 267.68 56.8848C265.792 56.5202 263.883 56.1872 262.004 55.8955C261.778 55.8595 261.575 55.7355 261.441 55.5506C261.306 55.3657 261.25 55.1349 261.285 54.9089C261.32 54.6828 261.443 54.4798 261.628 54.3444C261.812 54.209 262.043 54.1522 262.269 54.1864C264.169 54.4816 266.1 54.818 268.008 55.1867C268.219 55.2273 268.408 55.3452 268.537 55.5174C268.666 55.6896 268.726 55.9037 268.706 56.1178C268.685 56.332 268.586 56.5309 268.427 56.6756C268.267 56.8204 268.06 56.9006 267.845 56.9007ZM216.004 56.1846C215.788 56.1842 215.58 56.1028 215.421 55.9564C215.262 55.8101 215.163 55.6094 215.144 55.3939C215.126 55.1785 215.189 54.9639 215.321 54.7925C215.453 54.6211 215.644 54.5053 215.857 54.468C217.764 54.1342 219.701 53.8376 221.616 53.5862C221.728 53.5714 221.843 53.579 221.953 53.6084C222.062 53.6378 222.165 53.6886 222.255 53.7578C222.345 53.8269 222.421 53.9131 222.477 54.0115C222.534 54.1099 222.571 54.2185 222.586 54.3311C222.601 54.4437 222.593 54.5581 222.564 54.6678C222.534 54.7775 222.483 54.8803 222.414 54.9704C222.345 55.0604 222.259 55.136 222.161 55.1927C222.062 55.2495 221.954 55.2863 221.841 55.3011C219.951 55.5493 218.038 55.8422 216.155 56.1717C216.106 56.1799 216.056 56.1839 216.006 56.1835L216.004 56.1846ZM256.397 55.1255C256.364 55.1255 256.33 55.1235 256.296 55.1195C254.388 54.8972 252.459 54.7104 250.563 54.5646C250.334 54.547 250.122 54.4392 249.973 54.265C249.824 54.0908 249.75 53.8645 249.767 53.6358C249.785 53.4071 249.893 53.1947 250.067 53.0455C250.241 52.8962 250.467 52.8223 250.696 52.8399C252.614 52.9878 254.566 53.1766 256.496 53.4014C256.716 53.4263 256.918 53.5343 257.061 53.7034C257.203 53.8724 257.275 54.0897 257.263 54.3104C257.25 54.5312 257.153 54.7386 256.992 54.8902C256.831 55.0419 256.618 55.126 256.397 55.1255ZM227.483 54.6764C227.26 54.6767 227.046 54.5909 226.884 54.4367C226.723 54.2826 226.628 54.0721 226.618 53.8493C226.608 53.6264 226.685 53.4085 226.832 53.2409C226.979 53.0733 227.186 52.9691 227.408 52.95C229.332 52.7799 231.288 52.6488 233.223 52.5597C233.337 52.5527 233.452 52.5685 233.56 52.6063C233.668 52.644 233.768 52.7029 233.853 52.7796C233.939 52.8562 234.008 52.949 234.057 53.0527C234.106 53.1563 234.134 53.2687 234.139 53.3832C234.144 53.4978 234.127 53.6122 234.087 53.7199C234.048 53.8276 233.988 53.9264 233.91 54.0105C233.832 54.0947 233.738 54.1625 233.634 54.21C233.529 54.2575 233.416 54.2838 233.302 54.2873C231.391 54.3738 229.46 54.5049 227.56 54.673C227.534 54.6744 227.509 54.6764 227.483 54.6764ZM244.847 54.2365C244.837 54.2365 244.826 54.2365 244.815 54.2365C243.097 54.1737 241.361 54.1417 239.654 54.1417H239.058H239.053C238.824 54.1422 238.604 54.0515 238.441 53.8896C238.279 53.7278 238.187 53.508 238.187 53.2786C238.186 53.0493 238.277 52.8291 238.439 52.6666C238.601 52.5041 238.82 52.4126 239.05 52.4121H239.653C241.383 52.4121 243.139 52.4444 244.878 52.5081C245.107 52.5122 245.326 52.6073 245.485 52.7724C245.644 52.9375 245.731 53.1591 245.727 53.3885C245.723 53.6178 245.628 53.8361 245.463 53.9954C245.298 54.1547 245.076 54.2418 244.847 54.2377L244.847 54.2365Z" fill="#7B7DB5"/>
<path d="M435.639 295.649C435.498 295.649 435.359 295.614 435.234 295.549C435.11 295.483 435.003 295.387 434.924 295.271C434.845 295.154 434.795 295.02 434.78 294.88C434.764 294.74 434.783 294.598 434.835 294.467C435.189 293.57 435.539 292.677 435.883 291.788C435.923 291.681 435.984 291.582 436.062 291.499C436.141 291.415 436.235 291.348 436.339 291.301C436.444 291.254 436.557 291.228 436.671 291.225C436.786 291.222 436.9 291.242 437.007 291.283C437.113 291.324 437.211 291.387 437.293 291.466C437.376 291.546 437.442 291.641 437.488 291.746C437.533 291.851 437.557 291.964 437.559 292.079C437.56 292.193 437.539 292.307 437.496 292.413C437.15 293.306 436.799 294.202 436.443 295.103C436.379 295.264 436.268 295.402 436.125 295.5C435.982 295.597 435.812 295.649 435.639 295.649Z" fill="#7B7DB5"/>
<path d="M381.475 98.2769C380.783 113.886 365.133 131.274 365.133 131.274C365.133 131.274 350.34 114.402 349.598 98.2769C349.102 87.4912 356.734 81.25 365.536 81.25C374.339 81.25 381.886 89.0049 381.475 98.2769Z" fill="#ECA7A9"/>
<path d="M365.491 107.823C370.868 107.823 375.227 103.464 375.227 98.0871C375.227 92.7103 370.868 88.3516 365.491 88.3516C360.115 88.3516 355.756 92.7103 355.756 98.0871C355.756 103.464 360.115 107.823 365.491 107.823Z" fill="#DD5557"/>
<path d="M118.476 178.094C117.308 204.465 90.8679 233.841 90.8679 233.841C90.8679 233.841 65.8754 205.337 64.6218 178.094C63.7832 159.873 76.6773 149.328 91.5488 149.328C106.42 149.328 119.17 162.429 118.476 178.094Z" fill="#9395D1"/>
<path d="M91.4719 194.223C100.556 194.223 107.919 186.859 107.919 177.776C107.919 168.692 100.556 161.328 91.4719 161.328C82.3882 161.328 75.0244 168.692 75.0244 177.776C75.0244 186.859 82.3882 194.223 91.4719 194.223Z" fill="#404396"/>
<path d="M447.846 294.778C447.323 306.581 435.489 319.729 435.489 319.729C435.489 319.729 424.303 306.971 423.742 294.778C423.367 286.622 429.138 281.902 435.794 281.902C442.45 281.902 448.157 287.766 447.846 294.778Z" fill="#7B7DB5"/>
<path d="M435.759 301.997C439.825 301.997 443.121 298.701 443.121 294.635C443.121 290.569 439.825 287.273 435.759 287.273C431.693 287.273 428.397 290.569 428.397 294.635C428.397 298.701 431.693 301.997 435.759 301.997Z" fill="#404396"/>
<path d="M257.066 241.074L257.047 241.16L257.042 241.193C256.099 245.716 255.133 250.481 254.167 255.35L254.096 255.705C247.191 290.431 242.883 328.497 242.883 328.497L228.077 327.912L230.335 212.449L246.727 212.648L257.066 241.074Z" fill="#404396"/>
<path d="M304.34 328.791L286.923 329.949L257.049 241.161L250.449 222.929L250.299 222.521L246.728 212.65L280.431 212.447L284.075 230.978L304.34 328.791Z" fill="#404396"/>
<path d="M225.683 342.357H210.883C210.883 340.395 211.662 338.512 213.05 337.125C214.438 335.737 216.32 334.957 218.283 334.957C220.246 334.957 222.128 335.737 223.516 337.125C224.904 338.512 225.683 340.395 225.683 342.357Z" fill="white"/>
<path d="M307.627 346.799H287.97C288.099 344.735 288.875 342.764 290.188 341.166C291.5 339.567 293.283 338.422 295.282 337.894C297.282 337.365 299.397 337.479 301.328 338.22C303.259 338.961 304.908 340.291 306.041 342.021V342.023C306.978 343.45 307.524 345.096 307.627 346.799Z" fill="white"/>
<path d="M225.683 342.357H210.883C210.881 343.59 211.188 344.804 211.776 345.887H238.76V342.357H225.683Z" fill="#19274A"/>
<path d="M240.125 330.631L238.761 342.357H225.684C225.684 341.385 225.492 340.423 225.12 339.525C224.748 338.627 224.203 337.811 223.516 337.124C222.829 336.437 222.013 335.892 221.115 335.52C220.217 335.148 219.255 334.957 218.283 334.957C218.283 334.957 220.979 334.731 223.789 334.7C224.01 334.698 224.233 334.696 224.452 334.698C224.452 334.698 225.432 337.663 226.448 337.804C227.196 337.878 227.951 337.865 228.696 337.766C229.226 337.726 229.743 337.584 230.219 337.347C231.015 336.834 230.333 334.141 230.333 334.141C230.884 333.059 230.333 330.631 230.333 330.631H240.125Z" fill="#FFAA40"/>
<path d="M306.041 342.02C305.165 340.683 303.977 339.579 302.58 338.803C301.182 338.028 299.617 337.604 298.019 337.568C296.421 337.532 294.839 337.886 293.408 338.598C291.977 339.311 290.741 340.36 289.807 341.657L290.678 334.045H304.339L306.041 342.02Z" fill="#FFAA40"/>
<path d="M257.331 241.218L256.907 241.132L256.795 241.173L256.766 241.103L256.768 241.096L250.178 223.028L250.719 222.83L257.365 241.052L257.331 241.218Z" fill="#19274A"/>
<path d="M230.57 233.761L230.099 233.036C230.185 232.978 238.708 227.257 240.038 212.535L240.9 212.613C239.529 227.779 230.935 233.524 230.57 233.761Z" fill="#19274A"/>
<path d="M283.865 231.355C272.906 225.275 269.236 212.956 269.2 212.832L270.031 212.592C270.066 212.712 273.644 224.695 284.284 230.598L283.865 231.355Z" fill="#19274A"/>
<path d="M230.221 337.347C229.745 337.584 229.228 337.726 228.698 337.766C227.942 337.01 227.657 335.418 227.565 334.731C228.661 334.74 229.51 334.722 229.853 334.6C230.067 334.515 230.24 334.35 230.335 334.141C230.335 334.141 231.017 336.833 230.221 337.347Z" fill="#404396"/>
<path d="M228.698 337.765C227.953 337.864 227.198 337.877 226.45 337.803C225.435 337.663 224.454 334.697 224.454 334.697C225.558 334.697 226.648 334.724 227.567 334.731C227.657 335.418 227.942 337.009 228.698 337.765Z" fill="#404396"/>
<path d="M287.969 346.799H307.626V347.433C307.626 348.11 307.357 348.759 306.878 349.238C306.399 349.717 305.75 349.986 305.073 349.986H290.521C289.844 349.986 289.195 349.717 288.716 349.238C288.238 348.759 287.969 348.11 287.969 347.433V346.799H287.969Z" fill="#19274A"/>
<path d="M248.709 144.732C249.016 144.676 259.649 144.887 259.649 144.887C259.649 144.887 269.295 144.958 272.252 146.79C272.252 146.79 264.789 155.38 261.972 155.662C259.156 155.943 252.819 157.07 250.847 155.803C248.876 154.535 248.453 155.239 248.313 152.845C248.172 150.451 248.709 144.732 248.709 144.732Z" fill="#404396"/>
<path d="M282.185 212.94C281.849 213.277 280.394 213.557 278.168 213.78C265.894 215.011 230.131 214.558 228.513 212.94C227.873 212.301 227.483 206.661 227.25 199.437C236.073 199.689 267.099 200.27 282.659 196.514C282.657 199.523 282.724 202.446 282.76 204.975C282.819 209.207 282.787 212.338 282.185 212.94Z" fill="#9395D1"/>
<path d="M283.307 178.139C283.076 181.958 282.736 188.473 282.669 194.845C282.663 195.402 282.659 195.958 282.658 196.511C267.099 200.268 236.073 199.687 227.25 199.434C227.048 193.227 226.961 185.845 226.928 179.46C236.376 180.293 267.207 182.54 283.307 178.139Z" fill="#9395D1"/>
<path d="M284.174 219.453L278.168 213.78C280.395 213.557 281.849 213.277 282.186 212.94C282.787 212.338 282.82 209.207 282.76 204.975L293.732 183.936L284.104 177.914L283.351 177.442C283.338 177.663 283.322 177.897 283.309 178.141C267.208 182.541 236.379 180.294 226.93 179.462C226.883 171.06 226.932 164.383 226.932 164.383C218.355 162.325 208.536 159.779 206.269 158.419C199.824 154.552 181.985 119.843 181.985 119.843L187.81 114.256L210.627 138.939C217.134 139.964 240.261 143.457 248.709 144.734C248.709 144.734 250.685 153.206 259.073 153.639C266.327 154.016 271.137 146.083 271.137 146.083C280.465 150.543 306.723 163.986 309.587 175.183C312.292 185.756 284.174 219.453 284.174 219.453Z" fill="#9395D1"/>
<path d="M210.838 138.744L210.414 139.135L214.116 143.142L214.539 142.75L210.838 138.744Z" fill="#19274A"/>
<path d="M283.637 177.461L283.061 177.425C283.166 175.739 283.24 174.732 283.24 174.732L283.815 174.775C283.815 174.775 283.742 175.78 283.637 177.461Z" fill="#19274A"/>
<path d="M293.886 183.694L293.58 184.184L295.735 185.53L296.041 185.041L293.886 183.694Z" fill="#19274A"/>
<path d="M227.11 152.698L226.687 188.818L227.263 188.825L227.686 152.705L227.11 152.698Z" fill="#19274A"/>
<path d="M263.84 135.475C263.663 135.452 263.481 135.417 263.294 135.375C262.242 136.989 258.785 141.953 255.343 143.065C254.823 143.242 254.273 143.314 253.725 143.275C244.367 142.491 245.732 130.575 246.177 127.807C246.429 127.939 246.022 128.94 246.7 128.789C248.364 128.416 252.059 125.353 252.226 125.215C252.857 125.465 253.479 125.718 254.092 125.974C255.711 126.648 257.264 127.347 258.751 128.069C260.043 128.696 261.279 129.341 262.461 130.006C263.248 129.476 264.839 128.581 266.321 128.835C266.82 128.918 267.285 129.139 267.666 129.472C267.725 129.521 267.783 129.575 267.839 129.632C269.43 131.221 268.265 136.087 263.84 135.475Z" fill="#FD8680"/>
<path d="M252.384 125.455L252.226 125.214L252.028 125.005L252.206 125.184L252.068 124.973L252.206 125.184L252.436 125.413L252.384 125.455Z" fill="#2DEA43"/>
<path d="M252.226 125.214C252.059 125.354 248.363 128.417 246.699 128.789C246.022 128.94 246.428 127.939 246.177 127.806C245.16 127.267 242.464 131.161 241.944 130.161C241.425 129.162 245.216 126.37 244.723 125.456C244.013 124.143 238.796 127.58 238.796 126.197C238.796 124.157 244.903 123.278 246.447 123.088C247.39 123.412 248.317 123.74 249.227 124.072C250.247 124.447 251.247 124.828 252.226 125.214Z" fill="#8E3332"/>
<path d="M266.322 128.833C264.84 128.579 263.248 129.474 262.462 130.004C261.281 129.339 260.044 128.693 258.752 128.067C259.537 126.463 260.892 124.276 261.663 123.062C264.136 124.724 266.054 126.704 266.322 128.833Z" fill="#404396"/>
<path d="M251.524 118.524C250.625 120.182 249.622 122.952 249.227 124.072C248.318 123.74 247.391 123.412 246.447 123.088C246.447 123.088 247.45 118.669 249.071 118.171C249.496 118.115 249.929 118.142 250.345 118.251C250.689 118.315 251.085 118.406 251.524 118.524Z" fill="#7B7DB5"/>
<path d="M256.542 120.311C255.628 122.155 254.811 124.045 254.091 125.973C253.479 125.716 252.857 125.463 252.225 125.214C251.247 124.826 250.248 124.446 249.228 124.072C249.621 122.952 250.625 120.182 251.524 118.523C253.238 118.997 254.915 119.595 256.542 120.311Z" fill="#404396"/>
<path d="M261.663 123.063C260.891 124.276 259.536 126.464 258.752 128.067C257.267 127.345 255.714 126.646 254.093 125.972C254.812 124.044 255.63 122.155 256.543 120.311C258.328 121.075 260.041 121.996 261.663 123.063Z" fill="#7B7DB5"/>
<path d="M269.948 123.761C269.854 121.807 268.888 119.419 267.049 117.458C266.329 116.688 265.505 116.019 264.603 115.472C262.833 114.41 260.826 113.805 258.764 113.712C253.831 113.436 251.09 117.085 250.345 118.251C250.689 118.315 251.085 118.406 251.524 118.523C253.237 118.997 254.914 119.594 256.54 120.31C258.325 121.075 260.039 121.996 261.662 123.063C264.134 124.726 266.052 126.705 266.319 128.833C266.818 128.916 267.284 129.137 267.664 129.47C268.338 128.288 270.015 125.179 269.948 123.761ZM260.449 120.603C259.876 120.529 256.337 118.517 256.433 117.695C256.49 117.211 257.689 116.25 258.171 116.456C258.653 116.661 261.875 117.844 261.875 118.567C261.875 119.289 261.023 120.677 260.449 120.603Z" fill="#404396"/>
<path d="M267.05 117.458C266.329 116.687 265.506 116.019 264.604 115.472C264.604 115.472 265.557 114.093 267.05 115.157C268.508 116.194 267.05 117.458 267.05 117.458Z" fill="#404396"/>
<path d="M261.876 118.566C261.876 119.289 261.024 120.677 260.45 120.603C259.875 120.529 256.338 118.517 256.434 117.696C256.491 117.211 257.69 116.251 258.172 116.456C258.653 116.662 261.876 117.844 261.876 118.566Z" fill="#FEFEFE"/>
<path d="M263.847 132.84L263.386 132.494C263.398 132.477 264.699 130.777 266.701 131.481L266.509 132.025C264.913 131.463 263.889 132.784 263.847 132.84Z" fill="#CC5754"/>
<path d="M263.84 135.475L263.801 145.664C261.553 150.224 258.702 150.836 255.171 149.536L255.344 143.065C258.785 141.953 262.243 136.988 263.295 135.375C263.482 135.419 263.663 135.452 263.84 135.475Z" fill="#FD8680"/>
<path d="M255.344 143.065C257.28 142.44 259.221 140.596 260.734 138.814C260.734 138.814 260.282 143.288 255.171 146.091L255.344 143.064V143.065Z" fill="#CC5754"/>
<path d="M189.215 115.829C189.215 115.829 185.093 106.063 184.516 106.906C183.939 107.749 185.167 110.794 185.167 110.794L183.441 111.018C183.441 111.018 178.053 105.722 177.145 106.273C176.238 106.823 180.887 111.415 180.887 111.415C180.887 111.415 176.369 108.063 175.015 108.39C173.661 108.716 179.251 113.067 179.251 113.067C179.251 113.067 175.098 110.316 174.377 110.919C173.656 111.521 182.059 120.172 182.059 120.172L189.215 115.829Z" fill="#FD8680"/>
<path d="M284.174 219.452L278.869 227.198L272.392 218.748L278.168 213.779L284.174 219.452Z" fill="#FD8680"/>
<path d="M230.334 330.632V328.002L240.124 328.389V330.632H230.334Z" fill="#FD8680"/>
<path d="M290.786 329.694L290.678 334.047H304.339L303.103 328.875L290.786 329.694Z" fill="#FD8680"/>
</svg>
