<svg width="90" height="90" viewBox="0 0 90 90" fill="none" xmlns="http://www.w3.org/2000/svg">
<g opacity="0.32">
<circle cx="45" cy="45" r="45" fill="#455154" fill-opacity="0.3"/>
<path fill-rule="evenodd" clip-rule="evenodd" d="M45.3333 29.0665C48.4267 29.0665 50.9333 31.5732 50.9333 34.6665C50.9333 37.7598 48.4267 40.2665 45.3333 40.2665C42.24 40.2665 39.7333 37.7598 39.7333 34.6665C39.7333 31.5732 42.24 29.0665 45.3333 29.0665ZM45.3333 53.0665C53.2533 53.0665 61.6 56.9598 61.6 58.6665V61.5998H29.0667V58.6665C29.0667 56.9598 37.4133 53.0665 45.3333 53.0665ZM45.3333 24C39.44 24 34.6667 28.7733 34.6667 34.6667C34.6667 40.56 39.44 45.3333 45.3333 45.3333C51.2267 45.3333 56 40.56 56 34.6667C56 28.7733 51.2267 24 45.3333 24ZM45.3333 48C38.2133 48 24 51.5733 24 58.6667V64C24 65.4667 25.2 66.6667 26.6667 66.6667H64C65.4667 66.6667 66.6667 65.4667 66.6667 64V58.6667C66.6667 51.5733 52.4533 48 45.3333 48Z" fill="white"/>
</g>
</svg>
